<svg width="208" height="161" viewBox="0 0 208 161" xmlns="http://www.w3.org/2000/svg">
  <g fill="#FF386C">
    <path d="M206.61 96.659a5.612 5.612 0 0 1-.976-.644c-.841-.847-1.849-1.538-3.03-1.641-1.304-.113-2.53-.57-3.82-.704-.166-.019-.696.044-.596-.397.293-1.303-.499-2.35-.78-3.513a9.81 9.81 0 0 0-.904-2.595 37.862 37.862 0 0 0-6.034-7.872c-1.247-1.25-2.039-2.941-3.689-3.792a.434.434 0 0 1-.174-.187c-.73-1.523-2.024-2.451-3.396-3.317a67.222 67.222 0 0 1-2.672-1.779c-.134-.093-.546-.247-.181-.494.533-.365.623-1.01 1.032-1.453 1.207-1.338 1.316-3.03 1.247-4.661-.072-1.804-.265-3.61-.443-5.412-.065-.656.156-1.387-.274-1.981-.624-.885-.511-2.167-1.51-2.86-.065-.045-.021-.226-.058-.332-.334-.938-.484-2.05-1.213-2.695-1.042-.922-1.56-2.173-2.352-3.23-.386-.509-.667-1.128-1.163-1.562a3.415 3.415 0 0 1-1.135-1.876.995.995 0 0 0-.23-.45c-1.248-1.404-2.554-2.78-3.62-4.345-.141-.207-.2-.46-.45-.625-1.17-.723-2.07-1.754-3.056-2.695-.624-.591-1.066-1.348-1.92-1.76a8.498 8.498 0 0 1-1.657-.938 21.273 21.273 0 0 0-3.277-2.229c-.795-.422-1.721-.625-2.398-1.2-1.79-1.516-3.673-2.867-5.837-3.795a15.175 15.175 0 0 1-3.224-1.78 15.542 15.542 0 0 0-3.692-2.019c-1.008-.415-.43-.647-.128-.862 1.942-1.376 2.092-3.795 3.299-5.596.056-.081.022-.225.034-.338.103-.972.165-1.947.312-2.907a3.108 3.108 0 0 0-.172-1.413c-.205-.756-.813-1.47-.368-2.335.11-.213-.115-.366-.168-.547-.274-.972-.954-1.707-1.453-2.545a6.246 6.246 0 0 0-1.871-1.982c-.365-.247-.882-.312-1.172-.65-1.001-1.207-2.495-1.463-3.817-2.079-1.126-.528-2.37-.134-3.546-.372a9.02 9.02 0 0 0-3.118-.03c-1.587.237-3.062.963-4.715.978a3.257 3.257 0 0 0-1.522.626c-.623.406-1.175.875-1.768 1.3-.83.59-1.818.878-2.578 1.629-.699.687-1.59 1.228-2.648.431-.312-.231-.47-.685-.804-.747-1.871-.35-3.493-1.35-5.32-1.813a100.47 100.47 0 0 0-2.585-.625c-1.902-.391-3.68-1.126-5.79-.748-1.448.26-2.85.473-4.207 1.057-1.226.532-1.678 1.563-1.294 2.835.452 1.507 1.733 2.364 2.59 3.555.858 1.19 2.04 1.91 3.02 2.907.143.147.439.278.311.553-.128.276-.37.244-.605.25-.87.026-1.737.079-2.604.063-1.038-.019-2.086.09-3.118-.175a1.814 1.814 0 0 0-.664.025c-.982.138-1.97.244-2.94.44-1.366.279-2.77.163-4.132.485-.459.11-.886.544-1.266.429-1.101-.335-2.133.096-3.19.156-2.323.128-4.612.563-6.904.963-1.552.236-3.08.61-4.565 1.116-2.183.79-4.204 1.96-6.424 2.638-1.094.335-1.93 1.25-3.118 1.379-2.205.24-3.524 2.063-5.336 2.995-1.082.556-1.705 1.64-2.75 2.207-.362.197-.574.54-.867.769-.814.64-1.247 1.613-2.03 2.244-1.344 1.088-2.385 2.467-3.62 3.658-1.487 1.438-2.308 3.366-3.159 5.226-.517 1.129-.67 2.383-1.116 3.555-.724 1.875-.783 3.907-.705 5.94.025.625.312 1.081.43 1.631.387 1.798 1.229 3.333 2.85 4.345.48.313.908.682 1.475 1.113-2.154.363-3.1 2.242-4.677 3.223-.808.497-.527 1.563-.83 2.326-.551 1.376-.433 2.77-.486 4.164a2.56 2.56 0 0 0 .022 1.007c.543 1.397 1.908 2.188 3.527 2.307.985.062 1.93-.313 3.137-.175-1.185.781-2.008 1.694-3.324 1.932-2.043.365-3.761 1.653-5.794 2.132-1.737.41-3.57.294-5.236 1.034a.109.109 0 0 1-.084 0c-.767-.487-1.606-.065-2.38-.193-1.87-.313-3.757.125-5.612-.2-1.653-.294-3.362-.313-4.905-1.176a18.825 18.825 0 0 0-3.48-1.35c-2.22-.694-3.608-2.057-4.344-4.13a18.626 18.626 0 0 0-1.768-3.398 2.818 2.818 0 0 1-.39-1.022c-.374-2.189-.452-4.427-.976-6.593-.162-.666.088-.966.699-1.094.935-.194 1.899-.391 2.847-.604 1.197-.268 2.429-.456 3.58-.869.695-.25 1.509-.312 2.048-.997a4.298 4.298 0 0 0 1.039-2.654c.05-1.275-1.042-2.876-2.317-3.004-.222-.022-.518.087-.568-.225-.034-.228.184-.391.35-.557a21.365 21.365 0 0 0 1.59-1.594c.913-1.128 1.899-2.235 2.11-3.808.179-1.319.568-2.585.076-3.935-.38-1.032-.758-1.957-2.002-2.154-.337-.053-.596-.332-1.017-.2-.29.087-.561-.166-.37-.544a3.008 3.008 0 0 0 .196-2.098c-.424-1.804-.864-3.617-2.782-4.486-1.918-.869-3.86-1.278-5.5.625a.57.57 0 0 1-.836.116c-.409-.25-.91-.65-1.297-.578-1.304.247-2.729.513-3.496 1.716-.518.82-1.288 1.441-1.671 2.335-.103.244-.212.182-.393.14-2.255-.496-4.678.895-5.114 3.18-.287 1.482-.958 2.964-.278 4.586.484 1.157.74 2.398 1.946 3.051.493.269.583.607.312 1.06a1.72 1.72 0 0 0-.09 1.525 7.273 7.273 0 0 0 1.923 2.898 4.676 4.676 0 0 1-.801.25c-1.765.197-3.09 1.732-2.838 3.414a3.065 3.065 0 0 0 1.132 1.829c1.375 1.182 2.835 2.116 4.746 2.032.518-.025 1.039 0 1.56 0 .455 0 .692.194.551.625-.19.572-.018 1.144-.103 1.704-.352 2.297.147 4.495.73 6.687.087.27.191.534.312.79.312.804.935 1.463 1.05 2.392.116.928.244 1.841 1.117 2.4.245.182.464.396.652.635.65.785 1.371 1.507 2.155 2.157.935.704 1.7 1.604 2.7 2.164.686.384 1.116 1.147 2.02 1.231.905.085 1.753.672 2.71.77.67.068.97.79 1.585.993 1.362.447 2.806.335 4.197.594.337.06.598.291.935.27 1.843-.104 3.69.246 5.498.187 2.183-.075 4.025.938 6.05 1.29.688.12 1.153.795 1.87.71.624-.071 1.135.179 1.693.426.624.275.384.443.113.769a6.428 6.428 0 0 0-1.307 2.735c-.427 1.9.034 2.95 1.812 3.804 1.013.485 2.183.788 1.559 2.342a.348.348 0 0 0 0 .172c.18 1.225.18 1.228-1.013 1.532-.574.146-1.154.215-1.56.753-.916 1.191-1.316 2.56-1.559 4.017-.243 1.457-.087 3.001-.221 4.498-.128 1.448.898 3.264 2.145 3.752 1.615.64 3.209 1.375 4.943 1.66.517.084.97.384 1.45.49 2.011.45 4.2.179 5.993 1.523.73.547 1.756.022 2.389.431 1.188.77 2.532.538 3.763.938.465.144.833.547 1.335.522 1.834-.1 3.602.385 5.404.56.748.075 1.475.36 2.22.415 2.305.182 4.612.285 6.839 1.007.683.19 1.394.262 2.101.213.669-.04 1.34.009 1.996.143 1.122.276 2.22.663 3.399.648.95 0 1.207.312.935 1.25a6.101 6.101 0 0 0-.13 1.535c-.026 1.25.483 2.36.863 3.492.496 1.475 1.104 1.61 2.451.725.144-.09.312-.153.455-.238 1.104-.625 2.342-1.044 3.212-2.066.334-.39.443-.669.103-1.103a2.843 2.843 0 0 1-.58-1.676c0-.366.078-.578.536-.538.964.085 1.93.094 2.897.157.717.046 1.435.122 2.149.209.43.053.67.147.237.625-.533.594-1.248.913-1.8 1.52-.667.753-1.686 1.06-2.494 1.76-1.403 1.234-2.994 2.285-4.478 3.454-.882.694-1.89 1.25-2.806 1.913-3.028 2.204-6.056 4.417-8.993 6.73-1.535 1.21-3.3 2.08-4.697 3.47-1.503 1.498-3.514 2.264-5.279 3.377-1.378.869-2.806 1.64-3.932 2.835-1.126 1.194-1.756 1.25-2.679-.047-.732-1.028-1.646-1.876-2.32-2.995-.798-1.306-2.03-2.382-3.199-3.42-1.17-1.037-2.364-2.088-3.277-3.385-.521-.741-1.5-1.057-1.79-1.985a2.278 2.278 0 0 0-.936-1.207 6.68 6.68 0 0 1-1.97-2.091c-.67-1.091-1.837-1.563-2.458-2.592-.576-.969-1.64-1.353-2.494-1.991-1.27-.957-2.566-1.807-4.113-2.292-.805-.253-1.347.066-1.871.485-1.341 1.104-1.625 2.642-1.528 4.27.05.816.031 1.688.486 2.401.661 1.035 1.3 2.079 1.95 3.126.935 1.523 2.098 2.907 2.859 4.561.427.938 1.104 1.738 1.578 2.648.474.91.842 1.954 1.761 2.613.197.17.328.401.371.657.122.658.45 1.26.936 1.72a4.732 4.732 0 0 1 1.56 2.681 2.06 2.06 0 0 0 1.075 1.479c.147.088.271.21.362.356 1.493 2.167 2.918 4.377 4.493 6.484.817 1.09 1.955 1.913 2.997 2.813a4.957 4.957 0 0 0 3.19 1.157c1.75.066 3.252-.8 4.758-1.547a2.392 2.392 0 0 0 1.073-1.163c.312-.666.49-1.37.736-2.054.567-1.563.623-3.104-.122-4.608-.234-.466-.078-.625.271-.89 1.086-.826 2.458-1.217 3.396-2.245.992-1.085 2.348-1.676 3.452-2.604.139-.1.263-.22.368-.354a5.69 5.69 0 0 1 2.785-2.135c1.247-.475 2.017-1.472 2.99-2.254a19.46 19.46 0 0 1 3.028-2.132c.79-.392 1.534-.869 2.22-1.422.774-.66 1.5-1.513 2.408-1.85 2.806-1.048 4.677-3.393 7.119-4.965 1.11-.719 2.201-1.526 3.352-2.213.876-.522 1.777-1.082 2.376-1.876.764-1.01 1.83-1.588 2.806-2.232 1.375-.907 2.85-1.66 4.054-2.813.664-.644 1.56-.77 2.389-.744 1.674.053 3.243.778 4.933.887 1.98.132 3.957.344 5.924.56 1.528.169 3.06.197 4.59.256 1.114.044 2.14.413 3.362.241 1.933-.272 3.892.528 5.856.744 1.022.09 2.03.3 3.003.625.936.34 1.905.156 2.844.197.624.028 1.225.24 1.805.213 1.17-.04 2.338.08 3.474.356 1.544.356 3.1.181 4.65.481 1.281.247 2.653.207 3.96.513a.68.68 0 0 0 .411-.028c1.78-.64 3.627-.378 5.451-.334.396 0 .833-.107 1.179.025 1.272.487 2.604.018 3.885.312 1.216.285 2.308-.337 3.458-.56 1.338-.256 2.055-1.197 2.87-2.085.903-.987 1.228-2.282 1.752-3.466.285-.687.44-1.42.455-2.164.034-.684-.312-1.306-.21-1.944a2.884 2.884 0 0 0-.882-2.792c-.146-.14-.246-.312-.03-.41.963-.459 1.378-1.562 2.32-2.019.23-.112.277-.312.402-.494.592-.844.841-1.803 1.16-2.766a7.834 7.834 0 0 0 .411-3.751c-.215-1.307-.271-1.354 1.045-1.317 1.004.029 2.005-.078 3.015.041.936.11 1.54-.394 1.341-.988a2.376 2.376 0 0 0-.889-1.34 3.495 3.495 0 0 1-1.125-1.289c-1.06-1.757-1.787-3.723-3.406-5.13-.558-.484-.654-1.113-.137-1.875.518-.763 1.223-1.835.992-2.764-.293-1.181-.044-2.338-.278-3.507-.312-1.585-.49-3.189-1.247-4.64-.178-.337-.33-.73 0-.915.424-.225.867-.816 1.438-.313 1.425 1.22 3.296 1.844 4.465 3.398a.936.936 0 0 0 .334.269c1.197.569 2.045 1.588 3.052 2.395 1.478 1.181 2.551 2.754 3.533 4.376.78 1.285 1.987 2.263 2.557 3.717.219.55.215 1.21.452 1.616.755 1.307.5 2.76.874 4.102.118.431-.066.625-.518.656-.486-.008-.97.08-1.422.256a7.115 7.115 0 0 0-3 3.005c-.842 1.563-.77 2.213.683 3.238.624.441.536.813.153 1.294-.087.113-.197.21-.296.313-1.375 1.454-3.18 2.5-4.076 4.433a3.444 3.444 0 0 0-.465 1.353c-.04 1.17.228 2.27.471 3.414a5.061 5.061 0 0 0 2.41 3.508c.422.256.387.422.25.79-.346.938-.574 1.876-.352 2.895.221 1.02 1.316 1.4 1.559 2.364 0 .04.215.018.312.05.25.061.48.187.667.365.755.726 1.606.738 2.591.463.574-.16 1.16-.803 1.631-.535 1.032.582 2.052.71 3.215.81 1.447.125 2.43-.425 3.327-1.303.425-.413.708-.47 1.182-.222.568.312 1.163.484 1.806.184 1.316-.625 2.522-1.338 3.062-2.813.077-.185.183-.357.312-.51.623-.832.935-1.807 1.247-2.785.15-.45-.28-.676-.165-1.11.283-1.063.165-2.138 0-3.23-.125-.78-.446-1.512-.493-2.306-.081-1.445-.019-2.923-.748-4.249-.113-.206 0-.394-.075-.581-.075-.188.028-.332.237-.313 1.656.044 2.04-1.131 2.242-2.41.252-1.37-.063-2.5-1.276-3.326zM13.246 29.585a8.542 8.542 0 0 1 2.046-3.438c.424-.416.914-.876 1.63-.716.98-.116 1.62.5 2.124 1.163.964 1.25 1.61 2.685 1.6 4.323 0 .313.087.782-.408.807-.44.022-.936 0-1.092-.597a1.801 1.801 0 0 0-.125-.485.698.698 0 0 0-.739-.334c-.249.046-.346.256-.333.525.028.553-.178.687-.73.494-1.175-.413-2.342.125-3.514.18-.599.03-.67-.118-.702-.587a3.4 3.4 0 0 1 .243-1.335zm-5.94 3.911c.1-1.822.25-3.217 1.21-4.42.377-.475.527-1.113.87-1.644.702-1.098 1.961-1.476 3.071-.832.206.119.256.234.057.466-.827.938-.936 2.138-1.145 3.292-.056.293.144.528.268.784.284.572.456 1.041-.224 1.632-.936.803-1.594 1.857-.97 3.232.172.382.09.591-.486.513-.892-.119-1.42-.653-1.924-1.288-.505-.634-.883-1.27-.727-1.735zM2.13 35.644c.237-1.25.411-2.501.739-3.73.246-.938 1.525-1.763 2.45-1.763.659 0 .908.35.677.963a4.34 4.34 0 0 0 0 3.21c.312.791.456 1.67 1.01 2.358.41.503-.102.822-.311 1.087-.702.923-2.582 1.589-3.452.538-.599-.719-1.225-1.547-1.113-2.663zM4.7 40.53a.58.58 0 0 1 .386-.135c1.58-.03 2.42-1.278 3.49-2.138.623-.513 1.194-.053 1.717.15.524.203.069.625-.056.86-.496.881-.396 1.747-.177 2.635l.243.047a33.56 33.56 0 0 0 .898-1.916 6.915 6.915 0 0 1 1.175-1.66.722.722 0 0 1 .799-.175c1.559.425 3.155 0 4.73.128.29.006.576-.08.814-.247a.626.626 0 0 0 .218-.697c-.04-.278-.312-.21-.492-.203-.964.034-1.924.025-2.894.093a4.249 4.249 0 0 1-3.54-1.563c-.473-.544-.264-1.513.687-2.072 1.949-1.147 4.075-1.21 6.208-.722 1.088.267 2.208.378 3.327.331 1.057-.056 1.3.2 1.326 1.235a10.268 10.268 0 0 1-.53 3.664 5.09 5.09 0 0 1-1.716 2.5 8.435 8.435 0 0 0-2.276 2.726c-.175.313-.293.566-.695.66-1.023.238-2.033.538-3.047.816-.08.022-.165.097-.24.09-2.308-.271-4.462.938-6.804.648-1.001-.122-1.56-.641-2.152-1.232-.29-.29-.44-.656-.885-.86-.646-.3-.967-2.429-.515-2.954v-.01zm7.692 10.538c-1.422.244-2.853-.119-4.24.147-1.064.203-2.059-.16-3.091-.103a.723.723 0 0 1-.527-.26c-.624-.64-1.353-1.188-1.777-2.007a.745.745 0 0 1 .127-.994c.658-.688 1.425-1.031 2.691-.978 1.31-.204 2.894.525 4.447.419 1.428-.097 2.94.293 4.344-.47.976-.528 2.136-.506 3.221-.687a39.438 39.438 0 0 1 2.276-.313 1.961 1.961 0 0 1 1.653.485c.527.497.742 1.185.312 1.738a3.976 3.976 0 0 1-2.064 1.435 29.538 29.538 0 0 1-5.542.997c-.658.05-1.166.485-1.83.6v-.01zm52.334 96.315c-.128.669-.25 1.35-.433 2.004-.518 1.835-1.818 3.082-3.611 3.266-1.248.129-2.695.12-3.68-1.34-.804-1.198-2.014-2.158-3.156-3.083-1.082-.879-1.68-2.054-2.204-3.239-.384-.863-.814-1.77-1.41-2.366-1.425-1.423-2.164-3.26-3.27-4.864-.914-1.32-1.516-2.895-2.452-4.208-.935-1.313-1.918-2.532-2.594-3.995-.677-1.463-1.737-2.642-2.523-4.008-.567-.985-1.17-2.06-1.3-3.151-.1-.835-.265-1.81.209-2.726.312-.625.623-.625 1.144-.444.52.181.842.594 1.263.882 1.247.844 2.495 1.672 3.742 2.52.624.425 1.098 1.19 1.762 1.637a10.3 10.3 0 0 1 2.566 2.41c1.116 1.532 2.43 2.899 3.508 4.468a8.338 8.338 0 0 0 2.495 2.426 6.271 6.271 0 0 1 2.301 2.188 10.02 10.02 0 0 0 2.096 2.573c.474.412.623 1.016 1.013 1.478.228.275.371.641.677.838 1.11.722.789 1.957 1.057 2.964.365 1.378 1.406 2.235 2.847 2.104-.421.556.065 1.081-.047 1.666zM143.868 5.77c.446-.285.9-.128 1.035.219.365.956 1.325 1.6 1.313 2.766 0 .672.496 1.282.514 2.073-.156.781-.071 1.663-.037 2.529.062 1.563-.674 2.72-1.587 3.851-.791.9-1.46 1.9-1.987 2.976-.268.607-.82.61-1.646.09-.74-.465-1.56-.834-2.289-1.25-1.12-.644-2.395-.7-3.461-1.353-.187-.116-.415-.15-.54-.39a8.976 8.976 0 0 0-1.621-2.174.626.626 0 0 1-.019-.922 260.655 260.655 0 0 0 2.473-3.288c.252-.347.667-.42.985-.657a17.426 17.426 0 0 0 2.183-2.032c1.001-1.044 2.37-1.604 3.742-2.07.328-.09.644-.218.942-.384v.016zm-20.469.475c.274-.33.618-.595 1.008-.775 1.92-1.076 3.854-2.132 5.834-3.092.814-.397 1.793-.206 2.688-.313 1.737-.046 3.467-.287 5.21-.162.539.023 1.065.17 1.538.428a27.591 27.591 0 0 1 3.212 1.988c.386.291.168.313-.025.485-.362.312-.824.15-1.229.284-2.217.738-4.054 2.054-5.756 3.627-.936.866-1.974 1.628-2.57 2.813a9 9 0 0 1-1.063 1.735c-.259.313-.421.313-.686.094a64.519 64.519 0 0 1-4.99-4.308 4.945 4.945 0 0 0-2.435-1.354 1.899 1.899 0 0 1-.49-.15c-.732-.425-.738-.631-.246-1.313v.013zm-21.001.275c-.49-.422-.692-1.22-.917-1.876-.097-.278 1.316-1.472 1.684-1.428.527.062.982-.128 1.472-.24.913-.207 1.84.033 2.766 0 2.32-.088 4.35 1.043 6.504 1.634a16.394 16.394 0 0 1 5.008 2.188 25.3 25.3 0 0 0 3.14 1.713c1.248.604 2.345 1.495 3.49 2.289.463.379.975.694 1.521.938.867.312 1.394 1.147 2.027 1.79.633.645 1.11 1.354 1.821 2.245-.795-.156-1.437-.178-1.995-.41-1.089-.443-2.292-.415-3.35-.806-1.128-.419-2.282-.44-3.43-.644-1.378-.247-2.737-.844-4.187-.46-.268.073-.418-.152-.624-.24-.78-.34-1.59-.313-2.423-.388-1.481-.106-3.043.22-4.406-.81-.624-.478-1.506-.603-2.239-1.006-.733-.403-1.247-.985-2.002-1.25-1.68-.607-2.591-2.157-3.86-3.255v.016zM47.54 58.151c.237-.478.409-1.022 1.064-1.25.757-.278 1.297-1.003 2.101-1.25a2.34 2.34 0 0 1 1.223-.172 3.466 3.466 0 0 0 1.172-.228 1.743 1.743 0 0 1 2.124.353c.817.816 1.955.8 2.9 1.269.419.253.871.447 1.344.575 1.559.263 2.912 1.06 4.365 1.498.973.293 2.096.369 3.15.531 1.389.165 2.764.433 4.113.803 1.176.318 2.393.457 3.61.413.874 0 1.606.466 2.495.428 1.625-.059 3.2.522 4.809.716.654.078.782.382.854.916a5.685 5.685 0 0 1-.106 1.96c-.172.816-1.487 1.194-2.133.66-.352-.29-.71-.582-1.035-.9-1.035-1.029-3.951-1.076-4.99-.057-1.138 1.11-3.741 1.376-5.045.694-.215-.112-.464-.184-.411-.46.152-.775-.228-1.381-.555-2.016-.746-1.45-.83-1.284-2.383-1.306-1.553-.022-2.688.872-4.007 1.347-1.247.453-2.554-.231-3.215-1.347-.854-1.441-1.799-2.923-3.81-3.067-.59-.04-1.17-.344-1.796-.422-1.354-.172-2.598.231-3.864.581-.292.115-.556.29-.776.513-.244.188-.34.76-.761.422-.33-.266-.655-.763-.437-1.203zm37.42 4.318c-.088-.313.311-.232.486-.36a1.13 1.13 0 0 1 1.06-.162c1.481.456 3.084.247 4.522.65 1.68.475 3.43.356 5.073.86.901.275 1.871.33 2.778.556.649.16 1.35-.116 2.05-.053.698.062 1.359.269 1.957.256 1.825-.037 3.359 1.004 5.18 1.076 2.16.087 4.365-.022 6.501.45a6.924 6.924 0 0 0 2.87-.022 4.113 4.113 0 0 1 2.494.378c-.624.813-1.226 1.582-1.594 2.501-.29.738-1.075 1.088-1.434 1.791-.359.704-.935 1.25-1.31 1.957-.767 1.473-3.187 1.954-4.437.957a2.372 2.372 0 0 1-.823-1.829 6.152 6.152 0 0 0-1.3-3.551c-.409-.538-1.912-.735-2.623-.328-1.004.572-1.87 1.388-2.236 2.428-.218.607-.505 1.357-.349 2.076.095.397.008.816-.237 1.141-.88 1.05-1.4 2.36-2.479 3.267-.332.29-.764.44-1.204.419-2.36 0-3.43-2.148-2.722-4.152.582-1.6.86-3.297.82-5.001 0-.341.025-.688 0-1.026-.13-1.075-1.191-1.722-2.289-1.85-2.242-.26-2.918 1.347-3.72 2.848-.801 1.5-1.559 3.02-2.335 4.523a8.257 8.257 0 0 0-.936 3.773c0 1.66-.773 2.889-1.87 3.986-.59.588-2.118.797-2.739.403-.686-.434-.91-1.469-.757-2.454.178-1.142.256-2.298.234-3.454-.035-1.563.39-3.048.623-4.564.218-1.36.524-2.701.527-4.108-.015-1.135.518-2.216.203-3.382h.015zm42.904 6.092c1.487.938 2.763 2.142 4.184 3.148a5.462 5.462 0 0 0 3.533.957 3.9 3.9 0 0 1 1.076-.05c1.229.313 2.283-.053 3.19-.778 1.335-1.063 2.972-1.048 4.494-1.404 1.44-.338 2.784.15 4.004.938 1.219.788 2.391 1.582 3.741 2.104.746.284 1.316-.025 1.918-.216 1.587-.5 1.684-.494 2.588.882.198.317.437.606.711.86.275.237.512.624.368.996-.153.39-.518.654-.935.676-1.247.112-2.248.747-3.184 1.519-.758.625-1.6 1.044-2.616.972-1.291.028-2.928-1.04-3.402-2.229a3.646 3.646 0 0 0-2.033-1.986 3.634 3.634 0 0 0-2.838.08c-1.272.606-2.548 1.184-3.767 1.897a3.006 3.006 0 0 1-2.931.09 5.94 5.94 0 0 0-.96-.334c-1.248-.344-1.934-1.41-2.844-2.188-.434-.366-.749-.87-1.344-1.02-.596-.15-1.11-.587-1.64-.896-.88-.516-1.79-.4-2.642-.282-1.247.175-2.563.375-3.539 1.25-.976.876-1.911.807-3.003.441a2.033 2.033 0 0 1-1.207-2.5c.352-.982.843-1.906 1.46-2.745.09-.128.106-.313.312-.357 2.139-.49 4.284-.806 6.464-.312.306.114.59.28.842.487zm-.044-1.581c1.11-.313 4.054.075 4.865.694.935.716 2.051.672 3.102.887.774.16 1.56.194 2.351.313.792.119 1.479.235 2.423.385-1.587 1.347-3.071 1.919-4.989 1.597-1.656-.278-2.906-1.05-4.147-2.079-.496-.412-1.092-.866-1.871-.91-.643-.043-1.082-.6-1.734-.887zm22.286 3.704c.827.194 1.56-.053 2.261.206.55.157 1.084.366 1.594.626a.679.679 0 0 1 .252.425c.031.16-.137.225-.28.266-.768.2-3.19-.713-3.827-1.526v.003zM92.22 73.388c-.378-.24-.53-.337-.409-.825a18.154 18.154 0 0 1 2.049-4.636c.268-.46.842-.76 1.316-1.066a.557.557 0 0 1 .798.26c.14.455.236.923.287 1.397.29 1.563-.412 2.938-.817 4.376a7.676 7.676 0 0 0-.271 1.6c0 .154 0 .285-.153.367-.153.08-.221-.029-.284-.113-.614-.885-1.712-.847-2.516-1.363v.003zm2.413 3.314c-.106.35 0 .703-.533.938-1.534.706-1.724.55-3.393.731-.935.022-1.004-.065-.639-.994.312-.822.69-1.626 1.01-2.448.066-.168.09-.378.312-.312.758.25 1.697.065 2.23.881.156.238.408.313.624.438.286.184.51.369.39.766zm1.843.7c-.24 0-.502 0-.517-.313 0-.059.08-.18.124-.18.297 0 .247.337.396.49l-.003.003zm-.492 5.446c.311-.294.146-.766.208-1.15.09-.567.312-.851.914-.854a22.041 22.041 0 0 0 5.504-.772c.935-.247 1.98.081 2.937-.353.26-.12.415.118.45.447.084.847 1.512 2.5 2.341 2.788.371.122.783.313.717.725-.065.413-.492.372-.857.313-1.506-.203-2.847.397-4.222.866a5.912 5.912 0 0 1-1.818.35c-1.332 0-2.623.313-3.936.44-1.484.15-2.956-.187-4.437-.221a.561.561 0 0 1-.533-.385c1.232-.319 1.893-1.369 2.732-2.194zm.913-4.408c.084-.394.4-.216.736-.26.308-.022.616.052.88.213.991.69 1.933.4 2.956 0 1.475-.578 2.429-1.497 2.825-3.076.118-.478.602-.891.913-1.338.624-.875.624-1.944 1.017-2.889.19-.434.46-.83.795-1.166.586-.64.686-.159.917.27.44.818.312 1.747.561 2.613.312 1.09.21 1.084-.623 1.775a6.692 6.692 0 0 0-1.909 2.973c-.193.541-.396.807-1.063.844-1.528.088-2.94.816-4.469.982-1.153.125-2.304.287-3.458.431-.115 0-.243.025-.29-.112-.128-.441.125-.832.215-1.244l-.003-.016zm11.033-1.22c.24-.35.212-.915.67-1.056.524-.16.642.475 1.01.663 1.008.519 1.775 1.432 2.838 1.85 1.843.72 3.561 1.704 5.376 2.501 1.712.741 3.455 1.498 5.223 1.895 1.768.397 3.268 1.39 5.011 1.71.886.16 1.902 0 2.66.381 1.007.51 2.102.375 3.084.791.817.35 1.715.134 2.563.394 1.416.434 2.866.74 4.306 1.091 1.812.44 3.661.378 5.504.394.502 0 1.017.094 1.622-.313-.256 1.216-.97 1.929-1.248 2.851-.102.357-.536.253-.751.24-1.656-.096-3.3-.374-4.943-.543-1.406-.144-2.725-.672-4.206-.6-1.56.075-3.165-.432-4.746-.704-2.323-.397-4.518-1.25-6.86-1.64-1.56-.254-3.028-1.086-4.547-1.63-1.144-.412-2.154-1.075-3.49-1.122a10.05 10.05 0 0 1-3.894-1.053 8.554 8.554 0 0 0-2.837-.907c-2.286-.216-3.652-3.27-2.345-5.192zm18.12.395a7.39 7.39 0 0 0 2.495.56c1.116.09 2.054.737 3.118.9 2.744.418 5.3 1.397 7.848 2.425.42.17.86.275 1.31.313.91.066 1.56.644 2.301.975 1.176.522 2.274 1.232 3.415 1.838.374.197.751.407.624.876-.128.469-.583.387-.936.312-.655-.134-1.191.313-1.824.313-1.871 0-3.655-.569-5.488-.816-2.096-.278-4.088-1.01-6.202-1.285a20.143 20.143 0 0 1-6.215-1.785c-.649-.312-1.456-.344-2.199-.428-2.008-.228-3.673-1.35-5.506-2.032-1.725-.644-3.365-1.475-5.08-2.132-.686-.263-1.116-.953-1.759-1.341a7.585 7.585 0 0 0-.873-.503c.624-.254 1.247-.041 1.871-.204a28.327 28.327 0 0 0 3.48-1.172c.371-.15.714-.312.936.175.411.91 1.284 1.182 2.104 1.288 2.252.319 4.472.741 6.58 1.732v-.01zm-1.42-2.815c1.045-.584 2.105-1.175 3.118-.531 1.014.644 2.29.684 3.162 1.563.262.262.546.503.814.763.103.1.237.234.116.362a.467.467 0 0 1-.387.097c-.38-.09-.749-.253-1.132-.34-1.924-.432-3.857-.81-5.69-1.898V74.8zm20.762 7.271a1.75 1.75 0 0 1-.883-.312c-1.388-1.07-3.168-1.25-4.677-2.113-.69-.394-1.64-.344-2.48-.463-.22-.031-.46.069-.595-.253.82-.313 1.668.122 2.473-.138.13-.04.312 0 .396-.097.658-.756 1.606-1.122 2.342-1.785a2.073 2.073 0 0 1 1.87-.35c.886.238 1.728.603 2.183 1.604.67 1.516 2.205 1.844 3.593 2.27 1.135.35 2.398.843 3.461 0 1.65-1.304 3.742-1.717 5.407-2.97.334-.254.499-.016.605.197.396.797 1.225 1.031 1.899 1.413 1.113.625 2.242.359 3.321-.291.723-.435 1.56.081 1.581.956.047 1.663-.044 3.31-.936 4.793-.39.644-.898 1.106-1.677 1.169a12.26 12.26 0 0 1-6.365-1.25c-1.219-.582-2.338-.148-3.374.312-1.175.506-2.438.732-3.598 1.282-.35.165-.758-.247-.864-.66-.486-1.888-1.78-3.085-3.68-3.298l-.002-.016zm-58.901-.41c.295-.27.658-.455 1.05-.537a1.62 1.62 0 0 0 .998-.603c.505-.8 1.31-.77 1.99-.682a6.216 6.216 0 0 0 3.654-.519c.346-.168.795-.375.817.45.056 2.101-1.219 3.59-3.458 3.827-.737.07-1.46.247-2.145.528-1.051.444-2.183.241-3.218.122-1.12-.128-2.258-.047-3.359-.284-.982-.213-1.974-.263-2.962-.625-1.456-.532-3.084-.448-4.637-.397a9.311 9.311 0 0 1-2.13-.313c-1.559-.313-3.137-.369-4.677-.594-1.285-.188-2.591-.335-3.86-.6-1.541-.313-3.094-.522-4.622-1-1.777-.554-3.726-.804-5.17-1.96-1.172-.939-2.32-2.267-1.506-4.13.13-.313.103-.675.18-1.25a7.244 7.244 0 0 0 3.55 1.5c1.11.194 2.291 0 3.333.46a12.78 12.78 0 0 0 3.979.915c1.216.1 2.404.482 3.639.394.726-.053 1.394.313 2.04.535 1.062.324 2.166.488 3.276.487 1.167.054 2.233.65 3.43.532 1.61-.16 3.203.262 4.818.212.624-.021.599.685.546 1.066-.137 1 .284 1.714.935 2.36a2.546 2.546 0 0 0 3.512.126l-.003-.02zm-4.678-6.564v.544c-.028 1.029-.019.966-1 .797-1.351-.237-2.698-.625-4.089-.41-.751.126-1.363-.362-2.067-.378-1.13-.028-2.286.241-3.374-.196-1.846-.744-3.889-.338-5.754-1.148a13.099 13.099 0 0 0-5.488-.938 7.558 7.558 0 0 1-2.94-.578 22.412 22.412 0 0 0-2.414-.797.722.722 0 0 1-.592-.716c-.066-.444.284-.528.536-.656a7.122 7.122 0 0 1 5.962-.338c1.413.525 2.654.097 3.876-.49.55-.267 1.03-.37 1.457.08.407.405.922.683 1.484.8a2.22 2.22 0 0 1 1.419 1.104c.298.528.86.852 1.465.844.583 0 1.026.313 1.528.513s1.067.288 1.56 0c.692-.385 1.5-.488 2.142-1 .642-.513 1.247-.344 1.783.268a4.984 4.984 0 0 0 3.514 1.692c.112.026.23.018.337-.022.91-.625.696.094.683.566-.006.178-.143.337-.012.484l-.016-.025zm-31.56-10.285c-.71.447-1.597.51-2.364.17-1.334-.582-1.44-.626-1.175-2.19a1.733 1.733 0 0 1 1.49-1.562c.25-.044.387-.238.568-.375 1.87-1.448 3.963-1.632 6.174-.957a.595.595 0 0 1 .29.172c.864 1.12 2.158 1.876 2.872 3.08.83 1.412 2.875 2.144 4.34 1.087.41-.294.903-.453 1.407-.453.645-.038 1.27-.413 1.915-.604.95-.278 1.247-.059 1.3.898.093 1.86 1.85 3.31 3.676 3.36 1.694.047 2.807-1.05 4.198-1.644 1.699-.732 2.722-1.066 3.788.91a.957.957 0 0 0 .86.497c.893-.022 1.79.187 2.667-.022.583-.14.583.187.527.556-.02.362-.067.721-.14 1.076a9.615 9.615 0 0 1-1.188 2.316c-.269.388-.84.469-1.338.403-.742.175-.936-.487-1.247-.869-.886-1.072-2.779-1.419-3.898-.625-.422.35-.925.585-1.463.685a1.404 1.404 0 0 0-.333.087c-.312.113-.197.785-.696.6-.807-.312-1.87.157-2.454-.719-.798-1.216-2.251-1.422-3.258-2.285a4.252 4.252 0 0 0-1.778-.816c-.546-.137-1.126.313-1.469.741a.863.863 0 0 1-1 .335c-.902-.154-1.871-.063-2.617-.716-.885-.782-1.833-1.532-2.55-2.451a3.323 3.323 0 0 0-3.403-1.338 8.324 8.324 0 0 1-1.811.16 3.498 3.498 0 0 0-1.874.518l-.016-.025zm-5.3 16.698c.119-.291.237-.585.35-.876.398-1.019 1.318-1.434 2.204-.822a11.967 11.967 0 0 0 4.36 1.785c1.11.244 2.354.407 3.233 1.132.78.644 1.87.313 2.516 1.1 1.229-.262 2.115.857 3.34.804.574-.025 1.247.403 1.74.8.976.794 2.223.778 3.29 1.288 1.702.816 3.698.875 5.27 2.073.82.625 1.917.378 2.844.725.192.033.379.093.555.178.91.647 1.986.938 2.984 1.391 1.487.682 3.056 1.15 4.518 1.904 1.226.625 2.663.725 3.923 1.347a33.116 33.116 0 0 0 4.44 1.748c.505.162.936.553 1.416.797.706.382 1.452.687 2.223.91 1.039.268 1.84.972 2.685 1.581.33.238-.062.6-.128.626-1.032.59-1.78 1.756-3.187 1.628-1.038-.084-2.086-.187-2.959-.86a2.322 2.322 0 0 0-1.2-.337c-.936-.116-1.628-.694-2.367-1.154a2.448 2.448 0 0 1-1.004-1.49c-.427-1.445-1.135-2.13-2.638-1.045-.605.441-1.223.825-1.672 1.454a.934.934 0 0 1-1 .344c-1.69-.438-3.462-.404-5.149-.872a25.17 25.17 0 0 1-2.494-.729 1.626 1.626 0 0 1-1.026-1.62 1.172 1.172 0 0 0-.761-1.209 1.18 1.18 0 0 0-1.485.29c-.623.823-1.474.726-2.27.695a13.51 13.51 0 0 1-4.827-.96 35.038 35.038 0 0 1-3.43-1.876.787.787 0 0 1-.312-.394c-.477-1.25-1.172-1.447-2.435-1.037-1.5.481-3.065.937-4.677.572-.571-.135-1.12.047-1.728-.225-.876-.394-2.23-1.692-2.14-2.617.06-.6.313-1.153.275-1.813-.056-1.313-.171-1.585-1.459-1.876a2.417 2.417 0 0 1-1.704-1.234 2.428 2.428 0 0 1-.095-2.104l-.019-.022zm125.966 31.348c-.287.847-.905 1.563-1.297 2.392-.602 1.25-1.647 2.104-2.925 2.01-1.613-.12-3.144.156-4.678.369-1.135.156-2.248-.129-3.349 0-.954.103-1.893.072-2.84.109-.278 0-.602.116-.82 0-1.45-.71-3.01-.144-4.503-.435-2.386-.462-4.83-.443-7.244-.847-2.495-.415-4.99-.922-7.578-.819-1.378.053-2.772-.381-4.166-.547-1.275-.15-2.553-.275-3.844-.312-1.503-.057-3-.347-4.503-.404-1.067-.037-2.23.028-3.19-.175-1.56-.331-3.119-.156-4.678-.419a47.414 47.414 0 0 0-5.195-.725 9.91 9.91 0 0 1-2.647-.569c-.561-.194-1.11-.137-1.662-.187-1.123-.25-2.252.087-3.43-.394a7.218 7.218 0 0 0-3.633-.463c-.334.074-.68.082-1.017.025-1.362-.366-2.74.022-4.094-.128-.801-.088-1.587-.335-2.392-.46-1.3-.203-2.578-.497-3.916-.26-.64.117-1.182-.35-1.762-.565-1.5-.553-3.118-.347-4.634-.69-1.384-.313-2.76-.66-4.144-.985a3.733 3.733 0 0 0-1.41 0c-1.48.271-2.775-.432-4.165-.573-1.291-.13-2.589 0-3.851-.165-.79-.103-1.666-.128-2.398-.76-.375-.312-1.123-.278-1.703-.275-1.31 0-2.495-.5-3.742-.775-2.183-.482-4.244-1.463-6.414-1.935-1.076-.235-2.099-.879-3.287-.672a1.46 1.46 0 0 1-.963-.282c-1.167-.822-2.52-1.125-3.855-1.494-.801-.222-1.147-.841-1.247-1.563-.396-2.673.405-5.183 1.185-7.668.38-1.22 2.236-1.526 2.987-.52.92 1.232 2.323 1.464 3.608 1.773 1.66.4 3.4.516 5.011-.372.552-.312.964-.312 1.31.347.393.754 1.135 1.188 1.893 1.476 2.014.766 4.032 1.588 6.149 1.97 1.56.28 3.184.312 4.627-.626.362-.231.428-.072.465.262.103.938.82 1.451 1.463 1.989 1.14.938 2.435 1.372 3.95 1.528 1.341.141 2.676.397 4.054.476 1.207.071 2.164-.254 2.919-1.17.47-.569.839-.71 1.166.122.415 1.044 1.397 1.46 2.283 1.973 1.431.831 2.862 1.66 4.534 1.929a6.34 6.34 0 0 0 3.841-.52c.91-.428 1.871-.715 2.695-1.353.265-.206.408-.053.642.228 1.634 1.948 3.605 3.158 6.299 3.105 1.026-.022 2.058.14 3.006-.294 1.4-.641 2.956-1.02 4.029-2.267.474-.553.976-.15 1.3.157a8.143 8.143 0 0 0 2.71 1.563c1.016.406 2.089.665 3.087 1.15.998.485 2.142.29 3.212.475a9.366 9.366 0 0 0 1.765.106 6.4 6.4 0 0 0 3.891-1.306c.378-.291.468-.572.936 0 .736.894 1.381 1.875 2.276 2.65a4.546 4.546 0 0 0 2.117.939c1.528.35 3.119.44 4.678.625a9.546 9.546 0 0 0 5.497-.866c.54-.275 1.023-.666.989-1.388 0-.188.112-.313.23-.438.294-.331.225-1.035.74-1.063.623-.031.461.688.651 1.06.624 1.175 1.734 1.563 2.844 1.966.533.197 1.082.313 1.488.8.29.348.764 0 1.178.091 1.341.26 2.61.313 3.727-.938a7.522 7.522 0 0 1 2.379-1.747c.574-.269.876-.11 1.247.313a6.954 6.954 0 0 0 4.87 2.435c1.298.087 2.592.278 3.886-.072.836-.225 1.513-.804 2.392-.938.527-.081 1.22.134 1.194.672-.071 1.454.247 2.942-.224 4.34zm1.833-10.744c-.404.4-.707.89-.882 1.432-.649 1.663-2.358 2.157-3.412 3.341-.96-.19-1.87.132-2.756.366-.886.235-1.734-.06-2.588-.112-1.335-.085-2.04-1.126-2.766-2.08-.465-.624-.845-1.494-1.787-1.16-1.038.37-2.205.485-2.981 1.508a6.147 6.147 0 0 1-2.245 1.688c-.982.415-2.1.357-3.034-.156-.79-.426-1.737-.66-2.317-1.476a2.75 2.75 0 0 1-.624-1.097 3.608 3.608 0 0 0-.312-1.063c-.343-.641-.48-1.46-1.577-1.366-1.001.087-1.248.816-1.56 1.482-.25.572-.474 1.162-.732 1.735-.437.962-1.871 1.84-2.907 1.719-1.035-.122-2.114.112-3.174.062-2.704-.134-5.21-.653-6.576-3.382a7.268 7.268 0 0 1-.65-1.497c-.152-.644-.623-.832-1.122-.885a1.219 1.219 0 0 0-1.294.7c-.804 1.995-2.738 2.16-4.319 2.245-1.088.059-2.41-.429-3.567-.938-1.3-.579-2.622-1.25-4.138-1.004a.676.676 0 0 1-.59-.312 40.51 40.51 0 0 1-1.465-1.8c-.474-.614-1.431-.717-1.87-.048-.624.972-1.632 1.42-2.551 1.929-.897.505-1.864.872-2.87 1.088-1.128.234-2.182.287-3.217-.385-.658-.425-1.407-.703-2.09-1.116-.605-.365-.243-.54.05-.665 1.71-.72 3.43-1.442 5.152-2.101 2.928-1.113 5.946-1.907 8.952-2.714 1.447-.387 2.988-.75 4.556-.678.706 0 1.41-.075 2.102-.222 1.94-.313 3.904-.094 5.859-.338a30.191 30.191 0 0 1 4.325-.275c.305.024.606.092.892.2 1.87.579 3.757.294 5.644.366 1.936.072 3.898-.15 5.812.344.138.034.312.103.418.044.686-.45 1.326-.035 1.993.044 1.319.156 2.653.171 3.976.312 1.262.181 2.545.16 3.8-.066.331-.071.522.182.78.254 1.871.54 3.802.172 5.697.26 2.002.093 4.004-.204 6-.26 1.721-.047 3.449.165 5.173-.066.257-.012.513-.038.767-.078 1.482-.366 1.871-.038 1.728 1.563-.19.313.109.625.106.938.037 1.566-.72 2.75-1.809 3.72zm2.95-12.636c.624.644.936 1.479 1.366 2.242.502.881.733 1.906 1.45 2.729-1.765-.694-3.464-.041-5.173.05-.43.02-.86.004-1.288-.047a7.419 7.419 0 0 0-2.807.075c-1.478.406-2.825-.478-4.256-.5-1.378-.022-2.74-.363-4.144-.075-1.194.243-2.404.565-3.661.18-.312-.096-.72.123-1.085.192-1.216.23-2.373-.235-3.561-.313-1.534-.097-3.066-.247-4.606-.244-1.475 0-2.937 0-4.397-.403-1.072-.288-2.22-.16-3.342-.116-.584.025-1.189.094-1.74-.278-.453-.313-1.005-.147-1.52-.144a34.25 34.25 0 0 0-4.842.247 17.295 17.295 0 0 1-4.696-.022c-1.3-.16-2.654.163-3.973.088-2.06-.116-3.997.56-6.002.778-.364 0-.727-.018-1.088-.056a7.82 7.82 0 0 0-2.876.675c-1.122.444-2.363.522-3.545.732-2.26.397-4.322 1.335-6.492 1.96-.858.244-1.51.913-2.27 1.366-.895.534-1.528.503-2.401-.081a35.163 35.163 0 0 0-3.742-2.123c-1.722-.875-3.611-1.435-5.227-2.42-2.201-1.34-4.749-1.844-6.891-3.279-.957-.64-2.23-.588-3.349-.9-1.12-.313-2.111-.85-3.171-1.104-1.154-.272-2.127-.853-3.2-1.25-1.749-.625-3.46-1.341-5.167-2.088-1.509-.66-3.018-1.5-4.593-1.817-1.356-.272-2.672-.981-4.132-.769-.449.063-.642-.528-.988-.597-1.325-.26-2.47-.981-3.767-1.34a21.89 21.89 0 0 1-5.42-2.214 2.437 2.437 0 0 0-1.615-.453.76.76 0 0 1-.561-.122c-1.12-.697-2.38-1.013-3.648-1.266-1.27-.254-2.495-.588-3.724-.938-.311-.09-.623-.313-.623-.625 0-.272.296-.479.536-.626a1.44 1.44 0 0 1 .474-.178c2.898-.606 5.78-1.28 8.644-2.022.91-.238 1.87-.313 2.781-.529.608-.134.652.213.58.625a14.913 14.913 0 0 1-.452 2.014c-.47 1.45-.212 3.126 1.388 4.145 1.104.7 1.93 1.804 3.209 2.32.576.23 1.247.625 1.74.625 1.48-.028 2.694.866 4.134.937.936.041 1.787.657 2.782.75 1.606.15 3.196.467 4.796.704a20.88 20.88 0 0 1 2.585.625 4.47 4.47 0 0 0 2.083-.056c1.366-.313 2.6.078 3.854.372 1.413.331 2.875.24 4.272.582 1.51.372 3.075.25 4.578.625.193.047.396.036.583-.032a4.49 4.49 0 0 1 3.81.363c1.185.678 2.645.728 4.032.844 1.248.103 2.495.028 3.705.05 1.094.019 2.357-.037 3.43-.644a1.27 1.27 0 0 1 1.141-.194c.493.179.81-.29 1.232-.378.867-.175 1.746-.312 2.613-.478 1.425-.288 2.847-.607 4.272-.894a2.934 2.934 0 0 1 2.086.312c.57.347 1.073.626 1.765.57 1.138-.076 1.968.78 2.966 1.143 1.977.72 3.947 1.442 6.021 1.832.112.02.265-.037.337.022 1.247 1 2.734.76 4.15.879a5.348 5.348 0 0 1 1.665.575 3.69 3.69 0 0 0 2.074.312.747.747 0 0 1 .412.085c1.528.744 3.193 1.028 4.83 1.332.774.113 1.559.138 2.338.072a3.289 3.289 0 0 1 1.61.284 2.93 2.93 0 0 0 2.373.119 2.063 2.063 0 0 1 1.266-.15c.573.15 1.131.312 1.612-.107.602-.515 1.275-.994 1.465-1.853.175-.807.774-1.42 1.051-2.189.147-.41.624-.378.936-.475 1.437-.44 2.806-1.294 4.365-1.056 1.213.18 2.41.422 3.611.719 1.999.497 4.141.969 6.162.062.845-.33 1.52-.99 1.87-1.829a19.67 19.67 0 0 0 1.052-3.882c.022-.113.115-.194.165-.194.901 1.075.907 2.354.836 3.589-.11 1.841 2.048 3.345 3.654 2.916.312-.08.67.025.936-.106.804-.397 1.231.278 1.493.688.252.379.541.73.864 1.05zm-7.89-9.012c.073.037.11.178.126.281 0 .044-.081.1-.122.147-.15-.09-.115-.197-.081-.294.028-.05-.04-.194.078-.134zm7.59.506a3.193 3.193 0 0 1-1.038 3.164c-.598.562-.845 1.413-1.674 1.807-1.166.553-2.239.128-2.476-1.126a7.668 7.668 0 0 1-.137-1.607 7.78 7.78 0 0 0-1.216-4.376c-1.223-1.985-3.493-2.476-5.504-1.3-.543.312-1.129.425-1.678-.154a12.718 12.718 0 0 0-1.718-1.657 1.028 1.028 0 0 1-.443-.606c-.075-.916-.745-1.447-1.247-2.095-.103-.134-.28-.268-.165-.447a.436.436 0 0 1 .536-.143c1.709.594 3.49.869 5.258 1.194.694.119 1.397.188 2.101.206 1.631.063 3.274-.034 4.874.381.633.178 1.3.2 1.943.063.399-.084.864-.084 1.085.575.427 1.276.935 2.501.97 3.889.03.81.97 1.432.53 2.232zm2.361-12.68c-1.41-.937-2.828-1.825-4.45-2.338a4.278 4.278 0 0 1-1.74-1.213c-.807-.847-1.892-1.05-2.874-1.422-.874-.334-1.76-.528-2.436-1.25-.411-.438-1.085-.413-1.615-.547-1.048-.27-2.052-.713-3.165-.82-.583-.056-1.2-.409-1.843-.562-2.367-.57-4.677-1.316-7.156-1.366-.266 0-.459-.194-.702-.272-1.519-.5-3.175-.338-4.65-.907-1.138-.44-2.245.047-3.292-.128-1.22-.206-2.358.022-3.53.063a2.438 2.438 0 0 0-2.111 1.272c-.527 1.006.346 2.429 1.509 2.6 1.017.141 2.018.383 2.987.723.496.178.964 0 1.438.034 1.746.14 3.43.625 5.207.691 1.067.044 2.13.463 3.172.791a6.425 6.425 0 0 0 2.404.45c1.097-.069 2.136.36 3.118.8.982.441 2.149.626 3.118 1.226 1.045.656 2.29.785 3.412 1.25 1.459.591 2.978 1.02 4.396 1.723 1.077.508 2.183.952 3.312 1.328.4.13.767.343 1.079.626.32.316.767.468 1.213.412.256-.034.596 0 .602.332.006.331-.312.39-.58.35-.901-.14-1.83.062-2.704-.072-1.403-.219-2.806.334-4.15 0-1.734-.444-3.608.1-5.276-.904-.936-.556-2.108-.312-3.168-.625-1.772-.497-3.627-.99-5.439-.966-1.87.028-3.58-.675-5.441-.625-1.02.028-2.264 0-3.171-.366-2.676-1.06-5.501-1.328-8.245-1.991-.72-.175-1.428-.397-2.149-.575a4.308 4.308 0 0 0-1.59-.138c-1.032.119-2.055-.137-3.084-.312-1.175-.2-2.339-.579-3.502-.663-1.163-.085-2.354-.313-3.545-.2-.2.03-.404.008-.593-.063-.954-.447-2.114.138-3.003-.603-2.151.431-4.194-.625-6.339-.466a5.364 5.364 0 0 1-2.26-.431 3.242 3.242 0 0 0-1.79-.135c-1.778.344-3.487 0-5.214-.312a4.044 4.044 0 0 0-.596-.025c-1.369-.022-2.728-.078-3.935-.857-.53-.34-1.107 0-1.665-.047-.914-.06-1.775-.334-2.663-.49-.125-.022-.262-.12-.4-.088-.957.228-1.87-.172-2.806-.2a13.169 13.169 0 0 1-2.944-.425 23.037 23.037 0 0 0-3.888-.51c-2.301-.178-4.584-.484-6.86-.769-.711-.09-1.457-.369-2.22-.147-.512.147-.97-.178-1.432-.372-1.02-.425-2.126-.384-3.184-.49-1.87-.188-3.654-.726-5.49-1.03-1.423-.23-2.748-.806-4.223-.962-.935-.097-2.061-.203-2.95-.913-.889-.71-2.092-.734-2.919-1.535-1.983.041-3.224-1.472-4.5-2.544-1.153-.97-2.4-2.282-2.353-4.127a.692.692 0 0 0-.041-.34c-.646-1.145-.418-2.254 0-3.408.312-.838.184-1.76.134-2.632a4.959 4.959 0 0 1 .64-2.695c.427-.816.804-1.657 1.268-2.46.245-.447.553-.857.914-1.216 1.073-1.016 1.793-2.307 2.729-3.439.583-.697 1.356-1.25 1.905-1.991.726-.982 1.87-1.538 2.526-2.623.252-.422.87-.625 1.34-.91 1.454-.86 2.729-1.953 4.263-2.75 1.276-.663 2.582-1.392 3.895-1.936 1.519-.625 2.997-1.469 4.677-1.663.43-.029.845-.17 1.204-.41 1.494-1.168 3.346-1.118 5.048-1.562a11.91 11.91 0 0 0 1.968-.625c.43-.197 1.007-.041 1.478-.179 1.968-.569 4.023-.29 6-.644 1.057-.19 2.108-.437 3.165-.65 1.584-.312 3.187-.431 4.78-.625.967-.116 1.871-.528 2.844-.531.112 0 .277-.12.312-.079.745.663 1.634.204 2.42.35 1.088.204 2.182-.103 3.218.16 1.035.263 2.182.097 3.296.19 1.113.094 2.182-.04 3.268.057 1.425.125 2.843.363 4.272.419 2.075.073 4.143.305 6.183.694 1.435.275 2.903.344 4.331.906.936.366 1.896.873 2.891 1.02 1.61.237 3.065.887 4.525 1.478 1.057.428 2.148.788 3.187 1.291 1.15.557 2.404.897 3.61 1.338.206.075.453.09.543.369.197.625.49.775 1.216.625.312-.06 1.06.363 1.56.663.544.296 1.07.626 1.574.988a4.84 4.84 0 0 0 2.027.9c1.456.278 2.301 1.444 3.492 2.095 1.135.625 2.13 1.469 3.187 2.188.895.625 2.152.86 3.01 1.563 1.68 1.391 3.741 2.22 5.322 3.707.717.679 1.37 1.432 2.152 2.057 1.247.988 2.554 1.876 3.658 3.055a57.014 57.014 0 0 1 3.32 3.913c1.045 1.338 1.872 2.77 2.863 4.108.44.588 1.21.938 1.528 1.641.496 1.12 1.347 2.014 1.905 3.089.114.233.194.482.237.738.133.821.454 1.601.936 2.279.234.292.346.664.312 1.037-.166.566.209 1.045.311 1.564.377 2.199.522 4.432.434 6.661-.04 1.194-.683 2.464-1.537 3.483-.555.71-1.045.137-1.432-.12v-.005zm27.528 45.573a7.69 7.69 0 0 1-1.356 3.682c-.443.626-1.222.797-1.924 1.032a1.509 1.509 0 0 1-.935.087c-.453-.14-.877-.262-.506-.937a12.68 12.68 0 0 0 1.182-3.364 3.07 3.07 0 0 0-.33-1.994c-.187-.37-.384-.347-.624 0-.54.75-.624 1.653-.667 2.5-.134 2.01-1.248 3.44-2.666 4.608-.768.625-1.996.313-3.013.454-.156.018-.433-.232-.508-.42-.159-.393.278-.112.362-.259 0-.025.04-.044.05-.072.53-1.532 1.924-2.763 1.543-4.623a14.215 14.215 0 0 1-.115-1.963c-.025-.42-.218-.791-.646-.785-.427.006-.47.463-.536.788a8.07 8.07 0 0 0-.081 1.031c.115 1.435-.717 2.601-1.079 3.902a.222.222 0 0 1-.1.134c-1.091.435-1.902 1.379-3.024 1.738-.58.188-1.11-.237-1.538-.516-.982-.625-1.247-1.581-.979-2.779.312-1.478.989-2.813 1.45-4.239.49-1.506.904-3.01.917-4.608 0-.368 0-.734-.409-.847-.408-.112-.567.275-.667.547a12.09 12.09 0 0 0-.465 1.645 11.899 11.899 0 0 1-1.079 3.048c-.545 1.019-.994 1.034-1.537.04a20.065 20.065 0 0 1-1.559-3.395c-.128-.394.334-1.034.624-1.494a7.625 7.625 0 0 1 1.755-1.82c.889-.709 1.506-1.706 2.09-2.663.583-.956 1.013-1.522 2.254-1.597 1.73-.103 3.464-.382 5.198-.382 2.14 0 4.182.657 6.237 1.217.184.05.312.05.393.312.773 2.27 1.247 4.617 1.843 6.93.426 1.655.577 3.368.445 5.071v-.01zm1.151-13.442c-.171.347-.362.51-.804.268-1.818-.981-3.808-1.463-5.8-1.944-.415-.1-.786.069-1.185.022-2.38-.263-4.734.106-7.094.313-.59.053-1.18.106-1.768.18-1.13.142-1.66-.878-1.164-2.09.624-1.52 1.987-2.364 4.425-2.251 1.51-.122 3.742.231 5.953.447a9.108 9.108 0 0 1 4.147 1.306c.936.594 2.202.66 2.807 1.76.327.613.867 1.21.47 1.995l.013-.006z"/>
    <path d="M106.626 126.56c-1.808-1.25-3.767-2.285-5.535-3.62-.639-.482-1.515-.263-2.183.087-1.007.516-1.487 1.604-2.494 2.085a.473.473 0 0 0-.165.626c.28.772.754 1.5 1.453 1.841 1.559.756 2.728 2 4.053 3.045a33.146 33.146 0 0 0 4.166 2.907c.992.563 2.055 1.05 3.081 1.563 1.952.972 3.886 1.995 5.997 2.53 2.11.534 4.197 1.228 6.068 2.472.64.428.88.538.396 1.29-.608.939-.48 2.083-.24 3.512.268.597-.624 1.01-1.007 1.54-.97 1.36-2.526 2.042-3.91 2.886a12.87 12.87 0 0 1-1.697.938c-1.017.428-2.13.838-2.9 1.563a11.945 11.945 0 0 1-2.835 1.929c-1.559.803-3.046 1.597-4.265 2.904-1.017 1.09-.855 2.726.57 3.16 1.322.404 2.495 1.179 4.11.938 1.44-.203 3.012-.125 4.522-.172.492 0 .988.163 1.447.038 1.453-.397 2.775-1.166 4.284-1.463.989-.197 1.912-.71 2.872-1.06 2.495-.9 4.812-2.113 6.764-3.898.848-.776 1.87-1.438 2.25-2.723.207-.703.257-1.5.625-2.107a7.27 7.27 0 0 0 .935-3.267c.221-2.813.752-5.627-.022-8.478-.464-1.713-1.135-3.098-2.925-3.77-1.702-.625-3.152.219-4.053 1.563-.393.594-.895.713-1.376.16-1.082-1.25-2.644-1.654-4.053-2.282-1.288-.579-2.744-.766-4.082-1.25a25.473 25.473 0 0 1-4.054-1.723c-2.036-1.094-3.907-2.46-5.797-3.764zm16.256 19.86c.49.331 1.032.484 1.609.103.23-.153.443-.284.43-.585-.012-.3-.25-.48-.53-.61-.496-.224-1.163-.118-1.431-.796-.359-.894-.244-1.807-.153-2.714a.678.678 0 0 1 .511-.594c1.316-.437 2.595-.956 3.321-2.294.287-.532.48-1.032.197-1.604-.215-.431.046-.728.293-.985.577-.606 2.41-.978 3.1-.569.414.27.69.71.75 1.2.098.545.164 1.094.2 1.645-.449 2.664-.112 5.483-.57 8.284a19.83 19.83 0 0 1-1.41 4.408c-.433 1.047-1.496 1.876-2.594 2.432a6.142 6.142 0 0 0-1.762 1.194c-.408.432-1.01.604-1.472.9-1.1.704-2.444.767-3.483 1.564-.312.244-.792.256-1.188.403a8.34 8.34 0 0 1-2.148.56c-1.485.14-2.935.656-4.44.625-1.092-.028-2.137.35-3.284.06-.783-.198-1.665-.22-2.495-.373-.28-.053-.702-.131-.76-.475-.06-.344.345-.388.567-.553 1.316-.973 2.622-1.96 3.95-2.92a2.492 2.492 0 0 1 1.051-.49c1.825-.313 3.181-1.404 4.394-2.711.121-.158.281-.28.465-.357 1.362-.46 2.423-1.46 3.71-2.066 1.114-.522 1.638-1.7 2.467-2.541.287-.31.371-.37.705-.141zm2.604-109.12c.024-1.8-1.959-3.51-3.767-3.25-1.051.15-1.903.76-2.841 1.178a6.261 6.261 0 0 0-2.916 2.663.733.733 0 0 0 .134 1.01c.365.347.718.056.89-.175.623-.835 1.505-1.388 2.182-2.157.552-.625 2.22-1.075 2.937-.772a2.17 2.17 0 0 1-.268.219c-1.094.66-2.204 1.325-2.866 2.463-.558.966-1.35 1.75-1.933 2.698-.274.444-.52.885-.274 1.36.246.475.76.284 1.175.284a8.49 8.49 0 0 1 2.807.285 15.827 15.827 0 0 1-4.378 1.29c-.593.079-1.076.313-1.282.864-.415 1.116-1.247 2-1.628 3.126-.062.194-.19.412-.402.394-1.322-.125-1.97.872-2.756 1.635-.272.262-.556.625-.368.99.187.366.573 0 .87 0 .253-.03.504-.082.748-.156.864-.181 1.684-.672 2.641-.272 1.07.447 2.276.666 2.663 2.007.16.55.624.432.957.353a2.023 2.023 0 0 0 1.519-1.4c.474-1.62 1.9-2.663 2.389-4.323.268-.913 1.1-1.695 1.6-2.626.582-1.091.913-2.264 1.452-3.355.624-1.25 1.089-2.557.736-4.001-.02-.11-.027-.22-.021-.331zm-39.353-7.283a1.777 1.777 0 0 1 0-.432c.022-1.913-1.97-3.56-3.873-3.241-1.531.253-2.772 1.134-4.054 1.897a4.474 4.474 0 0 0-1.584 1.876c-.209.425-.212.79.147 1.09.42.35.723-.034.935-.287.296-.344.624-.653.936-.978 1-1.044 2.092-1.917 3.614-2.045.212-.015.386-.081.468.207-.836.7-1.965 1.066-2.592 2.007-.907 1.36-2.042 2.56-2.766 4.063-.246.51-.071.723.297.86.325.109.669.15 1.01.119a9.587 9.587 0 0 1 2.778.078c-.08.114-.171.22-.274.313-1.353.897-2.969 1.088-4.46 1.607-.467.165-.87.334-1.084.694-.54.915-1.248 1.769-1.332 2.9-.025.357-.312.404-.546.404-1.14 0-2.778 1.04-3.143 2.057-.165.46-.13.7.502.578a16.12 16.12 0 0 0 1.9-.49c1.558-.498 3.741.393 4.393 1.856a.737.737 0 0 0 .935.488 2.232 2.232 0 0 0 1.213-.732c.506-.584.674-1.322 1.048-1.96.57-.972 1.353-1.788 1.721-2.935.312-.963 1.135-1.744 1.634-2.701.624-1.172.951-2.429 1.535-3.595.583-1.166.972-2.373.642-3.698zm11.7 15.005a.918.918 0 0 0-.624-.747c-.39-.131-.564.194-.748.44-.836 1.135-1.117 2.617-2.208 3.58-.54.475-.415 1.372-1.079 1.707-.664.334-1.3.838-1.974 1.22-.895.505-1.316.274-1.559-.707-.15-.591.14-.998.362-1.448.764-1.563 1.559-3.126 2.217-4.764.193-.481.19-.844-.218-1.138-.409-.294-.755-.169-1.101.128a7.749 7.749 0 0 1-4.154 1.85c-.277.038-.598.126-.623.485-.025.36.19.523.455.679.47.23 1.007.287 1.515.16.746-.116.792 0 .624.737-.39 1.582-.826 3.207-.131 4.833.043.165.122.319.23.45.755.625 2.848.791 3.556.135.96-.888 2.182-1.485 2.925-2.617a16.87 16.87 0 0 1 1.272-1.522c.243-.282.393-.447.742 0 .733.937 1.734 1.34 3.068 1.097a8.011 8.011 0 0 1-2.547-4.558zm12.432-19.923c.414-.04.825-.108 1.229-.206A15.595 15.595 0 0 0 115.267 23c.992-.663 1.87-1.538 2.058-2.91.134-1.076-.976-2.455-1.99-2.189-2.447.625-4.462 1.766-5.25 4.423-.141.473-.1 1.06-.503 1.423-.312.281-.414.603-.215.91.17.33.534.51.898.443zm4.487-5.564c.49-.203.702 0 .768.284.121.554.08 1.207-.384 1.564-1.076.831-2.398 1.128-3.689 1.528 1.023-1.206 1.693-2.72 3.305-3.376zm-13.617-2.198c-.69 1.195-.624 2.53-.683 3.864.152.697.35 1.383.592 2.054.131.313.415.788.886.663a3.982 3.982 0 0 0 2.853-2.454c.358-1.047.66-2.11.908-3.189.159-.653.124-1.338-.415-1.835-1.812-1.666-3.075-.96-4.141.897zm2.872.92c-.184 1.369-.35 2.76-1.64 3.841-.11-1.456.134-2.729.346-3.995a.813.813 0 0 1 .954-.672c.524.081.38.52.34.825zm17.312 9.234c.936.422 1.871.644 2.617.494 1.952-.05 3.408-.594 4.593-1.785.624-.625.851-2.345.54-3.045-.334-.747-1.01-.556-1.56-.675-1.656-.357-3.05.372-4.365 1.21-.88.556-1.288 1.594-2.124 2.238-.723.547-.52 1.19.3 1.563zm1.182-1.676c.908-.503 1.672-1.25 2.648-1.628.44-.166.907-.416 1.228-.188h.786c.337-.022.44.238.543.466a.448.448 0 0 1-.215.59c-1.32.863-2.695 1.545-4.341 1.251a.796.796 0 0 0-.412.04c-.174.057-.393.26-.53 0-.137-.259.119-.434.293-.528v-.003zm43.56 23.321c.66-.844.601-1.61-.16-1.92-1.646-.668-3.38-.434-4.942.072-.985.313-1.871 1.235-2.339 2.364-.396.969.04 1.97 1.082 2.207.577.131 1.176.165 1.756.24a5.577 5.577 0 0 0 1.94-.512c1.119-.607 1.914-1.494 2.662-2.451zm-5.554 1.082c.667-1.98 2.292-1.71 3.776-1.78-.237 1.473-1.397 2.552-3.776 1.78z"/>
    <path d="M73.432 30.07c.293.175.484-.263.624-.466a13.297 13.297 0 0 1 2.965-3.145c.47-.28.92-.594 1.347-.938a7.82 7.82 0 0 1 4.023-2.135c.895-.181 1.762.15 2.616-.025a2.278 2.278 0 0 1 1.85.279c.277.187.604.33.841 0 .237-.332.084-.666-.187-.938a2.64 2.64 0 0 0-.66-.538c-1.432-.663-2.91-.853-4.426-.297-.851.313-1.833.203-2.547.938l-.106-.253c-.936.522-2.002.894-2.776 1.594a12.938 12.938 0 0 0-3.43 5.202c-.075.231-.492.506-.134.722zm67.1 5.149c.682.04 1.019-.344 1.353-.626 1.362-1.1 1.609-3.345-.312-4.273a3.217 3.217 0 0 1-.792-.513c-1.188-1.116-2.67-1.097-4.145-1.106-.327 0-.527.203-.745.481-.561.713-.159 1.36 0 2.038.346 1.463.827 2.814 2.295 3.595.839.46 1.725.003 2.345.404zm-3.621-4.183c-.193-.788-.066-1.038.739-1 1.674.08 2.735 1.25 3.835 2.307.06.059.025.218.016.118-.025 1.079-.54 1.473-1.403 1.25-1.49-.374-2.776-.996-3.19-2.675h.003zm17.709 6.274c-.334-.86-.883-1.116-1.603-.516-.446.375-.87.807-1.326 1.147a3.574 3.574 0 0 0-1.559 3.47c-.196.529.025 1.013.406 1.476.804.981 2.61 1.288 3.314.503 1.151-1.281 1.669-2.77 1.307-4.504a9.82 9.82 0 0 0-.54-1.576zm-2.059 5.064c-.623 0-1.016-.247-1.004-.972.013-.725.163-1.36.736-1.844a2.63 2.63 0 0 0 .284-.313c.187-.231.193-.766.524-.681.33.084.543.565.624.962.048.31.077.624.087.938-.062 1.279-.52 1.92-1.25 1.91zm-10.567-1.757c-.936-.334-1.56-.11-2.183.647-.805.938-.851 2.032-.69 3.164.043.254.168.487.356.663.97.834 1.977 1.563 3.296 1.847 1.525.338 2.224-.09 2.286-2.157 0-.625-.533-1.547-.97-2.5-.436-.954-1.22-1.351-2.095-1.664zm.795 4.961c-1.329-.021-2.535-1.638-2.183-3.026a.711.711 0 0 1 .748-.55 1.756 1.756 0 0 1 1.734 1.229c.088.53.217 1.053.387 1.563.333.731-.087.753-.69.781l.004.003zm-15.37-15.211c-1.08-.67-2.102-1.16-3.343-1.276-.518-.046-.857.147-.982.626a.741.741 0 0 0 .545.878 6.77 6.77 0 0 1 3.134 1.832 5.99 5.99 0 0 1 1.75 4.064 5.519 5.519 0 0 0 .83 2.973c.214-.841.589-1.682.623-2.53.022-1.106-.312-2.212-.505-3.303-.256-1.3-.736-2.451-2.052-3.264zm-35.517-6.834c.49.278 1.138.36 1.369-.312.163-.64.267-1.295.311-1.954-.2-1.626-.714-2.939-2.304-3.605-1.27-.534-2.728-.19-2.894.81-.221 1 .047 2.046.724 2.814.809.89 1.751 1.648 2.794 2.247zm-1.853-4.536c.153-.172.437-.068.655-.018 1.064.234 1.5.834 1.538 2.078 0 .238.212.535-.147.679-.287.115-.446-.125-.664-.266-.658-.431-.904-1.17-1.357-1.744a.608.608 0 0 1-.025-.729zm78.294 35.844c.418-.206.907-.694 1.204-.69 1.113.018 1.843-.73 2.706-1.16.864-.432 1.653-1.123 1.803-2.22.059-.428 0-.938-.443-1.097-.443-.16-.624.212-.714.625-.052.131-.13.25-.23.35-1.046 1.391-2.714 1.804-4.154 2.526-.908.456-1.974.7-2.86 1.213-.655.378-1.204.938-1.999 1.097 1.665.503 3.209.084 4.687-.644zm3.056 2.15c1.915-.168 2.925-1.493 3.823-2.972.277-.46.43-.966-.115-1.276-.546-.309-.796.182-.995.557-.989 1.876-3.006 2.373-4.656 3.098a14.937 14.937 0 0 1-4.77 1.207c.982.44 1.795.312 2.569.403a5.004 5.004 0 0 0 3.573-.835c.172-.109.368-.171.571-.181zM54.882 46.758c-1.56-1.028-2.807-2.279-2.623-4.258-.019-.375-.022-.625-.05-.89-.037-.35.081-.788-.468-.876a.752.752 0 0 0-.832.61c-.334 1.144-.624 2.304.019 3.473a10.76 10.76 0 0 0 2.182 2.638 5.803 5.803 0 0 0 2.667 1.25c.19.044.42.072.539-.14a.335.335 0 0 0-.028-.313c-.543-.415-.805-1.09-1.406-1.494zm122.788 10.1c.246-.418.268-.797-.147-1.047-.414-.25-.67.063-.935.363a2.765 2.765 0 0 1-1.026.894c-.758.25-1.489.575-2.183.969-.96.625-1.87 1.329-3.037 1.529a.333.333 0 0 0-.312.356c.022.213.212.244.39.26l1.356.134a10.819 10.819 0 0 0 3.24-.966 5.815 5.815 0 0 0 2.654-2.492zM57.903 44.14c-2.017-.815-3.333-2.228-3.898-4.351-.093-.36-.311-.728-.792-.625-.48.103-.44.54-.414.906.102 1.754.982 3.045 2.398 4.024.751.519 1.468 1.087 2.348 1.078.417-.103.91.11 1.007-.313.072-.356-.368-.606-.649-.719zm-1.734-6.433a6.801 6.801 0 0 0-.146-.669c-.103-.372-.222-.747-.72-.694-.5.053-.555.435-.6.819a2.476 2.476 0 0 0 0 .516c.257 2.557 2.885 5.042 5.73 4.664-.456-.285-.774-.472-1.08-.675-1.487-.982-2.862-2.045-3.184-3.961zm122.598 22.32c-.472.264-.96.496-1.462.697-1.247.47-2.495.904-3.885 1.398 1.331.625 2.563.519 3.77.278a4.183 4.183 0 0 0 2.32-1.394c.221-.25.452-.582.18-.938-.27-.356-.592-.21-.923-.04zM75.11 44.628c-.709.02-1.28.587-1.31 1.297.031.626.608 1.195 1.145 1.157.598-.037 1.035-.722 1.013-1.647-.016-.529-.278-.85-.848-.807zm40.834 12.223c-.343.078-.74.219-.749.77 0 .75.845 1.806 1.416 1.675.461-.11.792-.516.808-.991.05-.644-.77-1.476-1.475-1.454zM70.66 45.647c-.751.019-.823.654-.882 1.25-.072.67.445.682.748.798.751 0 1.366-.532 1.282-1.085a1.077 1.077 0 0 0-1.148-.963zm4.222 3.558c-.739-.057-.864.544-.935 1.088-.069.597.42.719.66.81.78 0 1.357-.148 1.31-.854a1.093 1.093 0 0 0-1.035-1.044zm39.016 3.632c-.59-.06-.798.466-.798.904 0 .512.234.981.9.997.752.019.818-.532.936-.938.044-.872-.564-.903-1.038-.963zm-2.526 2.545c-.443 0-1.032.16-1.013.803.018.594.268 1.076 1.01 1.004.452 0 .895-.128.848-.704-.043-.522-.221-1.1-.845-1.103zm55.577 54.778a8.346 8.346 0 0 1-2.675.663c-1.026.066-2.008-.353-3.028-.122a11.92 11.92 0 0 1-4.263.119c-1.58-.219-3.168-.381-4.752-.594-1.138-.153-2.183.1-3.368.375 1.291 1.07 2.785 1.038 4.141 1.429.624.178 1.307.425 1.915.337 2.6-.375 5.18.335 7.796.06 1.668-.175 3.299-.372 4.783-1.2.312-.166.652-.416.427-.895-.224-.478-.68-.287-.976-.172zm-.664 4.052a9.531 9.531 0 0 0-1.64.122c-1.612.344-3.221-.185-4.852.087-1.223.203-2.517-.053-3.77.038-2.227.162-4.45 0-6.676 0h-5.099c2.57.938 5.123 1.716 7.836 1.356.743-.096 1.441.313 2.183.213a30.872 30.872 0 0 1 4.029-.172c2.16 0 4.306-.15 6.455-.297a3.129 3.129 0 0 0 1.762-.625c.13-.11.311-.203.25-.413a.424.424 0 0 0-.478-.31zm-114.416-15.2c-1.484-.659-2.93-1.393-4.365-2.128-.387-.197-.624-.578-1.104-.244-.48.335-.312.835-.1 1.232.33.656.936 1.05 1.56 1.381a34.455 34.455 0 0 0 7.121 2.789c1.45.384 2.96.153 4.447-.119-.826-.516-1.759-.697-2.616-1.097-1.581-.747-3.324-1.097-4.943-1.813zm.309-4.076a179.584 179.584 0 0 0-4.942-1.828c-.265-.094-.605-.2-.761.137-.156.338.19.44.411.625.74.626 1.722.729 2.467 1.345a12.018 12.018 0 0 0 3.926 2.107c1.808.6 3.654.706 5.513.775.483.019 1.085.087 1.671-.37a4.815 4.815 0 0 0-.505-.23c-2.632-.741-5.226-1.57-7.78-2.56zm121.859-5.408c-2.666-.287-5.35-.153-8.023-.447-2.183-.24-4.291.51-6.433.985 1.266.294 2.557.312 3.788.688a6.695 6.695 0 0 0 2.532.275c.312-.028.574-.197.898-.232a12.352 12.352 0 0 1 2.626.091c.892.09 1.759-.238 2.616-.147.858.09 1.644-.175 2.464-.031.28.047.414-.138.511-.366a.414.414 0 0 0-.256-.563 2.18 2.18 0 0 0-.723-.253zm-.848 2.545a10.32 10.32 0 0 0-1.353-.222c-1.622-.175-3.197.366-4.821.29-.58-.028-1.163-.174-1.772 0-.84.278-1.71.46-2.59.545-.166 0-.378-.016-.35.246.019.176.18.197.312.216.736.097 1.493.085 2.183.378.485.19 1.017.228 1.524.11 1.4-.288 2.829-.053 4.088-.332 1.101.194 1.915-.337 2.807-.53.2-.045.424-.126.446-.348.05-.338-.287-.306-.474-.353z"/>
  </g>
</svg>
