<svg xmlns="http://www.w3.org/2000/svg" width="284.18" height="274.27" viewBox="0 0 284.18 274.27"><path fill="#ffed02" d="M173.5 217.56l-16.95 50.54-20.91-49.03-37.16 38.16 2.4-53.25-98.45 67.86 73.68-96.56-52.96-5.31 43.07-31.32-45.42-27.8 52.37-9.51L44.3 56.57l51.3 14.2-6.62-52.9 40.07 35.09L146 2.43l20.91 49.02 37.16-38.16-2.41 53.26 50.02-18.24-25.24 46.94 52.96 5.3-43.07 31.32 45.42 27.81-52.37 9.49 28.87 44.79-51.3-14.2 6.61 52.89-40.06-35.09z"/><path fill="#ff386c" d="M2.43 274.27a2.43 2.43 0 0 1-1.93-3.9l71-93.11-48.6-4.88a2.43 2.43 0 0 1-1.18-4.38l40.13-29.18-42.32-25.9a2.43 2.43 0 0 1 .83-4.46l48.8-8.85-26.9-41.72a2.43 2.43 0 0 1 2.69-3.65l47.79 13.22-6.17-49.29a2.43 2.43 0 0 1 4-2.13l37.32 32.69L143.7 1.65a2.43 2.43 0 0 1 4.54-.18l19.47 45.67 34.62-35.55a2.43 2.43 0 0 1 4.16 1.8L204.25 63l46.59-17a2.43 2.43 0 0 1 3 3.43L230.3 93.2l49.34 4.94a2.43 2.43 0 0 1 1.19 4.38L240.7 131.7l42.3 25.91a2.43 2.43 0 0 1-.83 4.46l-48.8 8.85 26.9 41.73a2.43 2.43 0 0 1-2.69 3.66l-47.79-13.23 6.21 49.27a2.43 2.43 0 0 1-4 2.13l-37.32-32.68-15.79 47.08a2.43 2.43 0 0 1-4.54.18l-19.47-45.67-34.62 35.55a2.43 2.43 0 0 1-4.16-1.8l2.18-48.37-94.47 65.07a2.42 2.42 0 0 1-1.38.43zm133.21-57.63a2.45 2.45 0 0 1 .45 0 2.43 2.43 0 0 1 1.79 1.43l18.4 43.15 14.92-44.48a2.43 2.43 0 0 1 3.9-1.05l35.27 30.88-5.82-46.56a2.43 2.43 0 0 1 3.06-2.64l45.16 12.5-25.42-39.43a2.43 2.43 0 0 1 1.61-3.7l46.11-8.36-40-24.48a2.43 2.43 0 0 1-.16-4l37.92-27.58-46.63-4.65a2.43 2.43 0 0 1-1.9-3.56l22.22-41.33-44 16.05a2.43 2.43 0 0 1-3.26-2.39l2.12-46.88-32.74 33.59a2.43 2.43 0 0 1-4-.74L146.27 9.25l-14.92 44.48a2.43 2.43 0 0 1-3.9 1.05L92.18 23.9 98 70.47a2.43 2.43 0 0 1-3.06 2.64l-45.15-12.5L75.21 100a2.43 2.43 0 0 1-1.61 3.7l-46.11 8.4 40 24.47a2.43 2.43 0 0 1 .16 4l-37.93 27.62 46.63 4.67a2.43 2.43 0 0 1 1.65 3.89l-64.39 84.43L99.51 202a2.43 2.43 0 0 1 3.8 2.11L101.19 251l32.71-33.59a2.43 2.43 0 0 1 1.74-.77z"/><g style="isolation:isolate" fill="#ff386c"><g style="isolation:isolate"><path d="M86.19 122.15a7.54 7.54 0 0 1 5.81 1.62l-2.67 3.53a4.7 4.7 0 0 0-3-.89c-2.49.4-2.84 2.59-2.92 5 0 1.51.51 4 2.78 3.62a6.53 6.53 0 0 0 3.53-2.18l2.65 2.95a10.76 10.76 0 0 1-5.83 3.48c-5 .79-8.42-1-8.32-7.51q.15-8.39 7.97-9.62z"/><path d="M99.89 120c5.55-.88 7.63 3.44 7.55 7.63s-2.06 8.69-7.84 9.6c-4.64.74-7.64-2.5-7.55-7.63s2.74-8.82 7.84-9.6zm-2.74 8.79c0 2.21.38 4.58 2.53 4.24 2.38-.38 2.63-2.62 2.66-4.6s-.35-4.59-2.51-4.25c-2.38.36-2.65 2.61-2.68 4.59zm27.85 3.82l-1-7.39h-.23l-2.37 6.41-4.54 1-2.37-5.89h-.23l-1.5 8.25-4.94-.38 3.77-16.39 4.74-.4 2.81 7.45h.23l3.41-8.2 4.53-.72 3.13 15.53zm6.55-.93l.5-16.33c5.4-1.09 3.18-.74 5.9-1.17 3.63-.57 7.67.64 7.6 4.6-.08 3.73-2.38 6.65-7.82 7.51l-1.25.2-.08 4.89zm5-9.39l1.25-.2c2.27-.36 2.72-1.13 2.75-2.29s-1.1-1.68-2.69-1.43l-1.25.2zm17.92-10.96c5.55-.88 7.63 3.44 7.55 7.63s-2.06 8.69-7.84 9.6c-4.64.74-7.64-2.5-7.55-7.63s2.74-8.79 7.84-9.6zm-2.74 8.79c0 2.21.38 4.58 2.53 4.24 2.38-.38 2.63-2.62 2.66-4.6s-.35-4.59-2.51-4.25c-2.41.39-2.65 2.63-2.68 4.61zm12.48-9.87l4.76-.75 4.51 7.06h.23l.24-8.28 5-.33-.73 15.9-4.77 1.15-4.19-6.53h-.23l.11 7.18-4.76.75zm16.42 9.75l2.49-.39.16-8.5-2.6.29.07-4 10-1.34-.17 3.74-2.51.75.07 8.23 2.49-.39v4l-9.74 1.54zm16.87-2.71l2.49-.39.16-8.5-2.6.3.07-4 10-1.34-.17 3.74-2.51.75.07 8.23 2.49-.39v4l-9.74 1.54zm23.39.24l-11.57 2.3.29-16.77 5.21-.82-.45 12.38 6.13-1.2z"/></g><path d="M94.9 157.81l-4.77 1 .26 12-5.2.59.19-11.87-4.63 1 .08-4.66 13.71-2.41zm15.25-6.6s.39 4.23.43 8.41c0 5.69-3.21 8.75-7.18 9.38-3.28.52-7.1-1-7-5.39l.19-10.25 5-.79-.17 9.31c0 1.63.64 3 2.12 2.8 1.92-.3 2.31-2.11 2.22-4-.17-3.87-.41-6.55-.56-8.22zm10.1-2.06c5.55-.88 7.63 3.44 7.55 7.63s-2.06 8.69-7.84 9.6c-4.64.74-7.64-2.51-7.55-7.63s2.74-8.75 7.84-9.6zm-2.74 8.79c0 2.21.38 4.58 2.53 4.24 2.38-.38 2.63-2.62 2.66-4.6s-.35-4.59-2.51-4.25c-2.38.38-2.65 2.67-2.68 4.61zm18.09 5.5l.5-16.33c5.4-1.09 3.18-.74 5.9-1.17 3.62-.57 7.67.64 7.6 4.6-.08 3.73-2.38 6.65-7.82 7.51l-1.25.2-.08 4.89zm5-9.39l1.25-.2c2.27-.36 2.72-1.13 2.75-2.29s-1.1-1.68-2.69-1.43l-1.25.2zm20.07-11.3l5.6 15.58-5.27 1.56-1.28-4-4.64.74-1.31 3.92-5.44.86 6.5-17.28zM156.1 153l2.61-.41-1.06-3.32h-.23zm11.14-10.83l4.76-.75 4.51 7.06h.23l.24-8.28 5-.33-.73 15.9-4.77 1.23-4.19-6.53h-.23l.11 7.18-4.76.75zm16.42 9.71l2.49-.39.16-8.5-2.6.29.07-4 10-1.34-.17 3.74-2.51.75.07 8.23 2.49-.39v4l-9.74 1.54zm12.01-14.21l4.76-.75 4.51 7.06h.23l.24-8.28 5-.32-.73 15.9-4.75 1.22-4.19-6.53h-.23l.11 7.18-4.76.75zm24.45-4.34c5.55-.88 7.63 3.44 7.55 7.63s-2.06 8.69-7.84 9.6c-4.64.74-7.64-2.5-7.55-7.63s2.72-8.79 7.84-9.6zm-2.74 8.79c0 2.21.38 4.58 2.53 4.24 2.38-.38 2.63-2.62 2.66-4.6s-.35-4.59-2.51-4.25c-2.37.39-2.64 2.63-2.68 4.61z" style="isolation:isolate"/></g></svg>