<svg xmlns="http://www.w3.org/2000/svg" width="284.18" height="274.27" viewBox="0 0 284.18 274.27">
  <path fill="#ffed02" d="M173.5 217.56L156.55 268.1 135.64 219.07 98.48 257.23 100.88 203.98 2.43 271.84 76.11 175.28 23.15 169.97 66.22 138.65 20.8 110.85 73.17 101.34 44.3 56.57 95.6 70.77 88.98 17.87 129.05 52.96 146 2.43 166.91 51.45 204.07 13.29 201.66 66.55 251.68 48.31 226.44 95.25 279.4 100.55 236.33 131.87 281.75 159.68 229.38 169.17 258.25 213.96 206.95 199.76 213.56 252.65 173.5 217.56z"/>
  <path fill="#ff386c" d="M2.43 274.27a2.43 2.43 0 0 1-1.93-3.9l71-93.11-48.6-4.88a2.43 2.43 0 0 1-1.18-4.38l40.13-29.18-42.32-25.9a2.43 2.43 0 0 1 .83-4.46l48.8-8.85-26.9-41.72a2.43 2.43 0 0 1 2.69-3.65l47.79 13.22-6.17-49.29a2.43 2.43 0 0 1 4-2.13l37.32 32.69L143.7 1.65a2.43 2.43 0 0 1 4.54-.18l19.47 45.67 34.62-35.55a2.43 2.43 0 0 1 4.16 1.8L204.25 63l46.59-17a2.43 2.43 0 0 1 3 3.43L230.3 93.2l49.34 4.94a2.43 2.43 0 0 1 1.19 4.38L240.7 131.7l42.3 25.91a2.43 2.43 0 0 1-.83 4.46l-48.8 8.85 26.9 41.73a2.43 2.43 0 0 1-2.69 3.66l-47.79-13.23 6.21 49.27a2.43 2.43 0 0 1-4 2.13l-37.32-32.68-15.79 47.08a2.43 2.43 0 0 1-4.54.18l-19.47-45.67-34.62 35.55a2.43 2.43 0 0 1-4.16-1.8l2.18-48.37-94.47 65.07a2.42 2.42 0 0 1-1.38.43zm133.21-57.63a2.45 2.45 0 0 1 .45 0 2.43 2.43 0 0 1 1.79 1.43l18.4 43.15 14.92-44.48a2.43 2.43 0 0 1 3.9-1.05l35.27 30.88-5.82-46.56a2.43 2.43 0 0 1 3.06-2.64l45.16 12.5-25.42-39.43a2.43 2.43 0 0 1 1.61-3.7l46.11-8.36-40-24.48a2.43 2.43 0 0 1-.16-4l37.92-27.58-46.63-4.65a2.43 2.43 0 0 1-1.9-3.56l22.22-41.33-44 16.05a2.43 2.43 0 0 1-3.26-2.39l2.12-46.88-32.74 33.59a2.43 2.43 0 0 1-4-.74L146.27 9.25l-14.92 44.48a2.43 2.43 0 0 1-3.9 1.05L92.18 23.9 98 70.47a2.43 2.43 0 0 1-3.06 2.64l-45.15-12.5L75.21 100a2.43 2.43 0 0 1-1.61 3.7l-46.11 8.4 40 24.47a2.43 2.43 0 0 1 .16 4l-37.93 27.62 46.63 4.67a2.43 2.43 0 0 1 1.65 3.89l-64.39 84.43L99.51 202a2.43 2.43 0 0 1 3.8 2.11L101.19 251l32.71-33.59a2.43 2.43 0 0 1 1.74-.77z"/>
  <path fill="#ff386c" d="M100.95 161v3.26c0 .7.43 1.09.88 1a3.15 3.15 0 0 0 1.14-.41L104 168a8.07 8.07 0 0 1-3.64 1.51c-2.49.39-4.06-1-4-4l.08-3.61-1.59.37.29-3.76 1.36-.22v-2.56l4.55-1.63-.05 3.47 2.72-.43-.52 3.45zm4.38-4.38s4.52-.81 4.52-.79l-.09 5.89c0 .93.3 1.92 1.1 1.8a5.11 5.11 0 0 0 1.58-.71v-7.32l4.63-1 .15 11.82-4 .86-.33-.88h-.23a6.93 6.93 0 0 1-2.85 1.38c-3.06.48-4.74-.76-4.65-5.3zm19.93-3.62c4.08-.65 6.29 2.49 6.24 5.51a7.3 7.3 0 0 1-6.45 7.06 5.24 5.24 0 0 1-6.24-5.51c.08-3.73 2.6-6.45 6.45-7.06zm-1.92 6.34c0 .93.18 2.76 1.77 2.51 1.36-.21 1.85-1.69 1.86-2.62 0-1.4-.41-2.72-1.77-2.51-1.59.28-1.83 1.92-1.86 2.62zm20.66 2.54h-.23v5.11L139 168v-16.71l4-.86.21.9h.23a4.22 4.22 0 0 1 2.28-1.29c4.08-.65 5.83 2.79 5.8 5.12-.06 3.26-1.93 6.58-5.44 7.13a2.87 2.87 0 0 1-2.08-.41zm-.44-6.9v3.24a2.37 2.37 0 0 0 1.59.21 2.27 2.27 0 0 0 1.63-2.35c0-1.28-.43-2.25-1.56-2.08a3.14 3.14 0 0 0-1.7 1zm16.22-6.52h.23l.13-.95 4.53-.25-.1 11.86-4 .86-.21-.9h-.23a4.23 4.23 0 0 1-2.28 1.29c-4.08.65-5.83-2.79-5.78-5.12.06-3.26 1.91-6.57 5.42-7.13a4 4 0 0 1 2.29.34zm.22 6.93v-3.24a2.37 2.37 0 0 0-1.59-.21 2.25 2.25 0 0 0-1.6 2.34c0 1.28.4 2.26 1.54 2.08a3.14 3.14 0 0 0 1.65-.97zm18.62 1.23s-4.54.81-4.54.79l.11-5.89c0-.93-.3-1.92-1.1-1.8a5.34 5.34 0 0 0-1.6.72v7.32l-4.65 1-.13-11.82 4-.86.33.88h.23a6.93 6.93 0 0 1 2.85-1.38c3.06-.48 4.74.76 4.67 5.3zm7.15-15.99a3 3 0 0 1-2.63 2.74 2 2 0 0 1-2.56-1.82 3 3 0 0 1 2.64-2.83 2.11 2.11 0 0 1 2.55 1.91zm-.28 3.53l.26 11.34-5 .79.19-11.41zm14.31 9.11s-4.54.81-4.54.79l.11-5.89c0-.93-.3-1.92-1.1-1.8a5.3 5.3 0 0 0-1.6.72v7.31l-4.65 1-.13-11.82 4-.86.33.88h.23a6.93 6.93 0 0 1 2.85-1.38c3.06-.48 4.74.76 4.67 5.3zm7.78-13.27c4.08-.65 6.29 2.49 6.24 5.51a7.31 7.31 0 0 1-6.45 7.06 5.24 5.24 0 0 1-6.24-5.51c.08-3.77 2.6-6.49 6.45-7.06zm-1.92 6.34c0 .93.18 2.76 1.77 2.51 1.36-.21 1.85-1.68 1.86-2.62 0-1.39-.41-2.72-1.77-2.51-1.58.22-1.83 1.88-1.86 2.58zM99 120.12a7.54 7.54 0 0 1 5.85 1.63l-2.67 3.53a4.69 4.69 0 0 0-3-.89c-2.49.4-2.84 2.59-2.92 5 0 1.51.51 4 2.78 3.62a6.54 6.54 0 0 0 3.53-2.18l2.65 2.95a10.76 10.76 0 0 1-5.83 3.48c-5 .79-8.42-1-8.32-7.51q.1-8.39 7.93-9.63z"/>
  <path fill="#ff386c" d="M111.36 122.8c4.08-.65 6.29 2.49 6.24 5.51a7.31 7.31 0 0 1-6.45 7.06 5.24 5.24 0 0 1-6.24-5.51c.09-3.73 2.6-6.45 6.45-7.06zm-1.92 6.34c0 .93.18 2.76 1.77 2.51 1.36-.22 1.85-1.69 1.86-2.62 0-1.4-.41-2.72-1.77-2.51-1.58.26-1.83 1.92-1.86 2.62zm24.25-3.6c0-1.63-.31-2.27-1.13-2.14a2.44 2.44 0 0 0-1.34.91l-.12 7.45-4.76.87.1-5.94c0-1.39-.31-2.27-1.11-2.15a2.3 2.3 0 0 0-1.37.91l-.12 7.45-4.65 1v-11.84l4-.86.33.88h.23a6.93 6.93 0 0 1 2.85-1.38 3.72 3.72 0 0 1 3.27.87 10 10 0 0 1 3.86-2c2.94-.47 4.76.87 4.78 5.28v5.8l-4.87.77zm12 3.67h-.23v5.11l-4.74 1v-16.71l4-.86.21.9h.23a4.22 4.22 0 0 1 2.28-1.29c4.08-.65 5.83 2.79 5.8 5.12-.06 3.26-1.93 6.58-5.44 7.13a2.87 2.87 0 0 1-2.11-.4zm-.44-6.9v3.24a2.37 2.37 0 0 0 1.59.21 2.27 2.27 0 0 0 1.63-2.35c0-1.28-.43-2.26-1.56-2.08a3.14 3.14 0 0 0-1.66.98zm15.03-7.26c4.08-.65 6.29 2.49 6.24 5.51a7.31 7.31 0 0 1-6.45 7.06 5.24 5.24 0 0 1-6.24-5.51c.08-3.72 2.6-6.45 6.45-7.06zm-1.92 6.34c0 .93.18 2.76 1.77 2.51 1.36-.22 1.85-1.69 1.86-2.62 0-1.4-.41-2.72-1.77-2.51-1.59.23-1.83 1.93-1.86 2.63zM180 124s-4.54.81-4.54.79l.11-5.89c0-.93-.3-1.92-1.1-1.8a5.32 5.32 0 0 0-1.6.72v7.32l-4.65 1-.13-11.82 4-.86.33.88h.23a6.93 6.93 0 0 1 2.85-1.38c3.06-.48 4.74.76 4.67 5.3zm7.16-16a3 3 0 0 1-2.63 2.74 2 2 0 0 1-2.56-1.82 3 3 0 0 1 2.64-2.83 2.11 2.11 0 0 1 2.55 1.91zm-.28 3.53l.26 11.34-5 .79.19-11.41zm13.19-5.53a3 3 0 0 1-2.63 2.74 2 2 0 0 1-2.56-1.82 3 3 0 0 1 2.64-2.83 2.11 2.11 0 0 1 2.55 1.91zm-.28 3.53l.26 11.34-5 .79.19-11.41zM207 103v16.73l-4.77.52.29-16.07z"/>
</svg>
