<svg xmlns="http://www.w3.org/2000/svg" width="134.82" height="66.08" viewBox="0 0 134.82 66.08"><path d="M64.28 36.25A3.26 3.26 0 0 1 63.1 36a2.79 2.79 0 0 1-1-.68 1.74 1.74 0 0 1-.4-1.82l.28-1a27.78 27.78 0 0 1 1.13-3.29 15.9 15.9 0 0 1 1-1.92l.1-.17.15-.14a2.18 2.18 0 0 1 1.5-.51 3.85 3.85 0 0 1 .54 0 8 8 0 0 1 1.71.45 7.7 7.7 0 0 1 1.5.76c1.08.72 1.13 1.48 1 2l-.08.28-.19.22Q69.6 31 69 31.75L68 33l-.95 1.16-1.18 1.44v.05l-.06.06a2.17 2.17 0 0 1-1.5.58z" fill="#ff386c"/><path d="M65.8 27.53h.39a7.06 7.06 0 0 1 1.49.39 6.7 6.7 0 0 1 1.33.69c.19.13.7.46.57.89v.11c-.53.62-1 1.11-1.31 1.53l-1 1.24-1 1.11-1.18 1.43a1.18 1.18 0 0 1-.83.3 2.28 2.28 0 0 1-.83-.12 1.85 1.85 0 0 1-.66-.43.75.75 0 0 1-.16-.82l.28-1c.12-.43.27-.93.45-1.47s.39-1.1.62-1.7a15 15 0 0 1 .9-1.8 1.23 1.23 0 0 1 .85-.27zm0-2a3.15 3.15 0 0 0-2.15.76l-.24.21-.16.27a17 17 0 0 0-1 2q-.39.91-.69 1.86c-.19.59-.35 1.09-.47 1.56l-.27.94a2.75 2.75 0 0 0 .62 2.81 3.76 3.76 0 0 0 1.37.89 4.22 4.22 0 0 0 1.53.28 3.13 3.13 0 0 0 2.16-.82l.1-.09.09-.1 1.23-1.51.94-1.17 1-1.2c.32-.4.73-.89 1.23-1.46v-.05l.3-.34.12-.43V30a2.7 2.7 0 0 0-1.37-3.1 8.68 8.68 0 0 0-1.66-.83 9 9 0 0 0-1.92-.5 4.83 4.83 0 0 0-.68 0z" fill="#222221"/><path d="M10.1 65.12A2 2 0 0 1 9 64.8a4.75 4.75 0 0 1-1.2-1.11 7.12 7.12 0 0 1-.8-1.43 2.92 2.92 0 0 1-.31-1.8v-.19q.64-1.57 1.31-3.1L8.56 56a8 8 0 0 1-1.23-.1A16.66 16.66 0 0 1 5 55.43a5.17 5.17 0 0 1-1.85-1 4.52 4.52 0 0 1-1.28-1.74 14.33 14.33 0 0 1-.68-2.29A8 8 0 0 1 2 45a19.8 19.8 0 0 1 4.17-5.53 35.23 35.23 0 0 1 6.93-5 41.48 41.48 0 0 1 9.25-3.82 17 17 0 0 1 4.32-.69h.29a13.16 13.16 0 0 1 3.35.4 10.61 10.61 0 0 1 3 1.33 14 14 0 0 1 2.42 2 7.73 7.73 0 0 1 2.27 4.8v1.17l.47-.37a3.73 3.73 0 0 1 2.27-.73 7.5 7.5 0 0 1 2 .28 5.79 5.79 0 0 1 1.85.85 2.25 2.25 0 0 1 1.12 1.86 8.1 8.1 0 0 1-.71 3.38A14.57 14.57 0 0 1 43 48a18.63 18.63 0 0 1-2.74 2.6 17.87 17.87 0 0 1-2.43 1.6v.62a.72.72 0 0 0 0 .25l.06.11v.12a3.16 3.16 0 0 0 1.28-.48 10.57 10.57 0 0 0 2.93-2.31 29.68 29.68 0 0 0 2.57-3.34q1.24-1.89 2.35-3.86l.1-.18c.57-1.51 1.23-3 1.9-4.55s1.47-3.1 2.19-4.51q1-1.88 2-3.72c.6-1.07 1.08-1.86 1.45-2.4a1.59 1.59 0 0 1 1.46-.78 2.77 2.77 0 0 1 .57.06 6 6 0 0 1 1.44.5 7.51 7.51 0 0 1 1.23.76 1.76 1.76 0 0 1 .79 2.05l-.06.17-.1.15a25.69 25.69 0 0 0-1.63 2.7q-1 1.9-1.92 3.85-1 2.15-1.91 4.37t-1.69 4.39c-.5 1.39-.91 2.65-1.23 3.81l.67-.87q1-1.34 2-2.77t2-3.14c.49-.81 1-1.65 1.42-2.4.19-.42.4-.89.62-1.36.56-1.16 1.12-2.26 1.65-3.27a2.2 2.2 0 0 1 1.79-1 8.9 8.9 0 0 1 1.18-.07h.62a11 11 0 0 1 1.62.2 1.9 1.9 0 0 1 1.39.9 1.42 1.42 0 0 1 0 1.24v.13a55 55 0 0 0-3.11 6.07 31.81 31.81 0 0 0-1.38 3.87c.33-.37.62-.66.77-.87q1-1.32 1.9-2.68c.63-1 1.29-2 1.92-3s1.23-2 1.85-3l1.08-2.16c.31-.67.62-1.32.94-1.93a1.93 1.93 0 0 1 1.76-1.07 6.93 6.93 0 0 1 .7 0 7.93 7.93 0 0 1 .93.06 6 6 0 0 1 1.58.39 1.64 1.64 0 0 1 1.16 2.09l-.06.16-.1.14a11.51 11.51 0 0 0-.7 1.16q-.43.81-.89 1.82c-.31.67-.62 1.4-1 2.24s-.66 1.57-1 2.36q-.37 1-.71 1.94a10.07 10.07 0 0 0 1.1-1.55 28.06 28.06 0 0 0 1.55-3.14c.46-1.11.94-2.28 1.41-3.47a25.6 25.6 0 0 1 1.76-3.56 2.1 2.1 0 0 1 1.23-1.1 6.36 6.36 0 0 1 1.37-.37 5.35 5.35 0 0 1 .82-.07 4.38 4.38 0 0 1 .62 0 1.8 1.8 0 0 1 1.4.86 10.84 10.84 0 0 0 1.08.42 5.26 5.26 0 0 0 .75.19c.36-.52.73-1 1.11-1.46a10.21 10.21 0 0 1 1.85-1.77 3.73 3.73 0 0 1 2.31-.71 7.55 7.55 0 0 1 2.05.28 5.8 5.8 0 0 1 1.85.85 2.25 2.25 0 0 1 1.11 1.86 8.06 8.06 0 0 1-.87 3.39 14.59 14.59 0 0 1-2 3A18.77 18.77 0 0 1 90 41.44 18 18 0 0 1 87.59 43v.62a.74.74 0 0 0 0 .25l.06.1v.13a3.17 3.17 0 0 0 1.28-.48 10.57 10.57 0 0 0 2.93-2.31 29.58 29.58 0 0 0 2.57-3.34q1.24-1.89 2.35-3.87l.28-.5a3.07 3.07 0 0 1-.62-1.43 4.25 4.25 0 0 1 .17-2 8.77 8.77 0 0 1 .86-1.86 10.5 10.5 0 0 1 1.29-1.74 8.36 8.36 0 0 1 1.51-1.31 2.89 2.89 0 0 1 1.91-.74h.22a4.08 4.08 0 0 1 1.76.53 3.24 3.24 0 0 1 1.23 1.24 1.73 1.73 0 0 1-.3 2.23l-.23.24h.84a5.9 5.9 0 0 1 1.48.3 2.77 2.77 0 0 1 1.23.81 1.57 1.57 0 0 1 .36 1.24 1.54 1.54 0 0 1-.54 1q-1 1.15-2 2.38A15.33 15.33 0 0 0 105 36.6a11.42 11.42 0 0 0-.79 2 12.83 12.83 0 0 0-.36 1.63 4.54 4.54 0 0 0 .93-.72 18.31 18.31 0 0 0 2-2.31c.72-1 1.45-2 2.17-3.16l.34-.53.14-.21v-.07l.11-.28q1.27-3.26 2.81-6.4a2.3 2.3 0 0 1 1.62-1 9.15 9.15 0 0 1 1.57-.19h.28a7.31 7.31 0 0 1 1.27.11c1.43.26 1.62 1.18 1.64 1.56v.32l-.14.29q-1.5 3.06-2.82 6.2-.53 1.27-.95 2.58.67-1.12 1.44-2.48l1.72-2.9c.54-.94 1-1.76 1.42-2.42l.67-1.72c.24-.62.46-1.19.68-1.73a2.06 2.06 0 0 1 1.72-1.17 10.18 10.18 0 0 1 1.36-.09h.39a9.43 9.43 0 0 1 1.71.2 2 2 0 0 1 1.4.85 1.43 1.43 0 0 1 .14 1.12v.14l-.07.13q-.66 1.19-1.23 2.44c-.39.86-.78 1.78-1.15 2.68v.06l1.23-1.45q2.19-2.72 4.11-5.64l.05-.08.08-.09a2.15 2.15 0 0 1 1.56-.66 1.94 1.94 0 0 1 .81.17 1.75 1.75 0 0 1 .92 1 1.71 1.71 0 0 1-.22 1.57l-1.63 2.52q-1.06 1.6-2.24 3.1-1.58 2-3.29 3.86c-1.29 1.41-2.79 2.91-4.6 4.61a156.785 156.785 0 0 1-2.44 6.74c-.45 1.15-.8 2.08-1.07 2.78a18.47 18.47 0 0 1-.89 1.95 17.12 17.12 0 0 1-1.85 2.79 5 5 0 0 1-3 1.83 3.6 3.6 0 0 1-.65.06 5 5 0 0 1-1.47-.24 4.85 4.85 0 0 1-2-1.24 4.07 4.07 0 0 1-.49-5.24 17.86 17.86 0 0 1 1.4-2c.62-.77 1.23-1.56 1.92-2.35l1.62-1.86a6.83 6.83 0 0 1-2.31-.62 9.47 9.47 0 0 1-1.91-1.15l-.53.69a15.29 15.29 0 0 1-2 2.18 4.13 4.13 0 0 1-2.25 1.09 6.13 6.13 0 0 1-2.5.14 6.31 6.31 0 0 1-2.38-.84 5.13 5.13 0 0 1-1.67-1.56 3.31 3.31 0 0 1-.57-2 33.22 33.22 0 0 1-1.93 2.72 17 17 0 0 1-2.17 2.29 7.3 7.3 0 0 1-2.53 1.4 6 6 0 0 1-1.85.29 6.3 6.3 0 0 1-.79 0 7.93 7.93 0 0 1-2.49-.72 7.56 7.56 0 0 1-2-1.42 4.35 4.35 0 0 1-1.37-4.28 14.59 14.59 0 0 1 .62-2.44c.2-.58.45-1.18.73-1.81a6 6 0 0 1-.9-.2l-1.12 2.67A39.33 39.33 0 0 1 79 44a24.39 24.39 0 0 1-2.46 3.66 17.2 17.2 0 0 1-3.53 3.2l-.22.16h-.26a9.3 9.3 0 0 1-1.34.09h-1.88a18.34 18.34 0 0 1-1.85-.2 2.22 2.22 0 0 1-1.79-1.08l-.44.59A9.4 9.4 0 0 1 62 53.29l-.18.09h-.19a16.06 16.06 0 0 1-2.24.18 6.58 6.58 0 0 1-2.39-.38 3.61 3.61 0 0 1-1.51-1l-.23.33a8.19 8.19 0 0 1-3.08 2.82h-.17a6.5 6.5 0 0 1-1.68.22h-.58a6.86 6.86 0 0 1-2.06-.5A5.06 5.06 0 0 1 46 54a3.13 3.13 0 0 1-.62-.94l-.33.42a17 17 0 0 1-2.17 2.29 7.3 7.3 0 0 1-2.55 1.44 6 6 0 0 1-1.85.29 6.3 6.3 0 0 1-.79 0 7.93 7.93 0 0 1-2.47-.71 7.56 7.56 0 0 1-2-1.42A5.28 5.28 0 0 1 32 53.84q-.7.88-1.45 1.72A33 33 0 0 1 25.73 60a18.16 18.16 0 0 1-5.18 2.77 9.73 9.73 0 0 1-3 .49 8.05 8.05 0 0 1-2.1-.26 6.16 6.16 0 0 1-2.72-1.61l-.18.41q-.5 1.16-.94 2.34l-.07.19-.12.15a1.66 1.66 0 0 1-1.32.68zM14.69 57a5.38 5.38 0 0 0 2 .4h.42a9.28 9.28 0 0 0 3.81-1.24 17.31 17.31 0 0 0 3.8-2.95 27.61 27.61 0 0 0 3.35-4.1 28.8 28.8 0 0 0 2.51-4.63 17.81 17.81 0 0 0 1.3-4.39 8 8 0 0 0-.15-3.41 2.76 2.76 0 0 0-1.44-1.79 3.68 3.68 0 0 0-1.69-.35 7.29 7.29 0 0 0-.95.07 16 16 0 0 0-3.12.77 2 2 0 0 1-.08.62v.11Q23 39.6 21.39 43l-1.29 2.7a35.23 35.23 0 0 0 6.33-6.86l.39-.55h.67a1.56 1.56 0 0 1 1.23.62c.62.8.37 2 .16 3a8.77 8.77 0 0 1-1.23 2.85 17.69 17.69 0 0 1-2.19 2.73 29.8 29.8 0 0 1-2.88 2.6 35.08 35.08 0 0 1-3.36 2.36A28.07 28.07 0 0 1 16 54.08q-.4.91-.84 1.81L14.69 57zM17 39.14l-1.9 1.24A47.92 47.92 0 0 0 10.4 44 27.18 27.18 0 0 0 7 47.62a6.21 6.21 0 0 0-1.37 2.62 1.39 1.39 0 0 0 0 .76.67.67 0 0 0 .31.32 2.28 2.28 0 0 0 .85.24h.62a5 5 0 0 0 .65 0 10.3 10.3 0 0 0 1.36-.22c.46-.1.86-.22 1.19-.32l.35-.1c1.23-2.48 2.5-5 3.82-7.52.82-1.4 1.53-2.85 2.22-4.26z" fill="#ff386c"/><path d="M132 24.6a1 1 0 0 1 .4.09.76.76 0 0 1 .41.43.73.73 0 0 1-.12.68l-1.62 2.52c-.58.9-1.31 1.93-2.19 3.06s-2 2.41-3.24 3.8-2.85 3-4.73 4.72q-.58 1.74-1.2 3.46t-1.3 3.47c-.44 1.14-.8 2.09-1.07 2.78a17.48 17.48 0 0 1-.86 1.87 16.13 16.13 0 0 1-1.76 2.63 4 4 0 0 1-2.39 1.49 2.6 2.6 0 0 1-.47 0 4 4 0 0 1-1.18-.2 3.87 3.87 0 0 1-1.6-1 3.12 3.12 0 0 1-.35-4 16.92 16.92 0 0 1 1.33-1.92c.62-.76 1.23-1.54 1.89-2.31s1.31-1.53 2-2.28q.79-.89 1.62-1.75c.32-1 .65-2.05 1-3.1l.22-.62-.47.85c-.32.57-.62 1.11-.9 1.6s-.51.85-.68 1.1a1.85 1.85 0 0 1-1.55.71H113a5.83 5.83 0 0 1-2.05-.54 8.47 8.47 0 0 1-1.75-1.06 2.89 2.89 0 0 1-.73-.75q-.55.84-1.18 1.62a14.35 14.35 0 0 1-1.9 2.07 3.11 3.11 0 0 1-1.78.87 5.15 5.15 0 0 1-2.19.14 5.33 5.33 0 0 1-2-.68 4.16 4.16 0 0 1-1.35-1.24 2.31 2.31 0 0 1-.37-1.71 12.38 12.38 0 0 1 .62-2.52 18.54 18.54 0 0 1 .86-2c.29-.62.62-1.2 1-1.79a14.13 14.13 0 0 0 .71-1.46 5.07 5.07 0 0 1-.62.07l-.07.13-.41.7c-.62 1-1.2 2.1-1.85 3.26s-1.3 2.16-1.94 3.15a32.51 32.51 0 0 1-2 2.77 16 16 0 0 1-2 2.15 6.33 6.33 0 0 1-2.2 1.28 5 5 0 0 1-1.56.24 7 7 0 0 1-2.84-.66 6.58 6.58 0 0 1-1.78-1.24 3.38 3.38 0 0 1-1-3.42 13.64 13.64 0 0 1 .62-2.28 21.64 21.64 0 0 1 1.08-2.53c.09-.18.18-.35.27-.52h-.37a7.75 7.75 0 0 1-.82 0 4.7 4.7 0 0 1-1.79-.55q-.76 1.79-1.5 3.59a38.31 38.31 0 0 1-1.85 3.8A23.38 23.38 0 0 1 75.8 47a16.21 16.21 0 0 1-3.29 3h-.11a8.83 8.83 0 0 1-1.18.07H69.38a17.35 17.35 0 0 1-1.75-.19c-.65-.11-1-.27-1.07-.55v-.07a13.56 13.56 0 0 1 .29-3 39.46 39.46 0 0 1-2.37 3.53 8.44 8.44 0 0 1-2.91 2.58h-.08a15.17 15.17 0 0 1-2.11.17 5.63 5.63 0 0 1-2.08-.29 2 2 0 0 1-1.49-1.8v-.69c-.48.79-1 1.52-1.42 2.17a7.25 7.25 0 0 1-2.71 2.48 5.51 5.51 0 0 1-1.4.18h-.48a5.88 5.88 0 0 1-1.74-.41 4.09 4.09 0 0 1-1.36-.9 2 2 0 0 1-.62-1.38 10.31 10.31 0 0 1 .1-1.8 32.36 32.36 0 0 1-1.94 2.74 15.91 15.91 0 0 1-2 2.15A6.34 6.34 0 0 1 40 56.3a5 5 0 0 1-1.56.24 7 7 0 0 1-2.84-.66 6.58 6.58 0 0 1-1.78-1.24 3.39 3.39 0 0 1-1.08-3.42 34.33 34.33 0 0 1-2.89 3.68 32 32 0 0 1-4.7 4.3 17.19 17.19 0 0 1-4.89 2.62 8.75 8.75 0 0 1-2.66.44 7.09 7.09 0 0 1-1.89-.26 5.67 5.67 0 0 1-3.24-2.54c-.26.62-.53 1.24-.82 1.91s-.66 1.59-1 2.39v.08a.69.69 0 0 1-.56.28A1 1 0 0 1 9.6 64a3.77 3.77 0 0 1-1-.9 6.14 6.14 0 0 1-.75-1.24 2 2 0 0 1-.24-1.19c.39-1 .82-2 1.28-3 .39-.86.8-1.77 1.23-2.69a10.56 10.56 0 0 1-1.47.02 7.12 7.12 0 0 1-1.17-.09 15.76 15.76 0 0 1-2.24-.44 4.21 4.21 0 0 1-1.52-.77 3.55 3.55 0 0 1-1-1.36 13.25 13.25 0 0 1-.65-2.1 7.08 7.08 0 0 1 .75-4.82 18.82 18.82 0 0 1 4-5.24 34.26 34.26 0 0 1 6.73-4.91 40.5 40.5 0 0 1 9-3.72 16.06 16.06 0 0 1 4.05-.65h.27a12.18 12.18 0 0 1 3.08.37 9.6 9.6 0 0 1 2.76 1.2A13 13 0 0 1 35 34.3a6.77 6.77 0 0 1 2 4.34 13.24 13.24 0 0 1-.29 4q.33-.45.68-.87a9.22 9.22 0 0 1 1.69-1.61 2.76 2.76 0 0 1 1.69-.53 6.53 6.53 0 0 1 1.78.24 4.83 4.83 0 0 1 1.52.71c.48.35.71.68.7 1a7.09 7.09 0 0 1-.77 3 13.58 13.58 0 0 1-1.89 2.84 17.66 17.66 0 0 1-2.6 2.48 16.41 16.41 0 0 1-2.76 1.75c-.06.48-.09.9-.1 1.24a1.44 1.44 0 0 0 .15.77.91.91 0 0 0 .93.73 4 4 0 0 0 1.77-.62 11.54 11.54 0 0 0 3.19-2.52 30.67 30.67 0 0 0 2.72-3.47q1.27-1.92 2.39-3.93l.09-.16.06-.1c.57-1.51 1.23-3 1.9-4.56s1.4-3 2.17-4.47 1.38-2.63 2-3.69 1.07-1.86 1.43-2.37a.62.62 0 0 1 .59-.3 1.85 1.85 0 0 1 .37 0 5.07 5.07 0 0 1 1.2.42 6.55 6.55 0 0 1 1.08.66c.41.31.56.62.46.93v.07a26.62 26.62 0 0 0-1.7 2.82q-.98 1.9-1.91 3.9-1 2.19-1.94 4.42t-1.73 4.48c-.51 1.43-.92 2.69-1.23 3.88a16.82 16.82 0 0 0-.57 2.78 1.54 1.54 0 0 0 0 .47 2.59 2.59 0 0 0 .86-.66A14.77 14.77 0 0 0 52.1 51l.9-1.23q1.06-1.37 2-2.83t2-3.17c.49-.82 1-1.66 1.45-2.48l.55-1.38c.56-1.16 1.11-2.26 1.64-3.26.12-.26.44-.4 1-.49a7.93 7.93 0 0 1 1-.07h.54a10.14 10.14 0 0 1 1.47.19c.4.09.62.2.71.39a.42.42 0 0 1 0 .37 55.94 55.94 0 0 0-3.16 6.17 34.26 34.26 0 0 0-2.06 6.56 1.87 1.87 0 0 0-.07.43 2.79 2.79 0 0 0 .89-.57 13.9 13.9 0 0 0 1.29-1.24c.45-.5.8-.89 1-1.15.62-.86 1.3-1.78 1.95-2.75s1.31-2 1.94-3 1.23-2.06 1.85-3.06l1.27-2.18c.32-.68.62-1.35 1-2 .17-.42.76-.48 1-.5s.41 0 .62 0a6.71 6.71 0 0 1 .81.05 5 5 0 0 1 1.32.32c.68.28.67.62.62.84V35a12.77 12.77 0 0 0-.63 1.25c-.29.55-.62 1.18-.91 1.86s-.62 1.41-1 2.26-.67 1.61-1 2.4-.57 1.52-.84 2.28-.43 1.29-.62 1.94a1.5 1.5 0 0 0-.07.75h.06a1.76 1.76 0 0 0 .58-.31 9.44 9.44 0 0 0 .76-.62A11.55 11.55 0 0 0 74.21 44a29.09 29.09 0 0 0 1.6-3.26c.47-1.12.94-2.3 1.42-3.48A24.66 24.66 0 0 1 79 33.79a1.1 1.1 0 0 1 .73-.62 5.39 5.39 0 0 1 1.16-.31 4.31 4.31 0 0 1 .67-.06 3.6 3.6 0 0 1 .49 0c.62.09.73.37.74.59a12.94 12.94 0 0 0 1.57.62 5.81 5.81 0 0 0 1.54.3 19 19 0 0 1 1.38-1.86 9.27 9.27 0 0 1 1.69-1.61 2.77 2.77 0 0 1 1.68-.48 6.56 6.56 0 0 1 1.78.24 4.83 4.83 0 0 1 1.52.71c.48.35.71.68.7 1a7.07 7.07 0 0 1-.74 3A13.61 13.61 0 0 1 92 38.2a17.8 17.8 0 0 1-2.6 2.48 16.54 16.54 0 0 1-2.76 1.75c-.06.48-.09.9-.1 1.24a1.44 1.44 0 0 0 .15.77.91.91 0 0 0 .93.73 4 4 0 0 0 1.77-.62 11.54 11.54 0 0 0 3.2-2.55 30.57 30.57 0 0 0 2.66-3.45q1.27-1.92 2.39-3.93l.7-1.2a1.82 1.82 0 0 1-.95-1.38 3.27 3.27 0 0 1 .14-1.55 7.78 7.78 0 0 1 .76-1.67 9.55 9.55 0 0 1 1.17-1.58 7.33 7.33 0 0 1 1.38-1.19 1.91 1.91 0 0 1 1.31-.55h.16a3.09 3.09 0 0 1 1.34.4 2.26 2.26 0 0 1 .88.86.74.74 0 0 1-.1 1c-.21.2-.47.47-.76.8s-.58.68-.84 1a6.68 6.68 0 0 0-.62.93 1 1 0 0 0-.11.28 1.36 1.36 0 0 0 .34-.07 9.05 9.05 0 0 0 1.71-.82h.08a4.43 4.43 0 0 1 1-.12h.38a4.84 4.84 0 0 1 1.23.25 1.84 1.84 0 0 1 .82.51.56.56 0 0 1 .15.45.58.58 0 0 1-.25.38q-1.06 1.21-2.05 2.48a16.44 16.44 0 0 0-1.41 2.2 12.45 12.45 0 0 0-.91 2.24 14.71 14.71 0 0 0-.49 2.48c.31.55.62.55.75.55h.22a4.14 4.14 0 0 0 1.7-1.1 19.31 19.31 0 0 0 2.1-2.48q1.15-1.57 2.2-3.21l.38-.62.16-.26.06-.17.1-.26q1.26-3.22 2.78-6.33a1.38 1.38 0 0 1 1-.51 8.25 8.25 0 0 1 1.4-.17h.25a6.22 6.22 0 0 1 1.1.09c.2 0 .81.15.83.62v.16q-1.51 3.1-2.85 6.28a30.92 30.92 0 0 0-1.78 5.71c-.13.53 0 .66 0 .66a.13.13 0 0 0 .12.06h.11a1.85 1.85 0 0 0 .62-.38 3.08 3.08 0 0 0 .62-.73c.24-.35.62-.92 1.06-1.7s1-1.64 1.56-2.59l1.65-2.89q.71-1.25 1.45-2.48l.7-1.8c.24-.62.47-1.2.69-1.74.11-.34.58-.45 1-.51a9.41 9.41 0 0 1 1.23-.08h.36a8.43 8.43 0 0 1 1.54.18c.43.09.66.21.76.39a.42.42 0 0 1 0 .34q-.68 1.23-1.26 2.51c-.4.88-.8 1.81-1.17 2.72s-.73 1.86-1.06 2.73l-.57 1.54a35.17 35.17 0 0 0 4.49-4.56q2.18-2.72 4.13-5.72a1.14 1.14 0 0 1 .62-.35h.25v-.06zM87.45 39.7l.42-.3a9.44 9.44 0 0 0 .75-.62 5.7 5.7 0 0 0 .55-.58l.62-.74a7 7 0 0 0 .47-.68 11.08 11.08 0 0 0 .62-1.1l.68-1.24a10.6 10.6 0 0 0 .54-1.12l.11-.27q-.31.28-.72.73-.87 1-1.65 2a25 25 0 0 0-1.63 2.41 14.34 14.34 0 0 0-.75 1.51zm-70 9.16a34.72 34.72 0 0 0 5-4 36.22 36.22 0 0 0 4.72-5.46l.09-.12h.15a.62.62 0 0 1 .46.22c.32.4.17 1.2 0 2.13a7.77 7.77 0 0 1-1.09 2.48 16.62 16.62 0 0 1-2.07 2.57A28.81 28.81 0 0 1 22 49.17a34.09 34.09 0 0 1-3.26 2.29 26.85 26.85 0 0 1-3.43 1.88q-.93 2.05-1.91 4.09a6.6 6.6 0 0 0 3.33.94h.49A10.25 10.25 0 0 0 21.41 57a18.3 18.3 0 0 0 4-3.1 28.59 28.59 0 0 0 3.48-4.32 29.79 29.79 0 0 0 2.6-4.79 18.81 18.81 0 0 0 1.37-4.64 9 9 0 0 0-.18-3.83A3.72 3.72 0 0 0 30.76 34a4.66 4.66 0 0 0-2.15-.46 8.26 8.26 0 0 0-1.08.07 18.15 18.15 0 0 0-4.14 1.15 2.57 2.57 0 0 1 .11.29 1.13 1.13 0 0 1 0 .66c-.9 2.21-1.92 4.52-3 6.86q-1.5 3.15-3 6.29zm-10 3.7a5 5 0 0 0 .75 0 11.26 11.26 0 0 0 1.49-.24c.49-.11.92-.23 1.26-.34l.76-.23q1.93-4 4-7.88 1.85-3.5 3.42-7.14a50.61 50.61 0 0 0-9.38 6.64A28.16 28.16 0 0 0 6.23 47a7.27 7.27 0 0 0-1.57 3 2.33 2.33 0 0 0 .11 1.39 1.66 1.66 0 0 0 .75.73 3.24 3.24 0 0 0 1.23.35h.74zm30.22-3.68l.42-.3a9.43 9.43 0 0 0 .75-.62 5.81 5.81 0 0 0 .56-.58l.62-.74a7.22 7.22 0 0 0 .47-.68 11.42 11.42 0 0 0 .62-1.1l.68-1.24a10.58 10.58 0 0 0 .54-1.12l.1-.27q-.31.28-.72.73-.87 1-1.65 2a25 25 0 0 0-1.63 2.41 14.53 14.53 0 0 0-.78 1.5zm72.82 3.93a1 1 0 0 0 .56-.15c.33-.19.88-.77 1.63-2.48.49-1.11 1.11-2.59 1.85-4.4-.57.62-1.15 1.24-1.76 1.92a21.92 21.92 0 0 0-2.47 3.2 6.92 6.92 0 0 0-.47.87.85.85 0 0 0 0 .62.57.57 0 0 0 .54.37h.17zM132 22.56a3.24 3.24 0 0 0-.57.05 3.12 3.12 0 0 0-1.7 1l-.13.14-.1.16q-.47.72-1 1.45a2.42 2.42 0 0 0-.31-.9 3 3 0 0 0-2-1.32 10.48 10.48 0 0 0-1.91-.15h-.43a11.27 11.27 0 0 0-1.49.09 2.89 2.89 0 0 0-2.6 1.77l-.39 1a2.91 2.91 0 0 0-2.11-1.35 8.19 8.19 0 0 0-1.45-.12h-.31a10.18 10.18 0 0 0-1.74.2 3.29 3.29 0 0 0-2.3 1.42v.14c-.62 1.29-1.23 2.58-1.78 3.86a2.7 2.7 0 0 0-.41-.68 3.7 3.7 0 0 0-1.68-1.12 6.21 6.21 0 0 0-.94-.25 2.92 2.92 0 0 0-.32-2.07 4.21 4.21 0 0 0-1.63-1.62 5 5 0 0 0-2.17-.7h-.3a3.85 3.85 0 0 0-2.5.94A9.37 9.37 0 0 0 98 25.94a11.53 11.53 0 0 0-1.42 1.9 9.77 9.77 0 0 0-1 2.11l-.06.2a4.79 4.79 0 0 0-.5-.41 6.76 6.76 0 0 0-2.13-1 8.52 8.52 0 0 0-2.31-.32h.02a4.76 4.76 0 0 0-2.84.91 11.22 11.22 0 0 0-2 1.94q-.39.47-.77 1-.37-.12-.73-.27a2.83 2.83 0 0 0-1.92-1 5.45 5.45 0 0 0-.76-.06 6.48 6.48 0 0 0-1 .07 7.36 7.36 0 0 0-1.58.42A3.09 3.09 0 0 0 77.22 33l-.13.22a3.24 3.24 0 0 0-1.23-.85 7 7 0 0 0-1.86-.52 8.89 8.89 0 0 0-1.84 0 2.88 2.88 0 0 0-2.51 1.62c-.3.62-.62 1.24-.92 1.9l-1.19 2a2.41 2.41 0 0 0-.22-1.57 2.82 2.82 0 0 0-2.05-1.42 12 12 0 0 0-1.77-.23h-.65a10 10 0 0 0-1.31.09A3.13 3.13 0 0 0 59 35.8q-.9 1.61-1.68 3.28c-.22.46-.43.92-.62 1.33q-.68 1.18-1.38 2.34l-.38.62.46-1.19c.62-1.48 1.23-2.94 1.89-4.34s1.22-2.53 1.87-3.76a24.59 24.59 0 0 1 1.56-2.6l.16-.23L61 31a2.74 2.74 0 0 0-1.12-3.18 8.5 8.5 0 0 0-1.41-.86 7 7 0 0 0-1.67-.58 3.78 3.78 0 0 0-.73-.08 2.57 2.57 0 0 0-2.26 1.24c-.38.57-.88 1.39-1.47 2.44q-1 1.86-2 3.74c-.73 1.38-1.47 3-2.21 4.55q-.69 1.5-1.31 3a3.3 3.3 0 0 0-1.5-2.32 6.76 6.76 0 0 0-2.14-1 8.48 8.48 0 0 0-2.31-.32h-.06a5 5 0 0 0-1.85.36 8.66 8.66 0 0 0-2.51-5.06 15 15 0 0 0-2.56-2.12 11.58 11.58 0 0 0-3.32-1.45 14.14 14.14 0 0 0-3.6-.43h-.3a18 18 0 0 0-4.55.72 42.47 42.47 0 0 0-9.5 3.9 36.21 36.21 0 0 0-7.12 5.16 20.78 20.78 0 0 0-4.41 5.81 9 9 0 0 0-.89 6.16 15.31 15.31 0 0 0 .8 2.41 5.5 5.5 0 0 0 1.49 2.11 6.15 6.15 0 0 0 2.23 1.15 17.15 17.15 0 0 0 2.37.48q-.68 1.51-1.28 3.05l-.05.12v.17a3.87 3.87 0 0 0 .36 2.44 8.11 8.11 0 0 0 1 1.63 5.74 5.74 0 0 0 1.46 1.34 2.94 2.94 0 0 0 1.58.48 2.66 2.66 0 0 0 2.11-1l.19-.25.1-.29c.18-.5.38-1 .58-1.48a6.92 6.92 0 0 0 2.1.94 9 9 0 0 0 2.42.32 10.7 10.7 0 0 0 3.26-.53 19.13 19.13 0 0 0 5.46-2.89 34 34 0 0 0 5-4.56c.21-.23.41-.47.61-.71a8.55 8.55 0 0 0 2.82 2.18 8.92 8.92 0 0 0 2.78.8 7.41 7.41 0 0 0 .91.06 7 7 0 0 0 2.16-.33 8.29 8.29 0 0 0 2.88-1.66 17.13 17.13 0 0 0 1.8-1.82 6.05 6.05 0 0 0 2 1.33 7.83 7.83 0 0 0 2.35.57h.67a7.43 7.43 0 0 0 1.9-.25h.16l.15-.07a8.61 8.61 0 0 0 3.08-2.62 5.2 5.2 0 0 0 1 .49 7.54 7.54 0 0 0 2.74.45 16.93 16.93 0 0 0 2.38-.19h.3l.28-.13a10 10 0 0 0 3.36-2.82 4.14 4.14 0 0 0 1.55.53 19 19 0 0 0 1.95.21h1.99a9.8 9.8 0 0 0 1.5-.1h.06l.42-.08.35-.24a18.18 18.18 0 0 0 3.7-3.37 25.36 25.36 0 0 0 2.6-3.8q.31-.56.62-1.15a4.61 4.61 0 0 0 .18 1 6 6 0 0 0 1.56 2.48 8.55 8.55 0 0 0 2.31 1.61 8.91 8.91 0 0 0 2.77.8 7.41 7.41 0 0 0 .91.06 7 7 0 0 0 2.16-.34 8.28 8.28 0 0 0 2.88-1.66A17.83 17.83 0 0 0 95.53 45q.38-.48.76-1l.15.24a6.12 6.12 0 0 0 2 1.86 7.28 7.28 0 0 0 2.67.93 7.1 7.1 0 0 0 2.83-.14 5.11 5.11 0 0 0 2.71-1.32 16.19 16.19 0 0 0 2.14-2.28 11.14 11.14 0 0 0 1.3.7 8.33 8.33 0 0 0 .86.34l-.52.62c-.68.79-1.33 1.6-1.94 2.38a18.89 18.89 0 0 0-1.49 2.13 5.06 5.06 0 0 0 .7 6.36 5.82 5.82 0 0 0 2.42 1.46 6 6 0 0 0 1.76.28 4.67 4.67 0 0 0 .83-.07 6 6 0 0 0 3.55-2.17 18.11 18.11 0 0 0 2-3 19.56 19.56 0 0 0 .94-2.06c.27-.69.62-1.6 1.07-2.79s.89-2.34 1.32-3.52c.36-1 .71-2 1.05-3 1.75-1.65 3.25-3.16 4.47-4.5s2.47-2.75 3.35-3.93 1.68-2.25 2.29-3.2l1.61-2.51a2.71 2.71 0 0 0 .32-2.48 2.75 2.75 0 0 0-1.42-1.53 2.91 2.91 0 0 0-1.23-.26zM25.46 36.1a14.17 14.17 0 0 1 2.34-.53 6.3 6.3 0 0 1 .82-.06 2.79 2.79 0 0 1 1.23.24 1.76 1.76 0 0 1 .94 1.18 7.06 7.06 0 0 1 .12 3 16.82 16.82 0 0 1-1.23 4.14 27.79 27.79 0 0 1-2.43 4.47 26.63 26.63 0 0 1-3.24 4 16.34 16.34 0 0 1-3.58 2.78A8.3 8.3 0 0 1 17 56.35h-.34a4.13 4.13 0 0 1-.62 0c.23-.48.46-1 .69-1.49a29.07 29.07 0 0 0 2.94-1.58 36 36 0 0 0 3.45-2.42 30.78 30.78 0 0 0 3-2.68 18.58 18.58 0 0 0 2.32-2.89 9.73 9.73 0 0 0 1.36-3.14c.24-1.1.57-2.62-.35-3.78a2.56 2.56 0 0 0-2-1h-1.17l-.62.86-.09.12a32.71 32.71 0 0 1-2.3 2.92q1.06-2.35 2-4.73v-.32zM6.6 50.52v-.12a5.33 5.33 0 0 1 1.17-2.14 26.2 26.2 0 0 1 3.31-3.45 39.9 39.9 0 0 1 3.38-2.74l-.45.87q-1.86 3.56-3.64 7.16c-.29.09-.65.19-1.07.28a9.14 9.14 0 0 1-1.23.2H6.93a1.74 1.74 0 0 1-.32-.06z" fill="#222221"/><path d="M133.09 2.28v-.49A1.89 1.89 0 0 0 131.68.1a1.84 1.84 0 0 0-.75-.09h-.22l-.15.05a3.07 3.07 0 0 0-.65.15l-.33.12-.2.07-.14.06-.17.06-.26.11-1.18-.16-.52.66-.39.12a2.25 2.25 0 0 0-.94.11 8.93 8.93 0 0 0-.89.3 4.45 4.45 0 0 0-.72.36h-.53a2.1 2.1 0 0 0-1.4.73l-.12.16a2.78 2.78 0 0 0-.31.62l-.07.11a3.49 3.49 0 0 0-.41.71l-.1.24-.94.09v.05a4.11 4.11 0 0 0 .12-.69 1.36 1.36 0 0 1 .08-.3 1.86 1.86 0 0 0 .09-.76 2 2 0 0 0-.49-1.17 2 2 0 0 0-2.27-.62 1.87 1.87 0 0 0-.49.11h-.12l-.26.06-.36.06-.35.09h-.09a2 2 0 0 0-.58.17 2.07 2.07 0 0 0-1.85 1.63l-.22.71a5.3 5.3 0 0 0-.14.55.25.25 0 0 1 0 .16l-.22.55-2.34.21a4.27 4.27 0 0 0 .17-.7c0-.1.06-.2.08-.3a1.87 1.87 0 0 0 .09-.76 2 2 0 0 0-.51-1.14 2 2 0 0 0-2.28-.62 1.89 1.89 0 0 0-.49.11h-.12l-.26.06-.36.06-.35.09-.13.06a2 2 0 0 0-.58.17 2.07 2.07 0 0 0-.49.12 2.15 2.15 0 0 0-1.34-.37h-.38a3.18 3.18 0 0 0-.65.15l-.33.12-.2.07-.14.06-.17.06-.25.06-1.34-.32-.37.84-.39.15a2.24 2.24 0 0 0-.94.11 8.79 8.79 0 0 0-.89.3 4.45 4.45 0 0 0-.72.36h-.16L97.18 3l-1.85.16a1.84 1.84 0 0 0-.84.29l-.62.3a2.6 2.6 0 0 0-.57.17l-.43.14-.42.22-.81.29-.49.16-.52.17-.44.1a5.72 5.72 0 0 0-.72.23h-.11a4.32 4.32 0 0 0-.76.2l-.86.25-.39.12h-.26a1.87 1.87 0 0 0-.09-.27L86.9 4l-1.9.12a1.83 1.83 0 0 0-.84.29l-.62.3a2.74 2.74 0 0 0-.57.17l-.38.12-.44.18-.81.28-.49.16-.52.17-.43.11a5.46 5.46 0 0 0-.72.23h-.15a4.33 4.33 0 0 0-.76.2l-.86.25-.4.12a2 2 0 0 0-1.34.3 1.94 1.94 0 0 0-.48.35l-.28.12a2.46 2.46 0 0 0-1.06.65v-.18a2.66 2.66 0 0 0-.27-1.3 1.9 1.9 0 0 0-2.31-1.16 2 2 0 0 0-.57-.07 2.22 2.22 0 0 0-.4 0h-.43l-.31.16a2.37 2.37 0 0 0-1 .91h-.08l-.36.16-.11.07-.29.29-.18.12-.25.16-.19.23a2.12 2.12 0 0 0-.34.56v-.2a1.91 1.91 0 0 0-.09-.44 1.9 1.9 0 0 0-2.76-1.33H63.74l-.17.06a2.54 2.54 0 0 0-.51.12 4.1 4.1 0 0 0-.83.32l-.3.1-.61.3a2 2 0 0 1-.52.08h-.11a3.37 3.37 0 0 0-1.79.69 2.93 2.93 0 0 0-.71.21 2 2 0 0 0-.39 0 2.41 2.41 0 0 0-1 .12l-.13.05a2.16 2.16 0 0 0-.49.3 3.17 3.17 0 0 0-.45.11h-.18l-.38.09h-.12a1.94 1.94 0 0 0-.59.17 2 2 0 0 0-1.62 1.1l-.17.21-.1.35a5.7 5.7 0 0 0-.15.62.31.31 0 0 1 0 .19q-.11.32-.18.62l-.12.47a4.33 4.33 0 0 0-.17.55v.14l-1 2.68h.53a2.47 2.47 0 0 0 .07.41v.19a2.7 2.7 0 0 1-.07.27l-.12.36a2.83 2.83 0 0 0-.56 1 5.5 5.5 0 0 0-.26 1.18l-.1 2.54q-.07.19-.11.38v.06a2.14 2.14 0 0 0-.57 1.06 3.94 3.94 0 0 0-.11.54.82.82 0 0 1 0 .3 3 3 0 0 0-.08.42 2.22 2.22 0 0 0 0 .23.33.33 0 0 1 0 .17l-.4.2L49 26.1l-.06.3-.1.52c-.06.3-.11.62-.15.86a5 5 0 0 0-.06.75 2.37 2.37 0 0 0-.06.78 2 2 0 0 0 .7 1.4 2 2 0 0 0 1.49.47 2.08 2.08 0 0 0 .62-.14l.31-.1.32-.1h.08l.39-.15.32-.12h.48a2.12 2.12 0 0 0 .62-.15 1.85 1.85 0 0 0 1.23-.68l.45-.13a2.71 2.71 0 0 0 .78-.22 2.13 2.13 0 0 0 1.12 0l.72-.17h.17a2.14 2.14 0 0 0 .91-.62h.09A1.86 1.86 0 0 0 61 30.21a2.24 2.24 0 0 0 .66 0h.31a3.74 3.74 0 0 0 .48-.12 2.25 2.25 0 0 0 .36-.1l.62-.06.07-.16.24-.08a4 4 0 0 0 .65-.13h.18a2 2 0 0 0 1.4-1.27l.45-.55v-.28c0-.11.08-.23.11-.34a2.86 2.86 0 0 0 .43 1.15 1.84 1.84 0 0 0 1.64.75 1.86 1.86 0 0 0 .62-.16 1.94 1.94 0 0 0 .38-.14h.12l.25.22a1.92 1.92 0 0 0 1.44.46 2.15 2.15 0 0 0 .62-.15l.62-.15 1-.23.35-.17a4.76 4.76 0 0 0 .62-.2l.62-.19a8.69 8.69 0 0 0 .9-.32l.14-.06a2.41 2.41 0 0 0 1.63-.48h.07l.75-.26.58-.21h.06l.29-.12.06.67.55.48a1.92 1.92 0 0 0 1.44.45 2.14 2.14 0 0 0 .62-.15l.62-.15.95-.23.44-.12a4.75 4.75 0 0 0 .62-.2l.62-.19a8.54 8.54 0 0 0 .9-.32l.14-.06a2.41 2.41 0 0 0 1.63-.48h.07l.75-.26.58-.21h.06l.54-.22.44-.19h.19A1.92 1.92 0 0 0 93 27.46l.62-.06.25-.2a2.33 2.33 0 0 0 .41-.2h.09l.47-.19a2.72 2.72 0 0 0 .68-.25l.22-.07.19-.07H96.1l.62-.24.42-.16a6.49 6.49 0 0 0 .62-.25 4.52 4.52 0 0 1 .44-.17l.19-.08.47-.2.16-.06a1.93 1.93 0 0 0 1.18 1.35 3 3 0 0 0 .44.14 2.09 2.09 0 0 0 .68 0 2.06 2.06 0 0 0 .5-.11l.45-.14.53-.2.38-.13a5.87 5.87 0 0 0 .62-.24h.09l.14-.07.22-.08.18-.06.14-.09.14-.07a3.11 3.11 0 0 0 .62-.22l.28-.14a2 2 0 0 0 1.27-.42l.31-.1H107.63l.26-.12a3 3 0 0 0 .62-.34 1.93 1.93 0 0 0 1.23 1.59 3 3 0 0 0 .44.14 2 2 0 0 0 1.18-.06l.45-.14.53-.2.38-.13q.31-.1.62-.24h.09l.14-.07.22-.08.18-.06.14-.09.14-.07a3.11 3.11 0 0 0 .62-.22l.28-.14a2 2 0 0 0 1.26-.42l.31-.1H117.16l.26-.12.19-.09a1.92 1.92 0 0 0 .39.92 1.94 1.94 0 0 0 1.73.72l.62-.06.25-.2a2.24 2.24 0 0 0 .41-.2h.09a3.64 3.64 0 0 0 .47-.19 2.69 2.69 0 0 0 .68-.25l.21-.07.18-.07H122.81l.62-.24.43-.16c.22-.08.43-.16.62-.25a4.3 4.3 0 0 1 .44-.17l.19-.15.47-.2.58-.21.47-.17a3.77 3.77 0 0 0 .41-.19c.2-.1.41-.23.62-.37l.23-.16a2.15 2.15 0 0 0 1.42-1.7 2.06 2.06 0 0 1 .12-.44l.18-.66v-.28c0-.06.05-.22.07-.36s.07-.43.1-.62a3.9 3.9 0 0 1 .07-.42l.05-.25-.1-1.11-.57-.48a2 2 0 0 0-1.46-.47 2.26 2.26 0 0 0-.62.14l.37-.2h.07a2.17 2.17 0 0 0 1.17-2.08l.07-.27.05-.16v-.17a1.86 1.86 0 0 1 0-.21 4 4 0 0 1 .07-.44 5 5 0 0 0 .09-.62 1.68 1.68 0 0 1 0-.42 1.92 1.92 0 0 0-.5-1.52 1.85 1.85 0 0 0-.87-.53l.85-.69a4.69 4.69 0 0 0 .71-.25h.14a5 5 0 0 0 .67-.24 2.32 2.32 0 0 0 .41-.17 3.34 3.34 0 0 0 .77-.4A2 2 0 0 0 132.51 5a2.23 2.23 0 0 0 .07-.52 5.73 5.73 0 0 1 .13-.58.5.5 0 0 1 .06-.22l1-1.18-.66-.26z" fill="#222221"/><path d="M64.84 7.05a.27.27 0 0 0 0 .11.16.16 0 0 1 0 .07.17.17 0 0 1 0 .1v.17l-.12.16a1.05 1.05 0 0 0-.08.16.62.62 0 0 0 0 .27q-.09.24-.17.49c0 .17-.1.33-.17.49s-.08.25-.12.35-.08.22-.12.35a.31.31 0 0 0 .09.34c.09 0 .1.15 0 .34a.22.22 0 0 1-.06.15 3.91 3.91 0 0 1-.19.4.16.16 0 0 0 0 .12.56.56 0 0 1 0 .21 1.14 1.14 0 0 1-.09.22 5.15 5.15 0 0 1-.43.95 6.65 6.65 0 0 0-.46 1 2.31 2.31 0 0 0-.08.36 2.34 2.34 0 0 1-.08.37.4.4 0 0 1-.14.2 1.15 1.15 0 0 0-.35.68.18.18 0 0 1 0 .08.26.26 0 0 0 0 .11.39.39 0 0 1-.43.3h-.62l-.52.12-.52.12a1.43 1.43 0 0 0-.37 0h-.37A1.7 1.7 0 0 1 59 16a.16.16 0 0 1-.14-.06.14.14 0 0 1 0-.15v-.45a1.92 1.92 0 0 1 .06-.46 4 4 0 0 1 .32-.62 3.28 3.28 0 0 0 .31-.67.56.56 0 0 0 0-.38.55.55 0 0 1 0-.38 3.32 3.32 0 0 1 .15-.47 3.54 3.54 0 0 0 .15-.47.33.33 0 0 0 .08-.18.32.32 0 0 1 .08-.18v-.11l-.14.09-.49.17-.49.18a2.27 2.27 0 0 1-.51.2 1.27 1.27 0 0 1-.41.11.4.4 0 0 0-.31.37q-.06.24-.09.48a4.67 4.67 0 0 1-.09.48.34.34 0 0 1 0 .15l-.06.15c0 .13-.08.27-.12.41a1.25 1.25 0 0 0 0 .44.21.21 0 0 1-.07.1l-.07.06a1.05 1.05 0 0 1-.07.22.47.47 0 0 0 0 .25.11.11 0 0 1 0 .08.11.11 0 0 0 0 .08.62.62 0 0 0 0 .19.35.35 0 0 1-.07.2.4.4 0 0 0-.06.23.26.26 0 0 1-.06.19 1.35 1.35 0 0 0-.06.38.31.31 0 0 1-.15.28c-.17.07-.22.12-.15.17s.08.09 0 .15-.17.2-.15.26a.4.4 0 0 1 0 .25c0 .13-.07.27-.11.43s-.07.3-.11.43a.77.77 0 0 0 0 .25.77.77 0 0 1 0 .25c0 .1-.07.2-.11.31s-.07.21-.11.31a3.52 3.52 0 0 1-.1.58 2.12 2.12 0 0 1-.14.51.21.21 0 0 0 0 .16 1.19 1.19 0 0 1-.11.5.58.58 0 0 0-.07.22 1.18 1.18 0 0 1 0 .25.23.23 0 0 1 0 .14.24.24 0 0 0 0 .14 5.11 5.11 0 0 1-.12.56 4.61 4.61 0 0 0-.12.56.85.85 0 0 1-.05.29 2.35 2.35 0 0 1-.05.29V24h.07l.39-.11.39-.11a.31.31 0 0 1 .19 0 .3.3 0 0 0 .18 0 .15.15 0 0 1 .1 0l.12.1a.08.08 0 0 0 .11 0 .62.62 0 0 0 .1-.27c0-.13.17-.2.4-.22a2.82 2.82 0 0 0 .52-.09c.07 0 .11 0 .1-.09a2 2 0 0 1 .14-.39c.05-.13.1-.26.14-.39a2.76 2.76 0 0 0 0-.5 3.18 3.18 0 0 1 .05-.53H58a1.27 1.27 0 0 1-.52.08 1.12 1.12 0 0 0-.48.08.15.15 0 0 0-.11 0l-.1.09a.51.51 0 0 1-.22.06.52.52 0 0 1 0-.23 3 3 0 0 0 .08-.35 1.46 1.46 0 0 1 .09-.31l.1-.37a1.47 1.47 0 0 1 .1-.37.6.6 0 0 1 .07-.2.6.6 0 0 0 .07-.2c0-.13 0-.19.05-.27a1.93 1.93 0 0 1 .09-.27.23.23 0 0 1 .1-.09.56.56 0 0 0 .19-.22c0-.06.07-.11.19-.15a2.07 2.07 0 0 1 .82-.13 2.55 2.55 0 0 0 .82-.09q.29-.1.85-.36t.85-.36l.51-.2h.18a1.31 1.31 0 0 1 .3-.06h.3a.11.11 0 0 0 0 .08.1.1 0 0 1 0 .08.67.67 0 0 0-.08.35.22.22 0 0 1 0 .16.08.08 0 0 0 0 .06.08.08 0 0 1 0 .06v.11a1.24 1.24 0 0 1-.22.45 1.24 1.24 0 0 0-.22.45 2 2 0 0 0-.08.38 2.11 2.11 0 0 1-.08.39 2 2 0 0 0-.06.46.62.62 0 0 1-.14.39c-.14.17-.18.3-.14.41a.71.71 0 0 1 .05.35q-.05.22-.09.45t-.09.45a.27.27 0 0 0 .08.24.27.27 0 0 1 .08.24 1.2 1.2 0 0 1 0 .35.78.78 0 0 1 0 .3l-.28.29c0 .13-.08.25-.12.37a.69.69 0 0 0 0 .4 1.21 1.21 0 0 1 0 .38.29.29 0 0 1-.25.14 1.65 1.65 0 0 1-.48.06c-.25 0-.4.06-.44.13l-.18.09a.42.42 0 0 0-.19.06l-.4.15a.52.52 0 0 1-.31.14 1 1 0 0 0-.35.1.45.45 0 0 0-.24.25.44.44 0 0 1-.24.25l-.8.16a.39.39 0 0 1-.32 0 .46.46 0 0 0-.36 0h-.11a1 1 0 0 0-.28.06l-.27.1a.94.94 0 0 1-.33.1 1.25 1.25 0 0 0-.3.06l-.37.11-.37.1-.26.08-.26.08a.53.53 0 0 0 0 .23c0 .16-.11.19-.22.09s-.18 0-.22.06a.26.26 0 0 1-.22.13.21.21 0 0 0-.15 0h-.71a1.17 1.17 0 0 1-.4.19l-.36.15-.35.1-.35.1h-.07a.26.26 0 0 1-.14.12.2.2 0 0 1-.17 0 .2.2 0 0 1-.07-.17c0-.15 0-.24.09-.27v-.14a3.52 3.52 0 0 1 0-.76q0-.35.12-.73l.11-.54c0-.18.07-.37.1-.58v-.06c.12-.06.17-.14.15-.24a.37.37 0 0 1 0-.27.62.62 0 0 0 .07-.25 1.31 1.31 0 0 1 0-.25.29.29 0 0 0 0-.12A.29.29 0 0 1 51 24q0-.27.11-.54a1 1 0 0 1 0-.36 2.3 2.3 0 0 1 .08-.37.34.34 0 0 1 .22-.28.48.48 0 0 0 .26-.25.62.62 0 0 0 .07-.27 2.43 2.43 0 0 1 0-.3 1.46 1.46 0 0 1 .12-.35.16.16 0 0 1 0-.12l.14-2.67a3.68 3.68 0 0 1 .19-.85 1.07 1.07 0 0 1 .26-.46 1 1 0 0 0 .26-.46c0-.13.08-.27.14-.41s.09-.3.13-.45a.62.62 0 0 0 .02-.26.92.92 0 0 1 .07-.31.49.49 0 0 0-.07-.39.49.49 0 0 1-.06-.39A2.61 2.61 0 0 1 53 14a3.17 3.17 0 0 0 .22-.32c.1-.16.16-.24.18-.24h.12l.1-.09a.57.57 0 0 1 .14-.12.93.93 0 0 0 .18-.13l.16-.11a.33.33 0 0 0 .12-.14h.07l.11-.05h-.18a.66.66 0 0 0-.18.09.53.53 0 0 1-.22.06h-.26a.6.6 0 0 1-.22.06v-.14a1.07 1.07 0 0 1 0-.14 2.49 2.49 0 0 1 .26-.73c.05-.21.11-.4.15-.58s.1-.36.16-.55a3.74 3.74 0 0 0 .1-.41 3.36 3.36 0 0 1 .1-.4.89.89 0 0 0 .12-.18.22.22 0 0 1 .2-.11h.24a.78.78 0 0 0 .24-.06H55a.17.17 0 0 1 .18-.06h.18l.35-.09.35-.09a1.11 1.11 0 0 1 .28-.06 1.15 1.15 0 0 0 .28-.06h.11a.25.25 0 0 0 .27-.1.53.53 0 0 1 .21-.19.61.61 0 0 1 .3 0 .28.28 0 0 1 .22.07.29.29 0 0 0 .22.07 1.48 1.48 0 0 1 .4-.13 1.41 1.41 0 0 0 .4-.13 1.3 1.3 0 0 1 .5-.1.57.57 0 0 0 .45-.21 1.56 1.56 0 0 1 1.17-.57 3.68 3.68 0 0 0 1-.19l.51-.18.51-.18a2.27 2.27 0 0 1 .62-.24.74.74 0 0 1 .24-.06 1.2 1.2 0 0 0 .25-.05h.11A.93.93 0 0 1 64.4 7a.62.62 0 0 0 .23-.12c.12-.06.19 0 .2.13zm-2.28 16.34l-.76.3a2.23 2.23 0 0 1-.78.14h-.26a.15.15 0 0 1-.05-.11l.13-.26a1 1 0 0 1 .13-.22.27.27 0 0 0 0-.23.06.06 0 0 1 0-.07.06.06 0 0 0 0-.08v-.16a.17.17 0 0 0-.07-.24c-.09-.06-.05-.19.14-.41a.75.75 0 0 0 0-.16.73.73 0 0 1 0-.16 1.51 1.51 0 0 1 .14-.5v-.08c-.06-.09 0-.19.09-.27l.27-.17a1.07 1.07 0 0 1 .31-.14.83.83 0 0 0 .31-.09l.31-.16h.07a.22.22 0 0 0 .14-.09h.07a7.6 7.6 0 0 0 .73-.22.66.66 0 0 0 .3-.1.58.58 0 0 0 .14-.12 1.47 1.47 0 0 0 .11-.25.62.62 0 0 0 0-.25.47.47 0 0 1 .09-.24.17.17 0 0 0 0-.19.18.18 0 0 0 .12-.16.33.33 0 0 1 .07-.2c-.06 0-.06-.07 0-.09a.17.17 0 0 0 .09-.1 5 5 0 0 0 .22-.55.32.32 0 0 1 0-.28v-.13c0-.03-.09-.07-.07-.12s0-.23.08-.39a.22.22 0 0 1 0-.16c.07-.06.09-.11 0-.17a.18.18 0 0 1 0-.21l.12-.32.12-.32a.25.25 0 0 1 .16-.13.25.25 0 0 0 .16-.13.11.11 0 0 0 0-.08.11.11 0 0 1 0-.08.62.62 0 0 1 .06-.19 2.27 2.27 0 0 0 .2-.32.36.36 0 0 1 .1-.12c.07-.06.1-.11.1-.16a.31.31 0 0 1 0-.08 1 1 0 0 0 .18-.47.17.17 0 0 1 .06-.12 1.27 1.27 0 0 1 .06-.25c0-.09 0-.17.06-.25a.16.16 0 0 0 0-.12.89.89 0 0 0 .16-.32V12.61c.07 0 .1-.07.1-.12a.22.22 0 0 1 .06-.15.35.35 0 0 0 .07-.2.58.58 0 0 1 .07-.24.83.83 0 0 0 .09-.2l-.15-.06a.12.12 0 0 1 0-.16l.07-.08a3.7 3.7 0 0 0 .19-.4.37.37 0 0 1 .1-.14.39.39 0 0 0 .22-.2v-.08a.06.06 0 0 1 0-.06.06.06 0 0 0 0-.06.86.86 0 0 0 .12-.32v-.27a1.29 1.29 0 0 0 .22-.36c0-.13.11-.26.17-.39l.4-.12.1-.19v-.08a.24.24 0 0 1 0-.25l.15-.19a.44.44 0 0 0 .13-.29.17.17 0 0 1 .06-.12l.26-.17.26-.17.33-.14a2.41 2.41 0 0 1 .43-.19.73.73 0 0 0 .3-.38.73.73 0 0 1 .3-.39h.34c.1 0 .18 0 .26.19s.15.2.22.15a1 1 0 0 0 .47-.27c.11-.14.2-.11.27.09a.88.88 0 0 1 .12.48.62.62 0 0 0 0 .27.83.83 0 0 1 0 .3.28.28 0 0 1 0 .11.26.26 0 0 0 0 .11V8.47a.25.25 0 0 1 0 .11.26.26 0 0 0 0 .11.42.42 0 0 0 0 .19.26.26 0 0 1-.06.19.7.7 0 0 0 0 .23 1.19 1.19 0 0 1 0 .27 1.14 1.14 0 0 1 0 .34V10a1.33 1.33 0 0 1 0 .38c0 .13 0 .26-.06.39a1.49 1.49 0 0 1 0 .34 2.66 2.66 0 0 1-.08.35.31.31 0 0 0 0 .19.47.47 0 0 1 0 .23 1.27 1.27 0 0 1 0 .38v.34a.72.72 0 0 1 0 .23.34.34 0 0 0 .06.26.12.12 0 0 0-.06.12v.15a.22.22 0 0 0 .1.24.22.22 0 0 1 .1.24 1 1 0 0 0 0 .3.16.16 0 0 1 0 .09.08.08 0 0 0 0 .06.72.72 0 0 0 0 .15.34.34 0 0 0 0 .19v.11a.15.15 0 0 0 0 .12 3.13 3.13 0 0 0-.07.44 1.45 1.45 0 0 1 0 .4 1.8 1.8 0 0 0 0 .36 1.79 1.79 0 0 1 0 .36c0 .08-.09.18-.14.3a1.36 1.36 0 0 0-.1.33v.8a3.21 3.21 0 0 0 0 .62.45.45 0 0 1 0 .17.48.48 0 0 0 0 .17.78.78 0 0 0 0 .3v.3a2.54 2.54 0 0 0 0 .3v.3a2.17 2.17 0 0 1 0 .5 1.05 1.05 0 0 1 0 .21.18.18 0 0 0 .07.16.62.62 0 0 0 0 .29 1.14 1.14 0 0 1 0 .29c.06 0 .07.09 0 .13a.23.23 0 0 0 0 .14.75.75 0 0 0 0 .25.77.77 0 0 1 0 .25v.22a1.25 1.25 0 0 0 0 .39v.15a2.11 2.11 0 0 1 0 .5v.11a.25.25 0 0 1 .08.26 1.29 1.29 0 0 0-.07.27 2.06 2.06 0 0 1 0 .42v.08a.22.22 0 0 1 .09.1.31.31 0 0 1-.06.23.75.75 0 0 1-.35.26.52.52 0 0 0-.29.1.46.46 0 0 1-.25.1 1.59 1.59 0 0 0-.38.15 1.73 1.73 0 0 1-.34.14l-.25.14-.25.1h-.07a.37.37 0 0 1-.25.1.23.23 0 0 1-.16.09.38.38 0 0 0-.17.06c-.07.06-.11 0-.12 0a.24.24 0 0 0 0-.13.12.12 0 0 1 0-.13 1.34 1.34 0 0 0 0-.38v-.07a.87.87 0 0 1 .11-.45.83.83 0 0 0 .12-.41.62.62 0 0 1 0-.15.62.62 0 0 0 0-.16 1.4 1.4 0 0 1 .09-.31.21.21 0 0 0-.06-.26c-.08 0-.1-.09-.07-.14l.12-.16a.36.36 0 0 0-.18-.28.4.4 0 0 1-.18-.32.16.16 0 0 1 0-.12.05.05 0 0 0 0-.07.14.14 0 0 1 0-.2.7.7 0 0 0 0-.34.52.52 0 0 1 0-.3v-.15c0-.15-.14-.2-.31-.16l-.29.1-.29.1a1.78 1.78 0 0 1-.35.07 1.88 1.88 0 0 0-.35.07.61.61 0 0 1-.25.1h-.11a.13.13 0 0 0-.11 0l-.14.16a1.4 1.4 0 0 0-.09.31 3.14 3.14 0 0 1-.08.35.75.75 0 0 1-.17.28.17.17 0 0 1-.1.2s0 .06.06.07.14 0 .14.1a.16.16 0 0 1 0 .12l-.28.71a1 1 0 0 1-.29.35.69.69 0 0 0-.25.35.24.24 0 0 0-.06.17.24.24 0 0 1-.06.17 3.05 3.05 0 0 0-.1.31 3.25 3.25 0 0 1-.1.31.41.41 0 0 0-.12.27l-.1.12a.89.89 0 0 0-.13.24c0 .13-.1.2-.18.22L64 27a2 2 0 0 1-.41.08 1.09 1.09 0 0 0-.41.11 1.5 1.5 0 0 1-.41.07.22.22 0 0 0-.15 0h-.15a.33.33 0 0 1-.15 0 .51.51 0 0 1-.22.06 2 2 0 0 1-.44.12.44.44 0 0 1-.3 0c-.1 0-.13 0-.09-.14l.06-.17a.43.43 0 0 1 .06-.17l.1-.29c.03-.09.06-.19.1-.29a.15.15 0 0 1 0-.12v-.12s0-.08.05-.08 0 0 0-.08a.57.57 0 0 1 .23-.32 1.1 1.1 0 0 0 .28-.29.29.29 0 0 0 0-.17.47.47 0 0 1 0-.25.73.73 0 0 0 0-.16.75.75 0 0 1 0-.16.16.16 0 0 0 0-.19v-.23a1.29 1.29 0 0 0 .06-.17 1.12 1.12 0 0 1 .06-.17.22.22 0 0 0 .06-.16l.19-.36zM69 14.08a1.9 1.9 0 0 0-.09.27c0 .07-.13.17-.17.27v.2s-1 2.17-1 2.22a1 1 0 0 1-.08.16.37.37 0 0 0 0 .23.11.11 0 0 1 0 .08l-.15.26c-.06.09 0 .16 0 .26.11.09.11.14 0 .15a.34.34 0 0 0-.17.2c0 .08.31.16.29.23a.06.06 0 0 0 .06 0h.11a5.88 5.88 0 0 0 .62-.21c.07 0 .11 0 .1-.09a.39.39 0 0 1 0-.14.41.41 0 0 0 0-.13c0-.16.62-2.41.62-2.56a2.07 2.07 0 0 1 0-.42.62.62 0 0 1 0-.35v-.11a1.83 1.83 0 0 0 0-.41.44.44 0 0 0-.09-.17z" fill="#ff386c"/><path d="M80.18 9.84l-.53.14-.53.14-.31.11-.31.1a.76.76 0 0 1-.24.06 1.2 1.2 0 0 0-.28.06s-.1.06-.15.15a.53.53 0 0 1-.15.19.18.18 0 0 1-.21-.06c-.07-.07-.13-.09-.17-.06a1.33 1.33 0 0 1-.34.12 1.37 1.37 0 0 0-.34.12 1.73 1.73 0 0 1-.33.07 1.2 1.2 0 0 0-.3.06l-.37.1-.37.11-.29.1-.29.1a.4.4 0 0 1-.2 0h-.21a1.09 1.09 0 0 0 .17-.43 3.17 3.17 0 0 1 .09-.43.67.67 0 0 0 .06-.19.62.62 0 0 0 0-.34c-.06 0 0-.11 0-.19l.11-.22.11-.22a.31.31 0 0 0 0-.19v-.09c0-.11.08-.2.12-.3s.08-.19.12-.3a.66.66 0 0 1 .42-.3A3.31 3.31 0 0 1 76.2 8a.53.53 0 0 1 .18-.28.24.24 0 0 1 .18 0l.2.07a.24.24 0 0 0 .21 0c.3-.07.58-.16.86-.25l.86-.25a2.6 2.6 0 0 1 .52-.14 2.59 2.59 0 0 0 .52-.15 4 4 0 0 1 .49-.16l.5-.12.55-.18.55-.18.88-.3.42-.17.42-.13a.91.91 0 0 1 .33-.11.94.94 0 0 0 .33-.11l.8-.41a.1.1 0 0 1 .07 0 .17.17 0 0 0 0 .07.17.17 0 0 1 0 .07 1 1 0 0 1 0 .37A1.3 1.3 0 0 1 85 6a.46.46 0 0 0 0 .21 1.13 1.13 0 0 1 0 .28.28.28 0 0 0-.12.18.66.66 0 0 1 0 .17.16.16 0 0 0 0 .12.13.13 0 0 0 .07.14 1 1 0 0 0 .22.11l.22.09a.13.13 0 0 1 .07.17.32.32 0 0 0-.08.18.34.34 0 0 1-.08.18.69.69 0 0 0-.12.2 2 2 0 0 1-.11.23v.16a2.34 2.34 0 0 1-.22.36l-.25.37c.16.11.15.24 0 .36a1.15 1.15 0 0 0-.36.39l-.31.48-.31.48a.62.62 0 0 0-.12.39q0 .19-.38.45a1 1 0 0 1-.17.28 2.37 2.37 0 0 0-.2.28.89.89 0 0 1-.16.32l-.28.62a1.38 1.38 0 0 1-.16.3 1.42 1.42 0 0 0-.16.3l-.07.06a.22.22 0 0 0-.07.1l-.19.38-.19.38a1.43 1.43 0 0 1-.15.28 1.38 1.38 0 0 0-.15.28.89.89 0 0 0-.12.18.85.85 0 0 1-.12.18.38.38 0 0 1-.28.24.3.3 0 0 0-.24.23.89.89 0 0 0-.12.18.9.9 0 0 1-.12.18 2.52 2.52 0 0 0-.17.28q-.09.22-.18.43a2 2 0 0 1-.26.4.21.21 0 0 0-.07.12.49.49 0 0 1-.09.2l-.14.16a.07.07 0 0 0-.07.07 1.6 1.6 0 0 1-.13.24.33.33 0 0 0-.06.25.62.62 0 0 1 0 .25.06.06 0 0 1 0 .06.06.06 0 0 0 0 .06 4.1 4.1 0 0 0-.42.76.17.17 0 0 1-.09.1.17.17 0 0 0-.09.1l-.19.4-.19.4-.12.16-.12.16.07-.06c.07-.06.09 0 .07 0 .17-.07.2-.07.11 0a.33.33 0 0 0-.21.06 2 2 0 0 1 .4-.15 3 3 0 0 0 .44-.16.67.67 0 0 1 .22-.06 1.11 1.11 0 0 0 .26-.06h.07a1.71 1.71 0 0 1 .55-.2.53.53 0 0 1 .3-.2l.35-.09a.79.79 0 0 0 .4-.15 3.21 3.21 0 0 1 .56-.14c.17 0 .36 0 .56-.07a.15.15 0 0 0 .11 0 .15.15 0 0 1 .12 0s.09.09.13.2a.26.26 0 0 1 0 .25 1.77 1.77 0 0 1-.22.51.08.08 0 0 1 0 .06.08.08 0 0 0 0 .06 1.19 1.19 0 0 1-.1.5 3.35 3.35 0 0 1-.14.37 2.85 2.85 0 0 0-.13.37l-.12.32a3.5 3.5 0 0 0-.12.35.43.43 0 0 1-.06.12.45.45 0 0 0-.07.12c0 .1-.07.2-.1.29l-.1.29a.22.22 0 0 1-.18.13 1.1 1.1 0 0 1-.28.06 1.14 1.14 0 0 0-.28.06 1.4 1.4 0 0 0-.33.07l-.33.14-.44.19-.47.19-.62.22-.66.23a2 2 0 0 0-.62.32.65.65 0 0 1-.67.06 7 7 0 0 0-.71.25 6.85 6.85 0 0 1-.72.25l-.36.1L74 26a2.86 2.86 0 0 1-.44.16l-.44.12-.88.21c-.3.06-.62.14-.89.21a.21.21 0 0 1-.15 0 .15.15 0 0 1-.12 0v-.11a1.44 1.44 0 0 0 .11-.25 1.13 1.13 0 0 1 .07-.25 10.12 10.12 0 0 1 .46-1.24l.19-.42A3.45 3.45 0 0 0 72 24c0-.08 0-.12-.14-.12s-.17 0-.1-.09a1.24 1.24 0 0 0 .14-.2 1.23 1.23 0 0 1 .13-.2 6.87 6.87 0 0 1 .46-.8l.32-.52.31-.52.38-.62.38-.62a2 2 0 0 1 .45-.46 2 2 0 0 0 .45-.46 6.12 6.12 0 0 1 .33-.52c.11-.16.22-.34.33-.52a3.64 3.64 0 0 0 .39-.91 3.76 3.76 0 0 1 .39-.91.62.62 0 0 0 .06-.55.62.62 0 0 1 .06-.56 2.8 2.8 0 0 1 .68-.77 2.81 2.81 0 0 0 .7-.78c.11-.19.22-.37.34-.55l.35-.5a2.22 2.22 0 0 0 .11-.24.71.71 0 0 1 .12-.2 1 1 0 0 0 .16-.28l.4-.62a6.47 6.47 0 0 0 .36-.62l.31-.48.31-.52z" fill="#ff386c"/><path d="M90.53 8.92l-.53.14-.54.14-.31.11-.31.1a.77.77 0 0 1-.24.06 1.2 1.2 0 0 0-.28.06s-.1.06-.15.15a.51.51 0 0 1-.15.19.18.18 0 0 1-.21-.06c-.07-.07-.13-.09-.17-.06a1.35 1.35 0 0 1-.35.12 1.37 1.37 0 0 0-.35.12 1.79 1.79 0 0 1-.33.07 1.31 1.31 0 0 0-.3.06l-.36.11-.37.11-.29.1-.29.1a.4.4 0 0 1-.2 0h-.21a1.09 1.09 0 0 0 .17-.43 3.18 3.18 0 0 1 .09-.42.69.69 0 0 0 .06-.19.59.59 0 0 0 0-.34c-.06-.05 0-.11 0-.19l.09-.18.11-.22a.3.3 0 0 0 0-.19v-.14c0-.1.08-.2.12-.3s.09-.19.12-.29a.67.67 0 0 1 .43-.3 3.31 3.31 0 0 1 .73-.26.54.54 0 0 1 .18-.28.24.24 0 0 1 .19 0l.2.07a.23.23 0 0 0 .2 0l.86-.25.86-.24a2.59 2.59 0 0 1 .51-.14A2.47 2.47 0 0 0 90 6.1a4.47 4.47 0 0 1 .49-.16l.5-.12.55-.18.55-.18.93-.34.46-.12.42-.13a.94.94 0 0 1 .33-.11.93.93 0 0 0 .33-.11l.87-.42a.11.11 0 0 1 .07 0 .16.16 0 0 0 0 .07.17.17 0 0 1 0 .07 1 1 0 0 1 0 .37 1.27 1.27 0 0 1-.12.37.47.47 0 0 0 0 .21 1.23 1.23 0 0 1 0 .28.27.27 0 0 0-.12.18.7.7 0 0 1 0 .17.16.16 0 0 0 0 .12.14.14 0 0 0 .07.14 1.16 1.16 0 0 0 .22.11l.22.09a.13.13 0 0 1 .07.16.33.33 0 0 0-.08.18.34.34 0 0 1-.08.18.73.73 0 0 0-.11.2 2.28 2.28 0 0 1-.11.24v.16a2.38 2.38 0 0 1-.22.36l-.25.37c.16.11.15.23 0 .36a1.14 1.14 0 0 0-.36.39l-.31.48q-.15.24-.31.48a.62.62 0 0 0-.12.39c0 .13-.11.28-.38.45a1 1 0 0 1-.17.28 2.53 2.53 0 0 0-.2.28.89.89 0 0 1-.16.32l-.29.62a1.4 1.4 0 0 1-.16.3 1.3 1.3 0 0 0-.16.3l-.07.06a.21.21 0 0 0-.07.1l-.19.38-.19.38a1.44 1.44 0 0 1-.15.28 1.26 1.26 0 0 0-.14.28.91.91 0 0 0-.12.18.88.88 0 0 1-.12.18.39.39 0 0 1-.28.23.3.3 0 0 0-.24.23.88.88 0 0 0-.12.18.89.89 0 0 1-.12.18 2.87 2.87 0 0 0-.17.28q-.09.22-.19.43a2 2 0 0 1-.26.4c0 .06-.07.09-.06.12a.48.48 0 0 1-.1.2l-.14.16a.07.07 0 0 0-.07.07 1.54 1.54 0 0 1-.13.24.34.34 0 0 0-.06.25.62.62 0 0 1 0 .25.06.06 0 0 1 0 .06.06.06 0 0 0 0 .06 4.08 4.08 0 0 0-.43.76.17.17 0 0 1-.09.1.17.17 0 0 0-.09.1l-.19.4-.19.4-.12.16-.12.16.07-.06c.07-.06.1 0 .07 0 .17-.06.21-.07.11 0a.33.33 0 0 0-.17.15 2 2 0 0 1 .4-.15 3 3 0 0 0 .44-.16.68.68 0 0 1 .22-.06 1.06 1.06 0 0 0 .26-.06h.07a1.7 1.7 0 0 1 .55-.2.54.54 0 0 1 .3-.2l.35-.09a.79.79 0 0 0 .4-.15 3.46 3.46 0 0 1 .55-.14c.17 0 .36 0 .56-.07a.15.15 0 0 0 .11 0 .15.15 0 0 1 .12 0s.09.09.13.2a.26.26 0 0 1 0 .25 1.8 1.8 0 0 1-.22.51.08.08 0 0 1 0 .06.08.08 0 0 0 0 .06 1.19 1.19 0 0 1-.1.5 3.18 3.18 0 0 1-.14.37 3.11 3.11 0 0 0-.13.37l-.12.32a3.5 3.5 0 0 0-.12.35.45.45 0 0 1-.06.12.43.43 0 0 0-.07.12c0 .11-.07.2-.1.29l-.1.29a.22.22 0 0 1-.18.13 1.16 1.16 0 0 1-.28.06 1.09 1.09 0 0 0-.28.06 1.4 1.4 0 0 0-.33.07 2.43 2.43 0 0 0-.33.14l-.44.19-.47.19-.62.22-.66.23a2 2 0 0 0-.62.32.65.65 0 0 1-.67.06 6.85 6.85 0 0 0-.72.25 6.86 6.86 0 0 1-.71.25l-.36.11-.36.11a2.86 2.86 0 0 1-.44.16l-.44.12-.88.21-.89.21a.22.22 0 0 1-.15 0 .15.15 0 0 1-.12 0v-.11a1.64 1.64 0 0 0 .11-.25 1.13 1.13 0 0 1 .07-.25A10.05 10.05 0 0 1 82 24c.06-.13.13-.27.19-.42a3.48 3.48 0 0 0 .15-.41c0-.08 0-.12-.14-.12s-.17 0-.1-.09a1.23 1.23 0 0 0 .13-.2 1.17 1.17 0 0 1 .13-.2 6.79 6.79 0 0 1 .46-.8l.31-.52.31-.52.38-.62.38-.62a2.07 2.07 0 0 1 .45-.46 2 2 0 0 0 .45-.46c.11-.19.22-.36.33-.52a5.49 5.49 0 0 0 .33-.52 3.66 3.66 0 0 0 .39-.91 3.72 3.72 0 0 1 .39-.91.62.62 0 0 0 .06-.55.62.62 0 0 1 .06-.55 2.83 2.83 0 0 1 .7-.78 2.81 2.81 0 0 0 .7-.78q.16-.28.35-.55l.35-.5a2.28 2.28 0 0 0 .11-.23.71.71 0 0 1 .11-.2l.1-.14.06-.14.39-.62a6.47 6.47 0 0 0 .36-.62c.11-.16.22-.32.31-.48l.37-.56v-.13zm13.89-5.52a.1.1 0 0 1 .09 0 .1.1 0 0 1 0 .09.43.43 0 0 0 0 .19 2 2 0 0 0-.09.27v.27a4.72 4.72 0 0 1-.13.79q-.11.39-.17.79a.42.42 0 0 0 0 .19.44.44 0 0 1 0 .19.24.24 0 0 1-.13.24 1 1 0 0 0-.22.13 1.44 1.44 0 0 1-.51.24.56.56 0 0 1-.22.11l-.18.07a2.94 2.94 0 0 1-.42.15 1.89 1.89 0 0 0-.38.15 3 3 0 0 1-.44.15 2 2 0 0 0-.4.15l-.33.1-.33.14a.72.72 0 0 1-.22.06.7.7 0 0 0-.22.06.15.15 0 0 0-.12.07 1.31 1.31 0 0 0-.25.12 1.32 1.32 0 0 1-.25.12c-.12 0-.16.05-.1.12a.25.25 0 0 1 0 .26.13.13 0 0 0 0 .1.13.13 0 0 1 0 .1v.22a.37.37 0 0 0-.13.22 1 1 0 0 1-.06.25 1.47 1.47 0 0 0-.12.35 3.33 3.33 0 0 0-.09.33 2.78 2.78 0 0 1 0 .33 1 1 0 0 1 0 .33 1.62 1.62 0 0 1-.09.29l-.09.24a1.41 1.41 0 0 0-.06.35 1.4 1.4 0 0 1-.06.35l-.09.23v.11h.08l.49-.2.49-.2.38-.17.38-.17a.38.38 0 0 1 .17-.06.37.37 0 0 0 .17-.05c.1 0 .14 0 .12.14a4.34 4.34 0 0 1 0 .44 3.39 3.39 0 0 1-.07.44 1.65 1.65 0 0 1-.06.39 3.86 3.86 0 0 0-.06.39c0 .13-.07.27-.11.43a1.5 1.5 0 0 0 0 .5.37.37 0 0 1-.24.36 5.82 5.82 0 0 0-.54.29 6 6 0 0 1-.54.3 2.44 2.44 0 0 1-.44.19l-.38.19a2.5 2.5 0 0 1-.38.15.34.34 0 0 0-.2.25.35.35 0 0 0 0 .32.36.36 0 0 1 0 .32.72.72 0 0 1-.06.21 1.1 1.1 0 0 1-.06.17 2.49 2.49 0 0 1-.17.42 2.23 2.23 0 0 0-.17.41 1.41 1.41 0 0 0-.06.4 1.45 1.45 0 0 1-.06.4q-.06.25-.14.5v.61a.33.33 0 0 1 .15 0 .34.34 0 0 0 .15 0l.24-.08.24-.08.75-.27c.23-.08.48-.16.75-.24a2 2 0 0 1 .4-.15 1.91 1.91 0 0 0 .4-.15 2.08 2.08 0 0 0 .49-.24 4.07 4.07 0 0 1 .49-.27 1.23 1.23 0 0 1 .29-.1.21.21 0 0 1 .15.06v.11c0 .18-.06.36-.09.54s0 .36-.09.53 0 .19 0 .27a2.2 2.2 0 0 0 0 .27 5.62 5.62 0 0 1-.15.58c-.07.24-.12.43-.15.58s-.14.35-.31.37a1.06 1.06 0 0 0-.27.14l-.27.17-.54.31a2 2 0 0 1-.55.2.1.1 0 0 0-.07 0l-.62.23a5.6 5.6 0 0 0-.62.27c-.19.1-.38.14-.57.22l-.56.22-.4.15-.76.3h-.18l-.4.15a.93.93 0 0 1-.29.12l-.3.08a3.42 3.42 0 0 1-.4.17 3.28 3.28 0 0 0-.4.17.57.57 0 0 1-.23.12.61.61 0 0 0-.24.12h-.39c-.18 0-.23-.08-.17-.25a1.52 1.52 0 0 1 .14-.5 2.2 2.2 0 0 0 0-.42.18.18 0 0 0 .07-.2.21.21 0 0 1 0-.19.29.29 0 0 1 0-.26.48.48 0 0 0 0-.23.33.33 0 0 1 0-.16l.06-.16a1.29 1.29 0 0 1 0-.28v-.29a2 2 0 0 0 .08-.39 2.16 2.16 0 0 1 .08-.38.89.89 0 0 1 0-.35 3 3 0 0 1 .08-.35.82.82 0 0 0 0-.45.8.8 0 0 1 0-.45l.14-.92c0-.18.06-.35.09-.52a2.76 2.76 0 0 1 .09-.52 2.67 2.67 0 0 1 .24-.7 2.44 2.44 0 0 0 .24-.74l.15-.81a.15.15 0 0 1 0-.12.16.16 0 0 0 0-.12.49.49 0 0 0-.06-.39.49.49 0 0 1-.06-.39c0-.16.07-.31.09-.44a3.46 3.46 0 0 1 .09-.41l.25-1a2.42 2.42 0 0 0 .1-.54l.17-.69a1.42 1.42 0 0 0 .07-.33.93.93 0 0 1 .07-.29l.2-.32.17-.24a.1.1 0 0 0 .07 0l.1-.12.65-.44.16-.11a.16.16 0 0 0 .11-.19h.22-.19a.25.25 0 0 0-.18.09h-.11a.13.13 0 0 0-.11 0h-.48V9a.76.76 0 0 1 .22-.34.85.85 0 0 0 .22-.3 1.31 1.31 0 0 0 .07-.67A1.31 1.31 0 0 1 96 7l.19-.45a1.71 1.71 0 0 1 .26-.42.08.08 0 0 1 .03-.13s.06 0 .1-.09 0 0 0-.06v-.06V6a.9.9 0 0 1 .15-.43.33.33 0 0 1 .23-.1 1.31 1.31 0 0 0 .31-.07 1.08 1.08 0 0 0 .41-.06 1.35 1.35 0 0 0 .4-.13 2.29 2.29 0 0 1 .57-.32 7.1 7.1 0 0 1 .76-.26.32.32 0 0 1 .38 0 1.33 1.33 0 0 0 .37-.07 5.89 5.89 0 0 1 1.42-.47l.25-.1.25-.1.46-.12a2.72 2.72 0 0 0 .46-.16l.27-.1.27-.1a1.25 1.25 0 0 1 .3-.06 1.12 1.12 0 0 0 .3-.06.11.11 0 0 1 .15 0zm-.54 1.6l.07-.06.07-.06h-.27l.14.21zm5.29-1.86c.08.07.1.13.06.19a1.87 1.87 0 0 1-.07.29 1.87 1.87 0 0 0-.07.29 2.4 2.4 0 0 1-.07.48l-.11.45v.76a1.92 1.92 0 0 1-.11.43 1.23 1.23 0 0 1 0 .35.16.16 0 0 1 0 .12 1.44 1.44 0 0 0-.11.43.46.46 0 0 1 0 .17 1 1 0 0 1-.06.21.67.67 0 0 0 0 .31.9.9 0 0 0-.07.31 1 1 0 0 1-.07.31.93.93 0 0 0-.07.31.93.93 0 0 1-.07.31 2.19 2.19 0 0 0-.08.39 2.41 2.41 0 0 1-.08.39 1 1 0 0 1-.08.25 2 2 0 0 0-.07.29 2.17 2.17 0 0 1-.06.35 2.27 2.27 0 0 0-.06.35.87.87 0 0 0 0 .51.62.62 0 0 1 0 .47 1.29 1.29 0 0 0-.12.35 2.7 2.7 0 0 1-.08.35.77.77 0 0 1-.06.21l-.06.21a1 1 0 0 0-.07.31.91.91 0 0 1-.07.31.91.91 0 0 1 0 .35 3 3 0 0 1-.08.35 1.88 1.88 0 0 0-.11.24.58.58 0 0 0 0 .27.4.4 0 0 1-.17.37.68.68 0 0 0-.25.35c-.06.15-.12.29-.19.43a4.05 4.05 0 0 1-.07.5l-.08.35a.91.91 0 0 1 0 .35 1.24 1.24 0 0 0 0 .35 1.29 1.29 0 0 1-.1.31l-.1.35v.15a3.51 3.51 0 0 0-.14.58.11.11 0 0 0 0 .12.37.37 0 0 1 .17 0 .37.37 0 0 0 .17-.06 6.06 6.06 0 0 1 .88-.3l.36-.13a1.27 1.27 0 0 1 .37-.09 3.2 3.2 0 0 0 .62-.24.12.12 0 0 1 .13 0 .12.12 0 0 0 .13 0 1.69 1.69 0 0 0 .5-.12l.46-.19c.07-.06.12 0 .15 0 .1 0 .15 0 .16.1a1.85 1.85 0 0 1 0 .19 1.61 1.61 0 0 1 0 .57.17.17 0 0 0 0 .13.17.17 0 0 1 0 .14v.51a3 3 0 0 1-.07.48 1.24 1.24 0 0 0 0 .29.82.82 0 0 1 0 .25.27.27 0 0 1-.2.32.34.34 0 0 0-.17.2.07.07 0 0 1-.06.08.25.25 0 0 1-.3 0 .25.25 0 0 0-.3 0 .22.22 0 0 0-.14.09l-.35.11-.35.1a1.38 1.38 0 0 0-.41.28 1.37 1.37 0 0 1-.41.28h-.48a1.32 1.32 0 0 1-.33.12 1.47 1.47 0 0 0-.33.12.71.71 0 0 0-.21.16.17.17 0 0 1-.22 0 .43.43 0 0 0-.52 0 1.49 1.49 0 0 1-.46.29 1.36 1.36 0 0 1-.35.12 1.37 1.37 0 0 0-.35.12L104 23l-.12.07-.27.1-.31.14-.46.17-.49.17-.44.17a3.67 3.67 0 0 1-.44.14.23.23 0 0 1-.19 0l-.19-.06c-.11 0-.14-.12-.1-.25a2.19 2.19 0 0 0 .08-.37 2.25 2.25 0 0 1 .08-.36l-.07-.63a2.09 2.09 0 0 1 .14-.5 1.44 1.44 0 0 0 0-.25 1.58 1.58 0 0 1 0-.25 1.28 1.28 0 0 0 0-.39c0-.1.11-.19.28-.25a1.73 1.73 0 0 0 .28-.16l.33-.16a3 3 0 0 1 .15-.92c0-.18.06-.36.09-.54s0-.36.09-.54v-.07c.07 0 .11 0 .1-.09a.62.62 0 0 0 0-.27.08.08 0 0 1 0-.06.15.15 0 0 0 0-.09s0-.07-.11-.12-.14-.09-.14-.12.07-.33.1-.54a.28.28 0 0 0 0-.12.31.31 0 0 1 0-.12 1.16 1.16 0 0 0 0-.35 1.11 1.11 0 0 1 .28-.62 1.37 1.37 0 0 0 .32-.65v-.14a.8.8 0 0 1 0-.14l.88-3c0-.13.07-.26.1-.39s.06-.26.1-.39l.11-.47c0-.15.07-.3.11-.43l.12-.41c0-.14.07-.28.12-.41a1 1 0 0 0 .07-.29.94.94 0 0 1 .07-.29q.06-.19.1-.37a1.47 1.47 0 0 1 .1-.37c0-.13 0-.2-.12-.29s-.16-.17-.12-.26a.34.34 0 0 1 0-.16l.06-.16A.37.37 0 0 0 105 7a.39.39 0 0 1 0-.17.85.85 0 0 1 .12-.32l.08-.35a1.41 1.41 0 0 0 .12-.35.33.33 0 0 0 0-.16l.09-.24c0-.13.07-.26.1-.38s.06-.26.1-.39l.12-.39.12-.39c0-.18.12-.28.28-.29h.49v-.09a.18.18 0 0 1 .19-.06h.07a.15.15 0 0 1 .11 0l.33-.09h.33a1.15 1.15 0 0 1 .33-.07.52.52 0 0 1 .22-.06h.11a.84.84 0 0 0 .41-.07.25.25 0 0 1 .49 0zm9.49-.87c.08.07.1.13.06.19a1.87 1.87 0 0 1-.07.29 1.87 1.87 0 0 0-.07.29 2.37 2.37 0 0 1-.07.48l-.11.45a3.63 3.63 0 0 0 0 .38v.38a1.9 1.9 0 0 1-.11.43 1.2 1.2 0 0 1 0 .35.16.16 0 0 1 0 .12 1.47 1.47 0 0 0-.11.43.51.51 0 0 1 0 .17 1 1 0 0 1-.06.21.69.69 0 0 0 0 .31.93.93 0 0 0-.12.25 1 1 0 0 1-.07.31.92.92 0 0 0-.07.31 1 1 0 0 1-.07.31 2.17 2.17 0 0 0-.08.39 2.18 2.18 0 0 1-.08.38.93.93 0 0 1-.07.25 1.87 1.87 0 0 0-.07.29 2.2 2.2 0 0 1-.06.35 2.15 2.15 0 0 0-.06.35.88.88 0 0 0 0 .51.62.62 0 0 1 0 .47 1.23 1.23 0 0 0-.12.35 3.17 3.17 0 0 1-.08.35.75.75 0 0 1-.06.21l-.06.21a.93.93 0 0 0-.07.31.94.94 0 0 1-.07.31.9.9 0 0 1 0 .35 2.92 2.92 0 0 1-.08.35 2.08 2.08 0 0 0-.11.23.62.62 0 0 0 0 .27.4.4 0 0 1-.17.37.69.69 0 0 0-.25.35 4.57 4.57 0 0 1-.18.43 4 4 0 0 1-.07.5l-.08.35a.88.88 0 0 1 0 .35 1.25 1.25 0 0 0 0 .35c0 .1-.07.2-.11.31l-.1.35v.15a3.63 3.63 0 0 0-.14.58v.12a.37.37 0 0 1 .17 0 .38.38 0 0 0 .17-.06 6 6 0 0 1 .88-.3l.36-.12a1.28 1.28 0 0 1 .37-.09 3.17 3.17 0 0 0 .62-.24.12.12 0 0 1 .13 0 .12.12 0 0 0 .13 0 1.7 1.7 0 0 0 .5-.12l.46-.19c.07-.06.12 0 .15 0 .1 0 .15 0 .16.1v.19a1.61 1.61 0 0 1 0 .57.17.17 0 0 0 0 .13.18.18 0 0 1 0 .14v.51a3.08 3.08 0 0 1-.07.48 1 1 0 0 0 0 .28.79.79 0 0 1 0 .25.27.27 0 0 1-.2.32.34.34 0 0 0-.17.2.07.07 0 0 1-.06.08.25.25 0 0 1-.3 0 .25.25 0 0 0-.3 0 .22.22 0 0 0-.14.09l-.35.1-.35.11a1.37 1.37 0 0 0-.41.28 1.35 1.35 0 0 1-.41.28h-.48a1.35 1.35 0 0 1-.33.12 1.44 1.44 0 0 0-.33.12.72.72 0 0 0-.21.15.17.17 0 0 1-.22 0 .43.43 0 0 0-.52 0 1.46 1.46 0 0 1-.46.28 1.39 1.39 0 0 1-.41.27 1.33 1.33 0 0 0-.35.12l-.12.07-.12.07-.27.1-.31.14-.46.17-.49.17-.44.17-.44.14a.23.23 0 0 1-.19 0l-.19-.06c-.1 0-.14-.12-.1-.25a2.2 2.2 0 0 0 .08-.37 2.19 2.19 0 0 1 .08-.37l.17-.58A2 2 0 0 1 111 21a1.61 1.61 0 0 0 0-.25 1.29 1.29 0 0 1 0-.25 1.28 1.28 0 0 0 0-.39c0-.1.11-.19.28-.25l.29-.16.33-.16a3 3 0 0 1 .14-.92q0-.27.09-.54a2.73 2.73 0 0 1 .09-.54v-.07c.07 0 .11 0 .11-.09a.62.62 0 0 0 0-.27.08.08 0 0 1 0-.06V17s0-.07-.11-.12-.14-.09-.14-.12.07-.33.11-.54a.29.29 0 0 0 0-.12.31.31 0 0 1 0-.12 1.27 1.27 0 0 0 0-.35 1.12 1.12 0 0 1 .28-.62 1.36 1.36 0 0 0 .32-.65v-.14a.83.83 0 0 1 0-.14l.83-3c0-.13.07-.26.1-.39a2.86 2.86 0 0 1 .1-.38l.11-.47c0-.15.07-.3.11-.43l.12-.41c0-.14.07-.28.11-.41a.92.92 0 0 0 .07-.29.94.94 0 0 1 .07-.29c0-.13.07-.25.1-.37s.06-.24.1-.37 0-.2-.12-.29-.16-.17-.12-.26a.34.34 0 0 1 0-.16l.06-.16a.4.4 0 0 0 0-.17.37.37 0 0 1 0-.17.82.82 0 0 1 .12-.32l.08-.35A1.41 1.41 0 0 0 115 5a.32.32 0 0 0 0-.16l.09-.24c0-.13.07-.26.1-.38a3.3 3.3 0 0 1 .1-.39l.12-.39.12-.39a.32.32 0 0 1 .28-.29h.49v-.11a.19.19 0 0 1 .18-.06.05.05 0 0 0 .07 0 .15.15 0 0 1 .11 0l.33-.09h.33a1.15 1.15 0 0 1 .33-.07.52.52 0 0 1 .22-.06h.13a.84.84 0 0 0 .41-.07.22.22 0 0 1 .28 0zM131.12 1a.1.1 0 0 1 .09 0 .1.1 0 0 1 0 .09.42.42 0 0 0 0 .19 1.9 1.9 0 0 0-.09.27c0 .08 0 .17-.05.27a4.64 4.64 0 0 1-.14.79q-.11.39-.17.79a.42.42 0 0 0 0 .19.42.42 0 0 1 0 .19.24.24 0 0 1-.13.24.94.94 0 0 0-.22.13 1.47 1.47 0 0 1-.5.24.57.57 0 0 1-.22.12.68.68 0 0 0-.18.07 3.07 3.07 0 0 1-.42.15 2 2 0 0 0-.38.15 2.85 2.85 0 0 1-.44.16 2 2 0 0 0-.4.15l-.33.11-.33.14a.71.71 0 0 1-.22.06.73.73 0 0 0-.22.06.15.15 0 0 0-.11.05 1.23 1.23 0 0 0-.25.12 1.32 1.32 0 0 1-.25.12c-.12 0-.16.05-.11.12a.25.25 0 0 1 0 .26.13.13 0 0 0 0 .1.13.13 0 0 1 0 .1v.22a.37.37 0 0 0-.13.22 1 1 0 0 1-.06.25 1.47 1.47 0 0 0-.17.32 3.31 3.31 0 0 0-.09.33 2.77 2.77 0 0 1 0 .33 1 1 0 0 1-.05.33 1.58 1.58 0 0 1-.09.29l-.09.23a1.37 1.37 0 0 0-.06.35 1.44 1.44 0 0 1-.06.35l-.13.27V10h.08l.49-.19.49-.19a3.32 3.32 0 0 1 .38-.17l.4-.18a.39.39 0 0 1 .17-.06.37.37 0 0 0 .17-.05c.1 0 .14 0 .12.14a4.36 4.36 0 0 1 0 .44 3.23 3.23 0 0 1-.07.44 2.06 2.06 0 0 1-.06.39 3.69 3.69 0 0 0-.06.39c0 .13-.07.27-.11.43a1.54 1.54 0 0 0 0 .5.37.37 0 0 1-.23.36 5.54 5.54 0 0 0-.54.29 6 6 0 0 1-.54.29 2.33 2.33 0 0 1-.44.19l-.38.19a2.39 2.39 0 0 1-.38.15.34.34 0 0 0-.2.25.36.36 0 0 0 0 .32.35.35 0 0 1 0 .32.77.77 0 0 1-.06.21 1.18 1.18 0 0 1-.06.17 2.33 2.33 0 0 1-.17.41 2.42 2.42 0 0 0-.17.41 1.37 1.37 0 0 0-.06.4 1.42 1.42 0 0 1-.06.4q-.06.25-.14.5l-.05.31v.3a.32.32 0 0 1 .15 0 .34.34 0 0 0 .17 0l.24-.08.24-.08.76-.27q.35-.12.75-.24a2 2 0 0 1 .4-.15 1.85 1.85 0 0 0 .4-.15 2.21 2.21 0 0 0 .49-.24 3.75 3.75 0 0 1 .49-.27 1.23 1.23 0 0 1 .29-.1.22.22 0 0 1 .15.06V16c0 .18-.06.36-.09.54s-.05.36-.09.54 0 .19-.05.27a2.63 2.63 0 0 0 0 .27c0 .1-.09.35-.15.58s-.12.43-.15.58-.13.35-.31.37a1.17 1.17 0 0 0-.24.11l-.26.17-.54.32a2 2 0 0 1-.55.2.11.11 0 0 0-.07 0l-.62.22-.62.26-.57.22-.56.22-.4.15-.76.3h-.18l-.4.15a.93.93 0 0 1-.29.12l-.3.08a3.1 3.1 0 0 1-.4.17 3.16 3.16 0 0 0-.4.17.58.58 0 0 1-.23.12.57.57 0 0 0-.24.12h-.07c-.17 0-.23-.08-.17-.25a1.47 1.47 0 0 1 .14-.5 2.21 2.21 0 0 0 0-.42.18.18 0 0 0 .07-.2.21.21 0 0 1 0-.19.29.29 0 0 1 0-.26.49.49 0 0 0 0-.23.33.33 0 0 1 0-.16l.06-.16a1.33 1.33 0 0 1 .05-.28v-.29a2.18 2.18 0 0 0 .08-.38 2.11 2.11 0 0 1 .08-.39.9.9 0 0 1 0-.35 2.63 2.63 0 0 1 .08-.35.82.82 0 0 0 0-.45.8.8 0 0 1 0-.45l.14-.92c0-.18.06-.35.09-.52s.05-.34.09-.52a2.58 2.58 0 0 1 .24-.7 2.5 2.5 0 0 0 .23-.74l.15-.81a.15.15 0 0 1 0-.12.16.16 0 0 0 0-.12.49.49 0 0 0-.06-.39.49.49 0 0 1-.06-.39c0-.16.07-.31.09-.44a3.65 3.65 0 0 1 .1-.41l.25-1a2.47 2.47 0 0 0 .11-.54l.17-.69a1.48 1.48 0 0 0 .07-.33.91.91 0 0 1 .07-.29l.2-.32a2.06 2.06 0 0 1 .17-.24.11.11 0 0 0 .07 0l.1-.12.36-.22.16-.11a.16.16 0 0 0 .08-.14h.11l.11-.05H123a.25.25 0 0 0-.18.09h-.7v-.28a.76.76 0 0 1 .22-.34.86.86 0 0 0 .22-.3 1.32 1.32 0 0 0 .12-.48 1.3 1.3 0 0 1 .07-.67l.18-.45a1.82 1.82 0 0 1 .26-.42.08.08 0 0 1 .07-.08s.06 0 .11-.09 0-.05 0-.06v-.06a.88.88 0 0 1 .15-.43.33.33 0 0 1 .23-.1 1.29 1.29 0 0 0 .31-.07 1.08 1.08 0 0 0 .41-.06 1.39 1.39 0 0 0 .4-.13 2.29 2.29 0 0 1 .57-.32 7.16 7.16 0 0 1 .76-.26.32.32 0 0 1 .38 0 1.27 1.27 0 0 0 .37-.07 5.92 5.92 0 0 1 1.42-.46l.25-.1.25-.1.46-.12a2.88 2.88 0 0 0 .46-.15l.27-.1.27-.1a1.26 1.26 0 0 1 .3-.06A1.31 1.31 0 0 0 131 1a.11.11 0 0 1 .1 0zm-.54 1.6l.07-.06.07-.06h-.28l.14.21z" fill="#ff386c"/></svg>