<svg xmlns="http://www.w3.org/2000/svg" width="627.5" height="557.54" viewBox="0 0 627.5 557.54"><title>order</title><path d="M254.85 335c0 .83.74.78 1.38.83-.4-.42-.27-1.29-1-1.3-.16-.01-.39.33-.38.47zm191.41 10.12c.11-.12.34-.27.32-.39 0-.27-.14-.65-.33-.75s-.16.22-.21.36-.18.55.22.78z" fill="#ff386c"/><path d="M549.6 387a15 15 0 0 1-2.6-1.71c-2.24-2.25-4.93-4.09-8.07-4.36-3.47-.3-6.74-1.51-10.18-1.87-.44 0-1.85.12-1.59-1.06.78-3.47-1.33-6.25-2.08-9.34a26 26 0 0 0-2.41-6.9 100.67 100.67 0 0 0-16.07-20.93c-3.32-3.32-5.43-7.82-9.83-10.08a1.15 1.15 0 0 1-.47-.5c-1.94-4-5.39-6.52-9-8.82-2.42-1.51-4.78-3.11-7.12-4.73-.36-.25-1.45-.66-.48-1.31 1.42-1 1.66-2.68 2.75-3.86 3.21-3.56 3.51-8.05 3.32-12.39-.19-4.8-.71-9.6-1.18-14.39-.17-1.75.42-3.69-.73-5.27-1.66-2.35-1.36-5.76-4-7.6-.17-.12-.06-.6-.16-.88-.89-2.49-1.29-5.45-3.23-7.16-2.77-2.45-4.15-5.78-6.26-8.58-1-1.35-1.78-3-3.1-4.16a9.08 9.08 0 0 1-3-5 2.64 2.64 0 0 0-.61-1.2 116.82 116.82 0 0 1-9.64-11.55c-.37-.55-.53-1.22-1.2-1.66-3.11-1.92-5.52-4.66-8.14-7.16-1.66-1.57-2.84-3.58-5.12-4.68a22.65 22.65 0 0 1-4.41-2.49 56.67 56.67 0 0 0-8.73-5.93c-2.12-1.12-4.59-1.66-6.39-3.19a62.15 62.15 0 0 0-15.55-10.09 40.45 40.45 0 0 1-8.59-4.73 41.43 41.43 0 0 0-9.83-5.37c-2.68-1.11-1.15-1.72-.34-2.29 5.17-3.66 5.57-10.09 8.79-14.88.15-.22.06-.6.09-.9.27-2.58.44-5.18.83-7.73a8.25 8.25 0 0 0-.46-3.76c-.55-2-2.17-3.91-1-6.21.29-.57-.31-1-.45-1.45-.73-2.58-2.54-4.54-3.87-6.76a16.62 16.62 0 0 0-5-5.27c-1-.66-2.35-.83-3.12-1.73-2.67-3.21-6.65-3.89-10.17-5.53-3-1.4-6.31-.36-9.44-1a24.08 24.08 0 0 0-8.31-.08c-4.23.63-8.16 2.56-12.56 2.6a8.69 8.69 0 0 0-4.05 1.66c-1.66 1.08-3.13 2.33-4.71 3.46-2.21 1.57-4.84 2.34-6.87 4.33-1.86 1.83-4.24 3.27-7.05 1.15-.83-.61-1.25-1.82-2.14-2-5-.93-9.3-3.59-14.17-4.82-2.28-.57-4.58-1.15-6.89-1.66-5.07-1-9.8-3-15.43-2-3.85.69-7.59 1.25-11.21 2.81-3.26 1.41-4.47 4.16-3.45 7.54 1.2 4 4.62 6.28 6.9 9.45s5.43 5.08 8 7.73c.38.39 1.17.74.83 1.47s-1 .65-1.61.66c-2.32.07-4.63.21-6.94.17-2.77 0-5.56.24-8.31-.47a4.84 4.84 0 0 0-1.77.07c-2.62.37-5.25.65-7.83 1.17-3.64.74-7.38.43-11 1.29-1.22.29-2.36 1.45-3.37 1.14-2.93-.89-5.68.26-8.5.42a158.1 158.1 0 0 0-18.39 2.56 71 71 0 0 0-12.16 3c-5.81 2.1-11.2 5.21-17.11 7-2.92.89-5.14 3.32-8.31 3.66-5.87.64-9.39 5.48-14.21 8-2.88 1.48-4.54 4.36-7.33 5.87a17.32 17.32 0 0 0-2.31 2c-2.17 1.7-3.32 4.29-5.41 6-3.58 2.89-6.35 6.56-9.64 9.72-4 3.82-6.15 9-8.41 13.89-1.38 3-1.79 6.33-3 9.45-1.93 5-2.08 10.39-1.88 15.79.07 1.66.83 2.88 1.15 4.34 1 4.78 3.27 8.86 7.59 11.55 1.28.83 2.42 1.81 3.93 3-5.74 1-8.26 6-12.46 8.57-2.15 1.32-1.4 4.16-2.21 6.18-1.47 3.66-1.15 7.36-1.3 11.07A6.79 6.79 0 0 0 120 301c1.45 3.71 5.08 5.82 9.39 6.13 2.62.17 5.14-.83 8.36-.47-3.16 2.08-5.35 4.5-8.85 5.14-5.44 1-10 4.4-15.43 5.67-4.63 1.09-9.51.78-13.95 2.75a.29.29 0 0 1-.22 0c-2-1.3-4.28-.17-6.34-.52-5-.83-10 .33-15-.53-4.4-.78-9-.83-13.07-3.12a50.21 50.21 0 0 0-9.27-3.59 16.77 16.77 0 0 1-11.57-11 49.48 49.48 0 0 0-4.71-9 7.48 7.48 0 0 1-1-2.72c-1-5.82-1.2-11.77-2.6-17.53-.43-1.77.23-2.57 1.86-2.91 2.49-.52 5.06-1 7.58-1.6a80.13 80.13 0 0 0 9.54-2.31c1.85-.66 4-.83 5.46-2.65a11.41 11.41 0 0 0 2.77-7.06c.13-3.39-2.77-7.65-6.17-8-.59-.06-1.38.23-1.51-.6-.09-.61.49-1 .93-1.48a56.86 56.86 0 0 0 4.24-4.24c2.43-3 5.06-5.94 5.62-10.12.47-3.51 1.51-6.87.2-10.46-1-2.74-2-5.2-5.33-5.73-.9-.14-1.59-.88-2.71-.53-.77.23-1.5-.44-1-1.45a8 8 0 0 0 .52-5.58c-1.13-4.8-2.3-9.61-7.41-11.93S40 192.14 35.64 197.2a1.52 1.52 0 0 1-2.23.31c-1.09-.67-2.41-1.73-3.41-1.51-3.47.66-7.27 1.36-9.31 4.56-1.38 2.18-3.43 3.83-4.45 6.21-.27.65-.56.48-1 .37-6-1.32-12.46 2.38-13.62 8.45-.86 3.91-2.62 7.85-.84 12.16 1.29 3.07 2 6.37 5.18 8.11 1.31.71 1.55 1.61.83 2.82a4.58 4.58 0 0 0-.24 4.06 19.33 19.33 0 0 0 5.13 7.7 12.55 12.55 0 0 1-2.13.66c-4.7.52-8.23 4.6-7.56 9.07A8.14 8.14 0 0 0 5 265c3.66 3.14 7.55 5.63 12.64 5.4 1.38-.07 2.77 0 4.15 0 1.21 0 1.84.52 1.47 1.66-.51 1.52 0 3-.27 4.53-.94 6.11.39 12 1.94 17.78a17.69 17.69 0 0 0 .83 2.1c.83 2.14 2.49 3.89 2.8 6.36s.65 4.89 3 6.38a9.07 9.07 0 0 1 1.74 1.69 43.74 43.74 0 0 0 5.7 5.77c2.49 1.87 4.53 4.26 7.19 5.75 1.83 1 3 3 5.38 3.27s4.67 1.79 7.22 2c1.79.18 2.58 2.1 4.22 2.64 3.63 1.19 7.48.89 11.18 1.58.9.16 1.59.77 2.49.71 4.91-.27 9.83.66 14.64.5 5.81-.2 10.72 2.49 16.11 3.43 1.84.32 3.07 2.11 5 1.89a8.5 8.5 0 0 1 4.51 1.13c1.66.73 1 1.18.3 2a17.07 17.07 0 0 0-3.48 7.27c-1.14 5.05.09 7.84 4.83 10.11 2.7 1.29 5.81 2.09 4.15 6.22a.92.92 0 0 0 0 .46c.48 3.26.48 3.27-2.7 4.07-1.53.39-3.07.57-4.15 2-2.44 3.17-3.51 6.81-4.15 10.68s-.23 8-.59 12 2.39 8.68 5.71 10c4.3 1.7 8.55 3.66 13.17 4.41 1.38.22 2.58 1 3.86 1.3 5.36 1.2 11.19.47 16 4 1.94 1.45 4.68.06 6.36 1.15 3.16 2 6.74 1.43 10 2.49 1.24.38 2.22 1.45 3.56 1.39 4.88-.27 9.59 1 14.4 1.49 2 .2 3.93 1 5.91 1.11 6.14.48 12.29.76 18.22 2.68a16.61 16.61 0 0 0 5.6.57 20.52 20.52 0 0 1 5.32.38c3 .73 5.91 1.76 9.05 1.72 2.53 0 3.21.83 2.49 3.32a16.19 16.19 0 0 0-.35 4.08c-.07 3.32 1.29 6.27 2.3 9.28 1.32 3.92 2.94 4.28 6.53 1.93.38-.24.83-.41 1.21-.63 2.94-1.66 6.24-2.78 8.56-5.49.89-1 1.18-1.78.27-2.93a7.55 7.55 0 0 1-1.55-4.45c0-1 .21-1.54 1.43-1.43 2.57.22 5.14.25 7.72.42 1.91.12 3.82.32 5.72.56 1.15.14 1.79.39.63 1.66-1.42 1.58-3.32 2.43-4.79 4-1.78 2-4.49 2.82-6.65 4.68-3.74 3.28-8 6.07-11.93 9.18-2.35 1.84-5 3.32-7.48 5.09-8.07 5.86-16.13 11.74-24 17.89-4.09 3.22-8.79 5.53-12.51 9.22-4 4-9.36 6-14.06 9-3.67 2.31-7.48 4.36-10.47 7.54s-4.68 3.32-7.14-.12c-2-2.73-4.39-5-6.18-8-2.13-3.47-5.41-6.33-8.52-9.09a54.25 54.25 0 0 1-8.73-9c-1.39-2-4-2.81-4.77-5.28a6.06 6.06 0 0 0-2.49-3.21 17.77 17.77 0 0 1-5.25-5.56c-1.79-2.9-4.89-4.16-6.55-6.89-1.54-2.58-4.37-3.6-6.65-5.29a36.25 36.25 0 0 0-11-6.09c-2.14-.67-3.59.17-5 1.29-3.57 2.93-4.33 7-4.07 11.35.13 2.17.08 4.49 1.3 6.38 1.76 2.75 3.46 5.53 5.19 8.31 2.49 4 5.59 7.73 7.62 12.12 1.14 2.49 2.94 4.62 4.2 7s2.24 5.19 4.69 6.95a3 3 0 0 1 1 1.75 8.37 8.37 0 0 0 2.49 4.57 12.57 12.57 0 0 1 4.15 7.13 5.48 5.48 0 0 0 2.87 3.93 2.87 2.87 0 0 1 1 .95c4 5.76 7.77 11.63 12 17.24 2.18 2.9 5.21 5.09 8 7.48a13.22 13.22 0 0 0 8.5 3.07c4.66.17 8.66-2.13 12.68-4.11a6.36 6.36 0 0 0 2.86-3.09c.83-1.77 1.3-3.64 2-5.46 1.51-4.16 1.66-8.25-.32-12.25-.62-1.24-.21-1.66.72-2.37 2.89-2.19 6.55-3.23 9-6s6.25-4.45 9.2-6.92a4.81 4.81 0 0 0 1-.94 15.15 15.15 0 0 1 7.42-5.68c3.32-1.26 5.37-3.91 8-6a51.84 51.84 0 0 1 8.07-5.67 32.39 32.39 0 0 0 5.91-3.78c2.06-1.75 4-4 6.41-4.92 7.48-2.78 12.46-9 19-13.2 3-1.91 5.86-4.06 8.93-5.88 2.33-1.39 4.73-2.88 6.33-5 2-2.68 4.88-4.22 7.48-5.93 3.66-2.41 7.59-4.41 10.8-7.48a8.43 8.43 0 0 1 6.36-2c4.46.14 8.64 2.07 13.14 2.36 5.27.35 10.54.91 15.78 1.49 4.07.45 8.15.52 12.23.68 3 .12 5.7 1.1 9 .64 5.15-.72 10.37 1.4 15.6 2a34.8 34.8 0 0 1 8 1.66c2.49.91 5.08.42 7.58.52 1.66.07 3.26.64 4.81.57a34.31 34.31 0 0 1 9.25.95c4.11.95 8.26.48 12.39 1.28 3.41.66 7.07.55 10.55 1.36a1.83 1.83 0 0 0 1.1-.07c4.74-1.7 9.66-1 14.52-.89a9.4 9.4 0 0 1 3.14.07c3.39 1.3 6.94 0 10.35.83 3.24.76 6.15-.9 9.21-1.49 3.56-.68 5.47-3.18 7.64-5.54 2.41-2.63 3.27-6.07 4.67-9.22a15.8 15.8 0 0 0 1.21-5.75c.09-1.82-.83-3.47-.56-5.17a7.66 7.66 0 0 0-2.35-7.42c-.39-.37-.66-.83-.08-1.09 2.57-1.22 3.67-4.16 6.18-5.37.61-.3.74-.83 1.07-1.31 1.58-2.24 2.24-4.8 3.09-7.35a20.78 20.78 0 0 0 1.1-10c-.57-3.47-.72-3.6 2.78-3.5 2.67.07 5.34-.21 8 .11 2.49.29 4.1-1 3.57-2.63a6.32 6.32 0 0 0-2.37-3.57 9.3 9.3 0 0 1-3-3.42c-2.82-4.67-4.76-9.9-9.07-13.64-1.49-1.29-1.74-3-.37-5s3.26-4.88 2.64-7.35c-.78-3.14-.12-6.22-.74-9.32-.83-4.21-1.3-8.48-3.32-12.33-.47-.9-.88-1.94 0-2.43 1.13-.6 2.31-2.17 3.83-.83 3.8 3.24 8.78 4.9 11.89 9a2.49 2.49 0 0 0 .89.71c3.19 1.51 5.45 4.22 8.13 6.37 3.94 3.14 6.79 7.32 9.41 11.63 2.08 3.42 5.29 6 6.81 9.88.58 1.46.57 3.22 1.2 4.3 2 3.47 1.33 7.34 2.33 10.9.32 1.15-.17 1.66-1.38 1.75a10 10 0 0 0-3.79.68 18.93 18.93 0 0 0-8 8c-2.24 4.16-2.05 5.88 1.82 8.61 1.66 1.17 1.43 2.16.41 3.44a10.62 10.62 0 0 1-.79.83c-3.66 3.86-8.47 6.65-10.86 11.78a9.14 9.14 0 0 0-1.24 3.6 37.05 37.05 0 0 0 1.25 9.07 13.45 13.45 0 0 0 6.42 9.32c1.12.68 1 1.12.66 2.1a13.41 13.41 0 0 0-.94 7.7c.59 2.71 3.51 3.72 4.15 6.28 0 .11.57 0 .83.13a3.93 3.93 0 0 1 1.78 1c2 1.93 4.28 2 6.9 1.23 1.53-.42 3.09-2.14 4.34-1.42 2.75 1.55 5.47 1.89 8.56 2.15 3.85.33 6.47-1.13 8.86-3.47 1.13-1.1 1.89-1.25 3.15-.59a5.06 5.06 0 0 0 4.81.49c3.51-1.66 6.72-3.56 8.16-7.48A5.24 5.24 0 0 1 547 441a24.09 24.09 0 0 0 3.32-7.4c.4-1.2-.75-1.8-.44-3a20.76 20.76 0 0 0 0-8.58c-.33-2.08-1.19-4-1.31-6.13-.22-3.84 0-7.77-2-11.29-.3-.55 0-1-.2-1.55s.07-.88.63-.83c4.41.12 5.43-3 6-6.41.67-3.58-.17-6.59-3.4-8.81zM34.51 208.72a22.7 22.7 0 0 1 5.49-9.14c1.13-1.11 2.43-2.33 4.34-1.9 2.61-.31 4.31 1.33 5.66 3.09a18.48 18.48 0 0 1 4.26 11.49c0 .83.23 2.08-1.09 2.14s-2.49 0-2.91-1.59a4.78 4.78 0 0 0-.33-1.29 1.86 1.86 0 0 0-2-.89c-.66.12-.92.68-.89 1.4.07 1.47-.47 1.83-1.94 1.31-3.13-1.1-6.24.33-9.36.48-1.59.07-1.79-.32-1.87-1.56a9 9 0 0 1 .64-3.54zm-15.82 10.4c.27-4.84.66-8.55 3.22-11.75 1-1.26 1.4-3 2.32-4.37a5.93 5.93 0 0 1 8.18-2.21c.55.32.68.62.15 1.24-2.2 2.49-2.49 5.68-3 8.75-.15.78.38 1.4.71 2.09.76 1.52 1.21 2.77-.6 4.34-2.49 2.14-4.24 4.94-2.58 8.59.46 1 .24 1.57-1.3 1.36-2.38-.32-3.78-1.74-5.13-3.42s-2.39-3.38-1.97-4.62zM4.9 224.83c.63-3.32 1.1-6.65 2-9.91.66-2.49 4.06-4.69 6.53-4.69 1.75 0 2.42.93 1.8 2.56a11.51 11.51 0 0 0 0 8.53c.83 2.1 1.21 4.44 2.69 6.27 1.09 1.34-.27 2.19-.83 2.89-1.87 2.45-6.88 4.22-9.2 1.43-1.62-1.91-3.29-4.11-2.99-7.08zm6.84 13a1.54 1.54 0 0 1 1-.36c4.21-.08 6.45-3.4 9.3-5.68 1.66-1.36 3.18-.14 4.58.4s.18 1.66-.15 2.29c-1.32 2.34-1.05 4.65-.47 7l.65.12c.83-1.66 1.66-3.37 2.39-5.09a18.38 18.38 0 0 1 3.13-4.41 1.93 1.93 0 0 1 2.13-.47c4.15 1.13 8.41 0 12.6.34a3.65 3.65 0 0 0 2.17-.66 1.66 1.66 0 0 0 .58-1.85c-.11-.74-.83-.56-1.31-.54-2.57.09-5.13.07-7.71.25a11.33 11.33 0 0 1-9.41-4.17c-1.26-1.45-.71-4 1.83-5.51 5.19-3 10.86-3.22 16.54-1.92a31.63 31.63 0 0 0 8.86.88c2.82-.15 3.46.53 3.53 3.28a27.24 27.24 0 0 1-1.41 9.74 13.53 13.53 0 0 1-4.57 6.65 22.44 22.44 0 0 0-6.06 7.25c-.47.83-.78 1.5-1.85 1.75-2.72.63-5.42 1.43-8.12 2.17-.22.06-.44.26-.64.24-6.15-.72-11.89 2.49-18.12 1.72-2.67-.32-4.15-1.7-5.73-3.27-.77-.77-1.17-1.75-2.36-2.29-1.72-.8-2.58-6.46-1.37-7.85zm20.49 28c-3.79.65-7.6-.32-11.3.39-2.83.54-5.48-.42-8.23-.27a1.93 1.93 0 0 1-1.4-.69c-1.66-1.7-3.61-3.16-4.73-5.34a2 2 0 0 1 .34-2.64c1.75-1.83 3.8-2.74 7.17-2.6 3.49-.54 7.71 1.4 11.85 1.11 3.8-.26 7.83.78 11.57-1.25 2.6-1.4 5.69-1.35 8.58-1.83 2-.33 4-.61 6.06-.83a5.23 5.23 0 0 1 4.4 1.29c1.4 1.32 2 3.15.83 4.62a10.59 10.59 0 0 1-5.5 3.81 78.83 78.83 0 0 1-14.76 2.65c-1.75.13-3.11 1.29-4.88 1.6zm139.41 256c-.34 1.78-.66 3.59-1.15 5.33-1.38 4.88-4.84 8.19-9.62 8.68-3.32.34-7.18.32-9.8-3.57-2.14-3.18-5.37-5.73-8.41-8.19-2.88-2.34-4.48-5.46-5.87-8.61a21.26 21.26 0 0 0-3.75-6.29c-3.8-3.78-5.76-8.67-8.71-12.93-2.43-3.51-4-7.7-6.53-11.19s-5.11-6.73-6.91-10.62-4.63-7-6.72-10.65c-1.51-2.62-3.11-5.48-3.46-8.38-.27-2.22-.71-4.81.56-7.25.83-1.66 1.66-1.66 3-1.18s2.24 1.58 3.36 2.34c3.32 2.24 6.65 4.45 10 6.7 1.66 1.13 2.92 3.17 4.69 4.35a27.42 27.42 0 0 1 6.84 6.41c3 4.07 6.47 7.7 9.34 11.88a22.19 22.19 0 0 0 6.65 6.45 16.69 16.69 0 0 1 6.13 5.82 26.65 26.65 0 0 0 5.58 6.84c1.26 1.1 1.66 2.7 2.7 3.93.61.73 1 1.7 1.8 2.23 3 1.92 2.1 5.2 2.82 7.88 1 3.66 3.75 5.94 7.58 5.59-1.11 1.52.18 2.92-.12 4.47zm210.82-376.41a1.79 1.79 0 0 1 2.76.58c1 2.54 3.53 4.25 3.5 7.35 0 1.79 1.32 3.41 1.37 5.51a29.63 29.63 0 0 0-.1 6.72c.17 4.16-1.79 7.23-4.23 10.24a36 36 0 0 0-5.29 7.91c-.71 1.61-2.18 1.62-4.39.24-2-1.24-4.15-2.22-6.1-3.32-3-1.71-6.38-1.86-9.22-3.6-.5-.31-1.1-.4-1.44-1a23.87 23.87 0 0 0-4.32-5.78 1.66 1.66 0 0 1 0-2.45q3.32-4.34 6.59-8.74c.67-.92 1.78-1.11 2.62-1.75a46.38 46.38 0 0 0 5.81-5.4c2.67-2.78 6.31-4.26 10-5.5a11.34 11.34 0 0 0 2.51-1zm-54.52 1.26a7.66 7.66 0 0 1 2.68-2.06c5.12-2.86 10.27-5.67 15.54-8.22 2.17-1.06 4.78-.55 7.16-.83 4.63-.12 9.24-.76 13.88-.43a9.37 9.37 0 0 1 4.1 1.14 73.53 73.53 0 0 1 8.56 5.29c1 .77.45.83-.07 1.29-1 .83-2.19.4-3.27.76-5.91 2-10.8 5.46-15.33 9.64-2.49 2.3-5.26 4.33-6.84 7.48a23.92 23.92 0 0 1-2.83 4.61c-.69.83-1.12.83-1.83.25a171.77 171.77 0 0 1-13.29-11.45 13.18 13.18 0 0 0-6.49-3.6 5.07 5.07 0 0 1-1.3-.4c-2-1.13-2-1.68-.66-3.49zm-55.94.73c-1.3-1.12-1.84-3.24-2.44-5-.26-.74 3.51-3.91 4.49-3.8A11.16 11.16 0 0 0 278 138c2.43-.55 4.9.09 7.37 0 6.18-.23 11.59 2.78 17.33 4.35a43.72 43.72 0 0 1 13.3 5.8 67.44 67.44 0 0 0 8.36 4.55c3.32 1.6 6.25 4 9.3 6.08a17.87 17.87 0 0 0 4.05 2.49c2.31.83 3.71 3 5.4 4.76s3 3.6 4.85 6a30.35 30.35 0 0 1-5.32-1.09c-2.9-1.18-6.11-1.11-8.92-2.14-3-1.11-6.08-1.17-9.14-1.71-3.67-.66-7.29-2.24-11.16-1.22-.71.19-1.11-.41-1.66-.64-2.08-.91-4.24-.83-6.45-1-3.95-.28-8.11.58-11.74-2.15-1.66-1.27-4-1.6-6-2.68s-3.32-2.62-5.33-3.32c-4.48-1.61-6.9-5.73-10.28-8.65zM125.86 284.66c.63-1.27 1.09-2.72 2.83-3.32 2-.74 3.46-2.67 5.6-3.32a6.24 6.24 0 0 1 3.26-.46 9.25 9.25 0 0 0 3.12-.61 4.65 4.65 0 0 1 5.66.94c2.18 2.17 5.21 2.13 7.73 3.37a14.12 14.12 0 0 0 3.58 1.53c4.15.7 7.76 2.82 11.63 4a63.54 63.54 0 0 0 8.39 1.41 74.62 74.62 0 0 1 11 2.14 32.55 32.55 0 0 0 9.62 1.1c2.33 0 4.28 1.24 6.65 1.14 4.33-.16 8.52 1.39 12.81 1.9 1.74.21 2.08 1 2.28 2.43a15.08 15.08 0 0 1-.28 5.21c-.46 2.17-4 3.17-5.68 1.75-.94-.77-1.89-1.55-2.76-2.39-2.76-2.73-10.52-2.86-13.29-.15-3 3-10 3.66-13.44 1.84-.57-.3-1.24-.49-1.1-1.22.41-2.06-.61-3.67-1.48-5.36-2-3.86-2.21-3.42-6.35-3.47s-7.16 2.32-10.67 3.58c-3.32 1.2-6.8-.61-8.56-3.58-2.28-3.83-4.79-7.77-10.15-8.15-1.57-.11-3.11-.91-4.78-1.12-3.61-.46-6.92.61-10.29 1.55a6 6 0 0 0-2.07 1.36c-.65.5-.91 2-2 1.12-.97-.72-1.84-2.05-1.26-3.22zm99.68 11.48c-.23-.83.83-.61 1.3-1a3 3 0 0 1 2.82-.43c3.95 1.21 8.22.66 12 1.73 4.48 1.26 9.14.95 13.51 2.29 2.4.73 5 .88 7.4 1.48 1.73.42 3.6-.31 5.46-.14s3.62.71 5.22.68c4.86-.1 8.95 2.67 13.8 2.86 5.76.23 11.63-.06 17.32 1.2a18.48 18.48 0 0 0 7.64-.06 11 11 0 0 1 6.65 1 28.69 28.69 0 0 0-4.24 6.65c-.77 2-2.87 2.89-3.82 4.76s-2.49 3.32-3.49 5.2c-2 3.91-8.49 5.19-11.82 2.54a6.3 6.3 0 0 1-2.19-4.86 16.33 16.33 0 0 0-3.46-9.44c-1.09-1.43-5.09-2-7-.87a12.66 12.66 0 0 0-6 6.46c-.58 1.61-1.35 3.61-.93 5.52a3.62 3.62 0 0 1-.63 3c-2.34 2.79-3.73 6.27-6.6 8.68a4.55 4.55 0 0 1-3.21 1.11c-6.29 0-9.14-5.71-7.25-11a36.31 36.31 0 0 0 2.18-13.3c0-.91.07-1.83 0-2.73-.35-2.86-3.17-4.58-6.1-4.92-6-.69-7.77 3.58-9.91 7.57s-4.15 8-6.22 12a21.91 21.91 0 0 0-2.49 10c0 4.41-2.06 7.68-5 10.6-1.57 1.56-5.64 2.12-7.29 1.07-1.83-1.16-2.43-3.91-2-6.52a52.84 52.84 0 0 0 .62-9.18c-.09-4.16 1-8.1 1.66-12.13.58-3.61 1.4-7.18 1.4-10.92 0-3 1.38-5.89.54-9zm114.29 16.2c4 2.49 7.36 5.69 11.15 8.37a14.57 14.57 0 0 0 9.41 2.54 10.41 10.41 0 0 1 2.87-.13 9.38 9.38 0 0 0 8.5-2.07c3.56-2.83 7.92-2.78 12-3.73 3.84-.9 7.42.4 10.67 2.49a55.5 55.5 0 0 0 10 5.59c2 .76 3.51-.07 5.11-.57 4.23-1.33 4.49-1.31 6.89 2.34a11 11 0 0 0 1.89 2.29 2.5 2.5 0 0 1 1 2.65 2.84 2.84 0 0 1-2.49 1.8c-3.32.3-6 2-8.48 4a9.68 9.68 0 0 1-7 2.58c-3.44.07-7.8-2.77-9.06-5.93a9.7 9.7 0 0 0-13-5.07c-3.39 1.61-6.79 3.15-10 5a8 8 0 0 1-7.81.24 15.84 15.84 0 0 0-2.56-.89c-3.32-.91-5.15-3.75-7.58-5.82-1.15-1-2-2.31-3.58-2.71s-3-1.56-4.37-2.39c-2.34-1.37-4.77-1.06-7-.75-3.32.47-6.83 1-9.43 3.32s-5.09 2.14-8 1.17a5.4 5.4 0 0 1-3.21-6.65 28.57 28.57 0 0 1 3.89-7.3c.24-.34.28-.83.83-.95 5.7-1.3 11.41-2.14 17.22-.83a7.82 7.82 0 0 1 2.24 1.3zm-.12-4.2c3-.83 10.8.2 13 1.84 2.49 1.9 5.47 1.79 8.27 2.36 2.06.42 4.15.52 6.26.83s3.94.62 6.45 1c-4.23 3.58-8.18 5.1-13.29 4.25-4.41-.74-7.74-2.79-11-5.53a8.66 8.66 0 0 0-5-2.42c-1.78-.1-2.95-1.58-4.68-2.34zm59.37 9.86c2.2.52 4.15-.14 6 .55a23.72 23.72 0 0 1 4.24 1.66 1.8 1.8 0 0 1 .67 1.13c.08.42-.37.6-.75.71-2 .53-8.5-1.89-10.19-4.06zm-154.2 7.19c-1-.64-1.41-.9-1.09-2.19a48.21 48.21 0 0 1 5.46-12.32c.71-1.22 2.24-2 3.51-2.83a1.49 1.49 0 0 1 2.13.69 20.12 20.12 0 0 1 .76 3.71c.77 4.16-1.1 7.81-2.18 11.63a20.37 20.37 0 0 0-.72 4.25c0 .41 0 .76-.41 1s-.59-.07-.76-.3c-1.64-2.35-4.56-2.25-6.7-3.62zm6.43 8.81c-.28.93 0 1.87-1.42 2.49-4.09 1.88-4.59 1.46-9 1.94-2.49.06-2.67-.17-1.7-2.64.83-2.19 1.84-4.32 2.69-6.51.17-.45.24-1 .83-.83 2 .66 4.52.17 5.94 2.34a4.15 4.15 0 0 0 1.66 1.16c.76.49 1.36 1 1 2zm4.91 1.86c-.64 0-1.34 0-1.38-.83 0-.16.22-.48.33-.48.79 0 .66.9 1.05 1.3zm-1.31 14.48c.83-.78.39-2 .56-3.06.24-1.5.83-2.26 2.43-2.27a58.83 58.83 0 0 0 14.66-2.05c2.49-.66 5.27.22 7.82-.94.69-.32 1.1.32 1.2 1.19.22 2.25 4 6.65 6.24 7.41 1 .32 2.08.83 1.91 1.93s-1.31 1-2.28.83c-4-.54-7.58 1.06-11.25 2.3a15.78 15.78 0 0 1-4.84.93c-3.55 0-7 .83-10.48 1.17-4 .4-7.87-.5-11.82-.59a1.5 1.5 0 0 1-1.42-1c3.27-.89 5.03-3.68 7.27-5.88zm2.43-11.72c.22-1 1.06-.57 2-.69a4 4 0 0 1 2.34.57c2.64 1.84 5.15 1.06 7.87 0 3.93-1.54 6.47-4 7.53-8.18.32-1.27 1.6-2.37 2.43-3.56 1.66-2.33 1.66-5.17 2.71-7.68a10.14 10.14 0 0 1 2.12-3.1c1.56-1.7 1.83-.42 2.44.71 1.17 2.18.83 4.65 1.5 6.95.83 2.9.56 2.88-1.66 4.72a17.78 17.78 0 0 0-5.08 7.9c-.52 1.44-1.05 2.14-2.83 2.24-4.07.23-7.83 2.17-11.9 2.61-3.07.33-6.14.76-9.21 1.15-.31 0-.65.07-.77-.3-.34-1.17.33-2.21.57-3.31zm29.39-3.24c.64-.93.56-2.43 1.79-2.81 1.4-.42 1.71 1.26 2.69 1.76 2.68 1.38 4.73 3.81 7.56 4.92 4.91 1.91 9.49 4.53 14.32 6.65a80.33 80.33 0 0 0 13.91 5c4.71 1.06 8.71 3.7 13.35 4.55 2.36.42 5.07 0 7.09 1 2.68 1.35 5.6 1 8.22 2.1 2.18.93 4.57.36 6.83 1 3.77 1.16 7.63 2 11.47 2.9 4.83 1.17 9.75 1 14.66 1 1.34 0 2.71.25 4.32-.83-.68 3.23-2.58 5.13-3.32 7.58-.27.95-1.43.67-2 .64-4.41-.26-8.79-1-13.17-1.45-3.75-.38-7.26-1.79-11.21-1.6-4.15.2-8.43-1.15-12.64-1.87-6.19-1.06-12-3.32-18.27-4.36-4.15-.67-8.07-2.88-12.11-4.33-3-1.1-5.74-2.86-9.3-3a26.81 26.81 0 0 1-10.37-2.8 22.82 22.82 0 0 0-7.56-2.41c-6.1-.44-9.74-8.55-6.26-13.67zm48.27 1a19.63 19.63 0 0 0 6.65 1.49c3 .24 5.47 2 8.31 2.39 7.31 1.11 14.12 3.71 20.91 6.45a12.06 12.06 0 0 0 3.49.83c2.43.17 4.15 1.71 6.13 2.59 3.13 1.39 6.06 3.27 9.1 4.89 1 .52 2 1.08 1.66 2.33s-1.55 1-2.49.83c-1.74-.36-3.17.83-4.86.83-5 0-9.74-1.51-14.62-2.17-5.58-.74-10.89-2.68-16.52-3.42a53.74 53.74 0 0 1-16.55-4.75c-1.73-.83-3.88-.91-5.86-1.14-5.35-.61-9.79-3.59-14.67-5.4-4.59-1.71-9-3.92-13.53-5.67-1.83-.7-3-2.53-4.68-3.57a20.21 20.21 0 0 0-2.33-1.34c1.66-.67 3.32-.11 5-.54a75.57 75.57 0 0 0 9.27-3.12c1-.4 1.9-.83 2.49.47 1.1 2.42 3.42 3.14 5.61 3.42 6 .85 11.91 2 17.53 4.6zm-3.78-7.48c2.78-1.55 5.61-3.12 8.31-1.41s6.1 1.82 8.42 4.16c.7.7 1.45 1.34 2.17 2 .27.27.63.62.31 1a1.25 1.25 0 0 1-1 .26c-1-.24-2-.67-3-.91-5.13-1.15-10.28-2.15-15.16-5zm55.31 19.33a4.67 4.67 0 0 1-2.35-.83c-3.7-2.84-8.44-3.32-12.46-5.62-1.84-1-4.37-.91-6.6-1.23-.59-.08-1.23.18-1.59-.67 2.18-.83 4.44.32 6.59-.37.35-.11.83 0 1.05-.26 1.75-2 4.28-3 6.24-4.75a5.53 5.53 0 0 1 5-.93c2.36.63 4.6 1.6 5.81 4.26 1.79 4 5.87 4.9 9.57 6 3 .93 6.39 2.24 9.22 0 4.39-3.47 10-4.56 14.4-7.89.89-.67 1.33 0 1.61.52 1.05 2.12 3.26 2.74 5.06 3.76 3 1.66 6 1 8.85-.77a2.78 2.78 0 0 1 4.21 2.54c.12 4.42-.12 8.8-2.49 12.74a5.65 5.65 0 0 1-4.47 3.11 32.72 32.72 0 0 1-17-3.32c-3.25-1.55-6.23-.39-9 .83-3.13 1.35-6.5 1.94-9.59 3.41-.93.44-2-.66-2.3-1.75-1.3-5-4.74-8.2-9.8-8.77zm-156.9-1.09a6 6 0 0 1 2.8-1.43 4.33 4.33 0 0 0 2.66-1.6c1.35-2.13 3.49-2 5.3-1.81a16.61 16.61 0 0 0 9.74-1.38c.92-.45 2.12-1 2.18 1.2.15 5.58-3.25 9.54-9.21 10.17a20 20 0 0 0-5.71 1.4c-2.8 1.18-5.81.64-8.57.32-3-.34-6-.12-8.95-.76-2.62-.57-5.26-.7-7.89-1.66-3.88-1.41-8.22-1.19-12.35-1.06a24.85 24.85 0 0 1-5.67-.83c-4.15-.83-8.36-1-12.46-1.58-3.42-.5-6.9-.89-10.28-1.6a120.92 120.92 0 0 1-12.31-2.66c-4.73-1.47-9.93-2.14-13.77-5.21-3.12-2.49-6.18-6-4-11a15.37 15.37 0 0 0 .48-3.32 19.32 19.32 0 0 0 9.45 4c3 .52 6.11 0 8.88 1.22A34.1 34.1 0 0 0 170.5 332c3.24.27 6.4 1.28 9.69 1 1.94-.14 3.71.83 5.43 1.42a30 30 0 0 0 8.73 1.3c3.11.14 5.95 1.73 9.14 1.41 4.29-.42 8.53.7 12.83.57 1.66-.06 1.59 1.82 1.45 2.83-.37 2.66.76 4.55 2.49 6.27a6.79 6.79 0 0 0 9.35.33zm-12.46-17.45v1.45c-.07 2.73 0 2.57-2.67 2.12-3.6-.63-7.19-1.66-10.89-1.09-2 .33-3.63-1-5.51-1-3-.07-6.09.64-9-.52-4.92-2-10.36-.9-15.33-3a35 35 0 0 0-14.62-2.49 20.17 20.17 0 0 1-7.83-1.54 59.79 59.79 0 0 0-6.43-2.12 1.92 1.92 0 0 1-1.58-1.9c-.17-1.18.76-1.4 1.43-1.75a19 19 0 0 1 15.88-.9c3.76 1.4 7.07.26 10.33-1.3 1.46-.71 2.74-1 3.88.22a7.92 7.92 0 0 0 4 2.13 5.91 5.91 0 0 1 3.78 2.93 4.43 4.43 0 0 0 3.9 2.24c1.55 0 2.73.83 4.07 1.36a4.68 4.68 0 0 0 4.15 0c1.84-1 4-1.3 5.71-2.66s3.32-.91 4.75.71a13.29 13.29 0 0 0 9.36 4.5 1.56 1.56 0 0 0 .9-.06c2.43-1.66 1.85.25 1.82 1.5 0 .47-.38.9 0 1.29zm-84.07-27.34a6.72 6.72 0 0 1-6.3.45c-3.56-1.55-3.84-1.66-3.13-5.82a4.61 4.61 0 0 1 4-4.16c.66-.12 1-.63 1.51-1 5-3.85 10.56-4.34 16.45-2.54a1.59 1.59 0 0 1 .77.46c2.3 3 5.75 5 7.65 8.19 2.21 3.76 7.66 5.7 11.56 2.89a6.44 6.44 0 0 1 3.75-1.2c1.72-.1 3.38-1.1 5.1-1.6 2.53-.74 3.32-.16 3.46 2.39.25 4.94 4.93 8.8 9.79 8.93 4.51.12 7.48-2.79 11.18-4.37 4.53-1.94 7.25-2.83 10.09 2.42a2.55 2.55 0 0 0 2.29 1.32c2.38-.06 4.77.5 7.1-.06 1.55-.37 1.55.5 1.4 1.48a19.72 19.72 0 0 1-.37 2.86 25.54 25.54 0 0 1-3.16 6.16c-.71 1-2.23 1.25-3.56 1.07-2 .47-2.49-1.3-3.32-2.31-2.36-2.85-7.4-3.77-10.38-1.66a8.55 8.55 0 0 1-3.9 1.82 3.74 3.74 0 0 0-.89.23c-.83.3-.52 2.09-1.85 1.6-2.15-.83-5 .42-6.54-1.91-2.13-3.23-6-3.78-8.68-6.07a11.34 11.34 0 0 0-4.73-2.17c-1.45-.37-3 .83-3.91 2a2.3 2.3 0 0 1-2.67.89c-2.4-.41-5-.17-7-1.9a51.54 51.54 0 0 1-6.79-6.52 8.86 8.86 0 0 0-9.06-3.56 22.22 22.22 0 0 1-4.83.42 9.33 9.33 0 0 0-5 1.38zM119 346.76c.32-.77.63-1.55.93-2.33 1.06-2.71 3.51-3.81 5.87-2.19a31.91 31.91 0 0 0 11.59 4.76c3 .65 6.27 1.08 8.61 3 2.08 1.71 5 .83 6.7 2.93 3.27-.7 5.63 2.28 8.9 2.14 1.53-.07 3.32 1.07 4.64 2.13 2.6 2.11 5.92 2.07 8.76 3.42 4.54 2.17 9.85 2.33 14 5.51 2.18 1.66 5.11 1 7.58 1.93a5.67 5.67 0 0 1 1.48.47c2.43 1.72 5.29 2.49 7.95 3.7 4 1.81 8.14 3.06 12 5.06 3.26 1.66 7.09 1.93 10.45 3.58a88.33 88.33 0 0 0 11.83 4.65c1.35.43 2.49 1.47 3.77 2.12A29.83 29.83 0 0 0 250 390c2.77.71 4.9 2.58 7.15 4.2.88.63-.17 1.6-.34 1.66-2.75 1.57-4.74 4.67-8.49 4.33-2.77-.22-5.56-.5-7.88-2.29a6.19 6.19 0 0 0-3.2-.9c-2.49-.31-4.34-1.84-6.3-3.07a6.51 6.51 0 0 1-2.67-4c-1.14-3.84-3-5.66-7-2.78a18 18 0 0 0-4.45 3.86 2.49 2.49 0 0 1-2.67.91c-4.5-1.16-9.22-1.07-13.71-2.32a67.15 67.15 0 0 1-6.65-1.94 4.32 4.32 0 0 1-2.73-4.3 3.46 3.46 0 0 0-6-2.44c-1.66 2.19-3.93 1.93-6 1.84a36.05 36.05 0 0 1-12.86-2.55 93.39 93.39 0 0 1-9.14-5 2.09 2.09 0 0 1-.83-1c-1.27-3.32-3.12-3.85-6.49-2.76-4 1.28-8.17 2.49-12.46 1.52-1.52-.36-3 .12-4.6-.6-2.33-1-5.94-4.5-5.7-7 .16-1.6.83-3.07.73-4.82-.15-3.49-.46-4.21-3.89-5a6.44 6.44 0 0 1-4.79-8.88zm335.55 83.34c-.76 2.25-2.41 4.16-3.46 6.36-1.6 3.32-4.39 5.59-7.79 5.34-4.29-.32-8.37.42-12.46 1-3 .42-6-.34-8.92 0-2.54.27-5 .19-7.57.29-.74 0-1.6.31-2.18 0-3.86-1.89-8-.38-12-1.16-6.35-1.23-12.87-1.18-19.3-2.25-6.65-1.11-13.29-2.45-20.18-2.18-3.67.14-7.38-1-11.1-1.45-3.4-.4-6.8-.73-10.24-.83-4-.15-8-.92-12-1.07-2.84-.1-5.94.07-8.5-.47-4.15-.88-8.31-.42-12.46-1.11a126.55 126.55 0 0 0-13.84-1.93 26.45 26.45 0 0 1-7.05-1.51 17.62 17.62 0 0 0-4.43-.5c-3-.66-6 .23-9.14-1a19.26 19.26 0 0 0-9.68-1.23 7.09 7.09 0 0 1-2.71.07c-3.63-1-7.3.06-10.91-.34-2.13-.23-4.23-.89-6.37-1.22-3.46-.54-6.87-1.32-10.43-.69-1.7.31-3.15-.93-4.69-1.5-4-1.47-8.31-.92-12.34-1.84-3.69-.83-7.35-1.75-11-2.62a10 10 0 0 0-3.75 0c-3.95.72-7.39-1.15-11.1-1.52-3.44-.35-6.89 0-10.26-.44-2.1-.27-4.44-.34-6.39-2-1-.83-3-.74-4.54-.73-3.49 0-6.65-1.33-10-2.06-5.81-1.28-11.31-3.89-17.09-5.14-2.87-.62-5.59-2.34-8.76-1.79a3.89 3.89 0 0 1-2.57-.75c-3.11-2.19-6.71-3-10.27-4a4.55 4.55 0 0 1-3.32-4.16c-1.05-7.11 1.08-13.78 3.16-20.39 1-3.24 6-4.06 8-1.38 2.45 3.27 6.19 3.89 9.61 4.71 4.42 1.06 9.05 1.37 13.35-1 1.47-.83 2.57-.83 3.49.92a8.94 8.94 0 0 0 5 3.92c5.37 2 10.74 4.22 16.38 5.24 4.15.75 8.48.83 12.33-1.66 1-.61 1.14-.19 1.24.7.27 2.49 2.18 3.86 3.9 5.29a18.9 18.9 0 0 0 10.51 3.98c3.57.37 7.13 1.06 10.8 1.26a8.64 8.64 0 0 0 7.77-3.11c1.25-1.51 2.23-1.89 3.11.32 1.1 2.78 3.72 3.88 6.08 5.24 3.81 2.21 7.63 4.41 12.08 5.13a16.92 16.92 0 0 0 10.23-1.38c2.43-1.14 5-1.9 7.18-3.6.71-.55 1.09-.14 1.71.61 4.35 5.18 9.6 8.39 16.78 8.25 2.73-.06 5.48.37 8-.78 3.73-1.7 7.87-2.71 10.73-6 1.26-1.47 2.6-.4 3.46.42a21.7 21.7 0 0 0 7.22 4.16c2.71 1.08 5.57 1.77 8.22 3.06s5.71.77 8.56 1.26a25 25 0 0 0 4.7.28 17.07 17.07 0 0 0 10.37-3.47c1-.77 1.25-1.52 2.49 0 2 2.38 3.68 5 6.06 7a12.12 12.12 0 0 0 5.64 2.49 117.76 117.76 0 0 0 12.46 1.66 25.47 25.47 0 0 0 14.64-2.3c1.44-.73 2.72-1.77 2.63-3.69a1.68 1.68 0 0 1 .61-1.16c.78-.88.6-2.75 2-2.83 1.66-.08 1.23 1.83 1.74 2.82 1.66 3.12 4.62 4.16 7.58 5.23 1.42.52 2.88.83 4 2.13.77.92 2 0 3.14.24 3.57.69 7 .83 9.93-2.49a20 20 0 0 1 6.34-4.65c1.53-.71 2.33-.29 3.32.83a18.54 18.54 0 0 0 13 6.47c3.46.23 6.9.74 10.35-.19 2.23-.6 4-2.14 6.37-2.49 1.4-.22 3.25.36 3.18 1.79-.27 3.91.58 7.87-.68 11.58zm4.88-28.56a9.42 9.42 0 0 0-2.35 3.81c-1.73 4.42-6.28 5.73-9.09 8.88-2.56-.51-5 .35-7.34 1s-4.62-.16-6.89-.3c-3.56-.22-5.43-3-7.37-5.53-1.24-1.66-2.25-4-4.76-3.08-2.77 1-5.87 1.29-7.94 4a16.37 16.37 0 0 1-6 4.49 9.3 9.3 0 0 1-8.08-.42c-2.1-1.13-4.63-1.75-6.17-3.92a7.31 7.31 0 0 1-1.66-2.92 9.58 9.58 0 0 0-.83-2.83c-.91-1.7-1.28-3.88-4.2-3.63-2.67.23-3.32 2.17-4.15 3.94-.66 1.52-1.26 3.09-2 4.61-1.16 2.56-5 4.89-7.74 4.57s-5.63.3-8.46.17c-7.2-.36-13.88-1.74-17.52-9a19.3 19.3 0 0 1-1.73-4 3 3 0 0 0-3-2.35 3.25 3.25 0 0 0-3.45 1.86c-2.14 5.3-7.29 5.74-11.5 6-2.9.16-6.42-1.14-9.5-2.49-3.46-1.54-7-3.32-11-2.67a1.8 1.8 0 0 1-1.57-.83c-1.35-1.55-2.64-3.16-3.9-4.79s-3.81-1.9-5-.12c-1.66 2.58-4.34 3.77-6.79 5.13a27.19 27.19 0 0 1-7.64 2.89c-3 .62-5.81.76-8.57-1-1.75-1.13-3.75-1.87-5.57-3-1.61-1-.65-1.44.13-1.77 4.55-1.91 9.14-3.83 13.72-5.58a246.6 246.6 0 0 1 23.85-7.21 40.18 40.18 0 0 1 12.14-1.8 27 27 0 0 0 5.6-.59c5.17-.83 10.4-.25 15.61-.9a80.59 80.59 0 0 1 11.52-.73 8.59 8.59 0 0 1 2.38.53c5 1.54 10 .78 15 1s10.38-.4 15.48.91c.37.09.83.27 1.11.12 1.83-1.2 3.53-.09 5.31.12 3.51.42 7.07.46 10.59.83a31.88 31.88 0 0 0 10.13-.17c.88-.19 1.39.48 2.08.67 5 1.44 10.13.46 15.18.69 5.33.25 10.67-.54 16-.69 4.59-.12 9.19.44 13.78-.17a18.84 18.84 0 0 0 2-.21c3.95-1 5-.1 4.6 4.16-.51.83.29 1.66.28 2.49.17 4.09-1.84 7.29-4.74 9.82zm7.86-33.59c1.66 1.71 2.49 3.93 3.64 6 1.34 2.34 2 5.07 3.86 7.25-4.7-1.84-9.23-.11-13.78.13a20.94 20.94 0 0 1-3.43-.12 19.8 19.8 0 0 0-7.48.2c-3.94 1.08-7.53-1.27-11.34-1.33s-7.3-1-11-.2c-3.18.65-6.4 1.5-9.75.48-.83-.26-1.92.32-2.89.51-3.24.61-6.32-.62-9.49-.83-4.09-.26-8.17-.66-12.27-.65-3.93 0-7.82 0-11.71-1.07-2.86-.76-5.91-.42-8.9-.31-1.55.07-3.16.25-4.64-.74-1.2-.83-2.67-.39-4-.38a91.43 91.43 0 0 0-12.9.66 46.28 46.28 0 0 1-12.51-.06c-3.46-.42-7.07.43-10.58.23-5.49-.31-10.65 1.49-16 2.07a27.63 27.63 0 0 1-2.9-.15 20.87 20.87 0 0 0-7.66 1.8c-3 1.18-6.3 1.39-9.44 1.94-6 1.06-11.51 3.55-17.29 5.21-2.28.65-4 2.43-6 3.63-2.38 1.42-4.07 1.34-6.4-.22a93.73 93.73 0 0 0-10-5.64c-4.59-2.33-9.62-3.81-13.92-6.43-5.86-3.57-12.65-4.9-18.36-8.72-2.55-1.7-5.94-1.56-8.92-2.39s-5.62-2.26-8.45-2.93c-3.07-.72-5.67-2.27-8.52-3.32-4.66-1.66-9.22-3.57-13.76-5.55-4-1.75-8-4-12.24-4.83-3.61-.72-7.12-2.61-11-2-1.2.17-1.71-1.4-2.63-1.59-3.53-.69-6.58-2.61-10-3.57a58.38 58.38 0 0 1-14.63-5.98 6.5 6.5 0 0 0-4.3-1.2 2 2 0 0 1-1.5-.32 28.54 28.54 0 0 0-9.72-3.37c-3.38-.67-6.65-1.56-9.92-2.49-.83-.24-1.66-.83-1.66-1.66s.79-1.27 1.43-1.66a3.77 3.77 0 0 1 1.26-.47q11.58-2.42 23-5.38c2.43-.63 5-.83 7.41-1.4 1.62-.36 1.74.57 1.55 1.66a39.58 39.58 0 0 1-1.2 5.35c-1.25 3.86-.56 8.31 3.7 11 2.94 1.86 5.14 4.8 8.55 6.17 1.54.61 3.32 1.66 4.64 1.66 3.95-.07 7.18 2.3 11 2.49 2.49.11 4.76 1.75 7.41 2 4.28.4 8.51 1.24 12.78 1.87a55.23 55.23 0 0 1 6.89 1.66 11.93 11.93 0 0 0 5.55-.15c3.64-.83 6.93.21 10.27 1 3.76.88 7.66.64 11.38 1.55 4 1 8.19.66 12.19 1.66a2.71 2.71 0 0 0 1.55-.08 12 12 0 0 1 10.15 1c3.16 1.8 7 1.94 10.74 2.24 3.32.27 6.65.07 9.87.13 2.92 0 6.28-.1 9.14-1.71a3.39 3.39 0 0 1 3-.52c1.31.47 2.16-.77 3.28-1 2.31-.47 4.65-.83 7-1.27 3.8-.76 7.58-1.61 11.38-2.38a7.83 7.83 0 0 1 5.56.83 7.47 7.47 0 0 0 4.7 1.51c3-.2 5.24 2.08 7.9 3a103.13 103.13 0 0 0 16 4.87c.3 0 .71-.1.9.06 3.32 2.66 7.28 2 11.06 2.34a14.27 14.27 0 0 1 4.44 1.53 9.85 9.85 0 0 0 5.52.83 2 2 0 0 1 1.1.22c4.07 2 8.51 2.73 12.87 3.54a27.17 27.17 0 0 0 6.23.19 8.78 8.78 0 0 1 4.29.76 7.81 7.81 0 0 0 6.32.32 5.51 5.51 0 0 1 3.37-.4c1.53.4 3 .83 4.29-.28 1.6-1.37 3.4-2.64 3.9-4.93s2.06-3.77 2.8-5.82c.39-1.09 1.66-1 2.49-1.26 3.83-1.17 7.48-3.44 11.63-2.81 3.23.48 6.42 1.12 9.62 1.91 5.32 1.32 11 2.58 16.41.17a8.91 8.91 0 0 0 5-4.86 52.21 52.21 0 0 0 2.8-10.32c.06-.3.31-.52.44-.52 2.4 2.86 2.42 6.26 2.23 9.54-.29 4.89 5.46 8.89 9.74 7.75.83-.22 1.79.07 2.49-.28 2.14-1.06 3.28.74 4 1.83a17.7 17.7 0 0 0 2.3 2.79zm-21-24c.19.1.29.47.33.75 0 .12-.22.27-.32.39-.4-.24-.31-.52-.22-.78s-.11-.52.21-.36zm20.22 1.35a8.48 8.48 0 0 1-2.77 8.41c-1.59 1.5-2.25 3.76-4.46 4.8-3.11 1.47-6 .34-6.6-3a20.34 20.34 0 0 1-.37-4.27 20.65 20.65 0 0 0-3.31-11.6c-3.26-5.28-9.3-6.58-14.66-3.46-1.45.83-3 1.13-4.47-.41a33.85 33.85 0 0 0-4.58-4.4 2.73 2.73 0 0 1-1.18-1.61c-.2-2.43-2-3.85-3.32-5.57-.27-.36-.75-.71-.44-1.19a1.16 1.16 0 0 1 1.43-.38 94.05 94.05 0 0 0 14 3.17 39.17 39.17 0 0 0 5.6.55c4.34.17 8.72-.09 13 1a10.88 10.88 0 0 0 5.17.17 2.16 2.16 0 0 1 2.89 1.53c1.14 3.39 2.49 6.65 2.58 10.34.12 2.17 2.62 3.82 1.45 5.95zm6.29-33.71a47.51 47.51 0 0 0-11.85-6.22 11.4 11.4 0 0 1-4.64-3.22c-2.15-2.25-5-2.79-7.66-3.78-2.33-.89-4.68-1.4-6.49-3.32-1.1-1.16-2.89-1.1-4.3-1.45-2.79-.71-5.47-1.89-8.43-2.18-1.55-.15-3.2-1.09-4.91-1.5-6.3-1.51-12.46-3.5-19.06-3.63-.71 0-1.22-.52-1.87-.72-4-1.33-8.46-.9-12.39-2.41-3-1.17-6 .12-8.77-.34-3.25-.55-6.28.06-9.4.17a6.5 6.5 0 0 0-5.62 3.38c-1.4 2.68.92 6.46 4 6.91a41 41 0 0 1 8 1.92c1.32.47 2.57 0 3.83.09 4.65.37 9.14 1.66 13.87 1.84 2.84.12 5.67 1.23 8.45 2.1a17.15 17.15 0 0 0 6.4 1.2c2.92-.18 5.69 1 8.31 2.13s5.72 1.66 8.31 3.26c2.78 1.75 6.1 2.09 9.09 3.32 3.89 1.57 7.93 2.71 11.71 4.58a80 80 0 0 0 8.82 3.53 7.93 7.93 0 0 1 2.87 1.66 3.91 3.91 0 0 0 3.23 1.1c.68-.09 1.59 0 1.6.88s-.83 1-1.55.93c-2.4-.37-4.88.17-7.2-.19-3.74-.58-7.48.89-11.06 0-4.62-1.18-9.61.27-14.05-2.4-2.49-1.48-5.62-.83-8.44-1.66-4.72-1.32-9.66-2.63-14.49-2.57-5 .07-9.54-1.8-14.49-1.66-2.72.07-6 0-8.45-1-7.13-2.82-14.65-3.53-22-5.29-1.92-.47-3.8-1.06-5.72-1.53a11.5 11.5 0 0 0-4.24-.37c-2.75.32-5.47-.37-8.22-.83-3.13-.53-6.23-1.54-9.33-1.76s-6.27-.83-9.44-.53a3.16 3.16 0 0 1-1.58-.17c-2.54-1.19-5.63.37-8-1.6-5.73 1.15-11.17-1.66-16.89-1.24a14.31 14.31 0 0 1-6-1.15 8.65 8.65 0 0 0-4.77-.36c-4.73.91-9.29 0-13.89-.83a10.79 10.79 0 0 0-1.59-.07c-3.65-.06-7.27-.21-10.48-2.28-1.41-.91-2.95 0-4.44-.12a65.39 65.39 0 0 1-7.09-1.3c-.33-.06-.7-.32-1.06-.23-2.55.61-5-.46-7.48-.53a35.15 35.15 0 0 1-7.84-1.13 61.27 61.27 0 0 0-10.36-1.35c-6.13-.47-12.21-1.29-18.27-2-1.89-.24-3.88-1-5.91-.39-1.36.39-2.58-.47-3.81-1-2.72-1.13-5.67-1-8.48-1.3-5-.5-9.74-1.93-14.63-2.73-3.79-.61-7.32-2.14-11.25-2.56-2.49-.26-5.49-.54-7.86-2.43s-5.57-2-7.77-4.08c-5.28.11-8.59-3.91-12-6.76-3.07-2.58-6.4-6.07-6.27-11a1.84 1.84 0 0 0-.11-.91c-1.72-3-1.11-6 0-9.06.83-2.23.49-4.68.36-7a13.16 13.16 0 0 1 1.7-7.16c1.14-2.17 2.14-4.4 3.38-6.54a14.05 14.05 0 0 1 2.43-3.23c2.86-2.7 4.78-6.13 7.27-9.14 1.55-1.85 3.61-3.32 5.08-5.29 1.94-2.61 5-4.09 6.73-7 .67-1.12 2.32-1.66 3.57-2.42 3.87-2.29 7.27-5.19 11.36-7.31 3.4-1.76 6.88-3.7 10.37-5.14 4-1.66 8-3.91 12.46-4.42a6.59 6.59 0 0 0 3.21-1.09c4-3.11 8.91-3 13.45-4.16a31.89 31.89 0 0 0 5.24-1.66c1.15-.52 2.68-.11 3.94-.47 5.24-1.51 10.72-.77 16-1.71 2.82-.51 5.62-1.16 8.43-1.73 4.22-.83 8.49-1.15 12.73-1.66 2.58-.31 5-1.4 7.58-1.41.3 0 .74-.32.83-.21 2 1.76 4.35.54 6.45.93 2.9.54 5.81-.27 8.57.42s5.81.26 8.78.51 5.81-.11 8.71.15c3.8.33 7.58 1 11.38 1.11a108.72 108.72 0 0 1 16.47 1.84c3.82.73 7.73.91 11.54 2.41 2.49 1 5.05 2.32 7.7 2.71 4.29.63 8.17 2.36 12.05 3.93 2.82 1.14 5.72 2.09 8.49 3.43 3.07 1.48 6.4 2.39 9.62 3.56.55.2 1.2.24 1.45 1 .52 1.66 1.3 2.06 3.24 1.66.83-.16 2.82 1 4.15 1.76a40.07 40.07 0 0 1 4.19 2.63 12.91 12.91 0 0 0 5.4 2.39c3.88.74 6.13 3.84 9.3 5.57s5.67 3.91 8.49 5.82c2.38 1.66 5.73 2.29 8 4.16 4.48 3.7 10 5.9 14.18 9.86 1.91 1.8 3.65 3.81 5.73 5.47 3.32 2.63 6.8 5 9.74 8.12 3.12 3.32 6.06 6.85 8.85 10.4s5 7.36 7.63 10.92c1.17 1.56 3.22 2.49 4.07 4.36 1.32 3 3.59 5.35 5.08 8.21a7.31 7.31 0 0 1 .63 2 14.41 14.41 0 0 0 2.49 6.06 3.84 3.84 0 0 1 .83 2.76c-.44 1.5.56 2.78.83 4.16a84.88 84.88 0 0 1 1.15 17.71c-.11 3.17-1.82 6.55-4.1 9.26-1.48 1.89-2.78.37-3.81-.32zm73.33 121.15a20.42 20.42 0 0 1-3.61 9.79c-1.18 1.66-3.26 2.12-5.13 2.74a4 4 0 0 1-2.49.23c-1.2-.37-2.33-.7-1.35-2.49a33.66 33.66 0 0 0 3.15-8.94 8.15 8.15 0 0 0-.88-5.3c-.5-1-1-.92-1.66 0-1.44 2-1.66 4.4-1.78 6.65-.36 5.34-3.32 9.14-7.1 12.25-2 1.66-5.32.83-8 1.2-.42 0-1.15-.61-1.35-1.11-.42-1 .74-.3 1-.69 0-.07.11-.12.13-.19 1.41-4.07 5.13-7.35 4.11-12.29a37.71 37.71 0 0 1-.31-5.22c-.07-1.11-.58-2.1-1.72-2.09s-1.25 1.23-1.43 2.09a21.4 21.4 0 0 0-.22 2.74c.31 3.81-1.91 6.91-2.87 10.37a.59.59 0 0 1-.27.36c-2.91 1.16-5.07 3.66-8.06 4.62-1.55.5-3-.63-4.1-1.37-2.62-1.66-3.32-4.2-2.61-7.39.83-3.93 2.63-7.48 3.86-11.27a40.45 40.45 0 0 0 2.44-12.25c0-1 0-2-1.09-2.25s-1.51.73-1.78 1.45a32.09 32.09 0 0 0-1.24 4.37 31.59 31.59 0 0 1-2.87 8.1c-1.45 2.71-2.65 2.75-4.1.11a53.29 53.29 0 0 1-4.15-9c-.34-1 .89-2.75 1.66-4a20.29 20.29 0 0 1 4.68-4.84c2.37-1.89 4-4.54 5.57-7.08s2.7-4 6-4.25c4.61-.27 9.23-1 13.85-1 5.7 0 11.14 1.75 16.61 3.23.49.13.83.13 1 .83 2.06 6 3.32 12.27 4.91 18.42a41.15 41.15 0 0 1 1.19 13.48zm3.02-35.74c-.46.92-1 1.35-2.14.71-4.84-2.61-10.14-3.89-15.45-5.17-1.1-.27-2.09.18-3.16.06-6.34-.7-12.61.28-18.9.83-1.57.14-3.14.28-4.71.48-3 .37-4.42-2.34-3.1-5.56 1.66-4 5.29-6.28 11.79-6 4-.32 10 .61 15.86 1.19a24.3 24.3 0 0 1 11 3.47c2.49 1.58 5.86 1.75 7.48 4.68.87 1.63 2.31 3.22 1.25 5.3z" fill="#ff386c"/><path d="M283.26 466.52c-4.82-3.32-10-6.07-14.74-9.62-1.7-1.28-4-.7-5.81.23-2.68 1.37-4 4.26-6.65 5.54a1.26 1.26 0 0 0-.44 1.66 8.48 8.48 0 0 0 3.87 4.89c4.15 2 7.27 5.32 10.8 8.09a88.3 88.3 0 0 0 11.1 7.73c2.64 1.5 5.47 2.79 8.21 4.16 5.2 2.58 10.35 5.3 16 6.72s11.18 3.27 16.16 6.57c1.7 1.14 2.34 1.43 1.05 3.43-1.62 2.49-1.28 5.53-.64 9.33.71 1.59-1.66 2.68-2.68 4.1-2.58 3.61-6.73 5.43-10.42 7.67a34 34 0 0 1-4.52 2.49c-2.71 1.14-5.67 2.23-7.73 4.16a31.82 31.82 0 0 1-7.55 5.13c-4.15 2.14-8.12 4.25-11.36 7.72-2.71 2.9-2.28 7.25 1.52 8.4 3.52 1.07 6.65 3.13 10.95 2.49 3.84-.54 8-.33 12-.46 1.31 0 2.63.43 3.85.1 3.87-1.06 7.39-3.1 11.41-3.89 2.63-.52 5.09-1.89 7.65-2.82a52.71 52.71 0 0 0 18-10.36c2.26-2.06 5-3.82 6-7.24.55-1.87.68-4 1.66-5.6a19.29 19.29 0 0 0 2.49-8.68c.59-7.48 2-15-.06-22.54-1.24-4.55-3-8.24-7.79-10-4.54-1.66-8.4.58-10.8 4.16-1 1.58-2.38 1.89-3.66.42-2.88-3.32-7-4.4-10.8-6.07-3.43-1.54-7.31-2-10.87-3.32a67.93 67.93 0 0 1-10.8-4.58 166.19 166.19 0 0 1-15.4-10.01zm43.3 52.8a3.58 3.58 0 0 0 4.29.27c.61-.41 1.18-.76 1.15-1.55s-.66-1.28-1.41-1.62c-1.32-.6-3.1-.32-3.81-2.12-1-2.38-.65-4.8-.41-7.21a1.8 1.8 0 0 1 1.36-1.58c3.51-1.16 6.91-2.54 8.85-6.1.76-1.41 1.28-2.74.52-4.26-.57-1.15.12-1.94.78-2.62 1.54-1.61 6.42-2.6 8.26-1.51a4.46 4.46 0 0 1 2 3.19 39.66 39.66 0 0 1 .53 4.37c-1.2 7.08-.3 14.58-1.52 22a52.64 52.64 0 0 1-3.75 11.72c-1.15 2.78-4 5-6.91 6.47a16.36 16.36 0 0 0-4.69 3.17c-1.09 1.15-2.69 1.6-3.92 2.39-2.93 1.87-6.51 2-9.28 4.16-.83.65-2.11.68-3.16 1.07a22.25 22.25 0 0 1-5.72 1.49c-4 .37-7.82 1.75-11.83 1.66-2.91-.07-5.69.93-8.75.16-2.08-.52-4.44-.58-6.65-1-.75-.14-1.87-.35-2-1.26s.92-1 1.51-1.47c3.51-2.58 7-5.21 10.52-7.76a6.64 6.64 0 0 1 2.8-1.3c4.86-.83 8.47-3.73 11.7-7.2a3 3 0 0 1 1.24-.95c3.63-1.22 6.45-3.88 9.88-5.49 3-1.39 4.36-4.52 6.57-6.76.74-.82.96-.98 1.85-.37zm6.94-290.09c.07-4.79-5.22-9.33-10-8.64-2.8.4-5.07 2-7.57 3.13a16.67 16.67 0 0 0-7.77 7.08 2 2 0 0 0 .36 2.68c1 .92 1.91.15 2.37-.47 1.66-2.22 4-3.69 5.81-5.73 1.47-1.66 5.91-2.86 7.82-2.05a6 6 0 0 1-.71.58c-2.92 1.75-5.87 3.52-7.63 6.55-1.49 2.57-3.6 4.65-5.15 7.17-.73 1.18-1.39 2.35-.73 3.61s2 .76 3.13.76a22.66 22.66 0 0 1 7.48.76 42.22 42.22 0 0 1-11.66 3.43 3.79 3.79 0 0 0-3.41 2.29c-1.1 3-3.32 5.32-4.34 8.31-.17.52-.51 1.1-1.07 1-3.52-.33-5.25 2.32-7.34 4.35-.72.7-1.48 1.66-1 2.63s1.53 0 2.32 0a11.54 11.54 0 0 0 2-.42c2.3-.48 4.49-1.79 7-.72 2.85 1.19 6.06 1.77 7.09 5.34.42 1.46 1.66 1.15 2.55.94a5.38 5.38 0 0 0 4-3.72c1.26-4.3 5.06-7.08 6.36-11.49.71-2.43 2.93-4.5 4.26-7 1.55-2.9 2.43-6 3.87-8.92 1.66-3.32 2.9-6.8 2-10.64a3.68 3.68 0 0 1-.04-.81zm-104.83-19.36a4.71 4.71 0 0 1 0-1.15c.06-5.09-5.25-9.47-10.32-8.62-4.08.67-7.38 3-10.8 5a11.9 11.9 0 0 0-4.22 5 2.14 2.14 0 0 0 .39 2.9c1.12.93 1.93-.09 2.49-.76.79-.91 1.66-1.74 2.49-2.6 2.67-2.78 5.57-5.09 9.63-5.43.56 0 1-.22 1.25.55-2.23 1.86-5.23 2.83-6.9 5.34-2.42 3.61-5.44 6.81-7.37 10.8-.66 1.35-.19 1.92.79 2.29a6.64 6.64 0 0 0 2.69.32 25.59 25.59 0 0 1 7.4.21 4.91 4.91 0 0 1-.73.83c-3.61 2.39-7.91 2.89-11.88 4.27a5.05 5.05 0 0 0-2.89 1.84c-1.44 2.43-3.32 4.7-3.55 7.71-.07.95-.83 1.07-1.45 1.07-3 0-7.4 2.77-8.37 5.47-.44 1.22-.35 1.86 1.34 1.54a43 43 0 0 0 5.06-1.3c4.15-1.32 10 1 11.7 4.94a2 2 0 0 0 2.49 1.3 6 6 0 0 0 3.23-1.94c1.35-1.55 1.79-3.52 2.79-5.21 1.52-2.58 3.61-4.75 4.59-7.8.83-2.56 3-4.64 4.35-7.18 1.66-3.12 2.53-6.46 4.09-9.56s2.59-6.31 1.71-9.83zm31.16 39.89a2.44 2.44 0 0 0-1.66-2c-1-.35-1.5.52-2 1.17-2.23 3-3 7-5.88 9.52-1.44 1.26-1.1 3.65-2.87 4.54s-3.46 2.23-5.26 3.24c-2.38 1.35-3.51.73-4.15-1.88-.4-1.57.37-2.65 1-3.85 2-4.16 4.15-8.31 5.91-12.66.52-1.28.51-2.24-.58-3s-2-.45-2.93.34a20.66 20.66 0 0 1-11.06 4.92c-.74.1-1.59.33-1.66 1.29s.51 1.39 1.21 1.8a5.91 5.91 0 0 0 4 .42c2-.31 2.11 0 1.66 2-1 4.2-2.2 8.53-.35 12.85a3.13 3.13 0 0 0 .61 1.2c2 1.66 7.58 2.1 9.47.36 2.56-2.36 5.81-3.95 7.79-7a44.87 44.87 0 0 1 3.39-4c.65-.75 1-1.19 2 0a7.83 7.83 0 0 0 8.17 2.92 21.28 21.28 0 0 1-6.81-12.18zM293 196.8a23.66 23.66 0 0 0 3.27-.55 41.58 41.58 0 0 0 10.05-5c2.64-1.76 5-4.09 5.48-7.74.36-2.86-2.6-6.52-5.3-5.82-6.52 1.66-11.89 4.7-14 11.76-.37 1.25-.27 2.82-1.34 3.78a1.78 1.78 0 0 0-.57 2.42 2.24 2.24 0 0 0 2.41 1.15zm12-14.79c1.3-.54 1.87 0 2 .76.32 1.47.22 3.21-1 4.16-2.87 2.21-6.39 3-9.83 4.06 2.65-3.22 4.44-7.24 8.73-8.99zm-36.37-5.85c-1.84 3.17-1.66 6.72-1.82 10.27a42.53 42.53 0 0 0 1.58 5.46c.35.83 1.1 2.09 2.36 1.76a10.6 10.6 0 0 0 7.6-6.52 84.84 84.84 0 0 0 2.42-8.48 4.73 4.73 0 0 0-1.1-4.88c-4.84-4.42-8.2-2.54-11.04 2.39zm7.65 2.44c-.49 3.64-.93 7.34-4.37 10.21a42.4 42.4 0 0 1 .92-10.62 2.16 2.16 0 0 1 2.54-1.79c1.4.22 1 1.38.91 2.19zm46.12 24.56c2.49 1.12 5 1.71 7 1.31 5.2-.13 9.08-1.58 12.24-4.75 1.66-1.66 2.27-6.23 1.44-8.09s-2.69-1.48-4.15-1.8c-4.41-.95-8.12 1-11.63 3.22-2.34 1.48-3.43 4.24-5.66 6-1.97 1.4-1.43 3.12.76 4.11zm3.15-4.45c2.42-1.34 4.45-3.32 7.05-4.33 1.17-.44 2.42-1.11 3.27-.5H338c.9-.06 1.17.63 1.45 1.24a1.19 1.19 0 0 1-.57 1.57c-3.51 2.29-7.18 4.11-11.56 3.32a2.13 2.13 0 0 0-1.1.11c-.47.15-1 .69-1.41 0s.32-1.16.78-1.4zm116.03 61.99c1.76-2.24 1.6-4.28-.42-5.1-4.39-1.78-9-1.16-13.17.19a10.86 10.86 0 0 0-6.23 6.28 4.12 4.12 0 0 0 2.88 5.87c1.54.35 3.13.44 4.68.64a14.88 14.88 0 0 0 5.17-1.36 23.09 23.09 0 0 0 7.09-6.52zm-14.79 2.88c1.78-5.26 6.11-4.55 10.06-4.73-.64 3.91-3.73 6.77-10.06 4.72z" fill="#ff386c"/><path d="M194.83 210c.78.47 1.29-.7 1.66-1.24a35.38 35.38 0 0 1 7.9-8.36 31.67 31.67 0 0 0 3.59-2.49 20.85 20.85 0 0 1 10.72-5.68c2.38-.48 4.69.4 7-.07a6.08 6.08 0 0 1 4.93.74c.74.5 1.61.88 2.24 0s.22-1.77-.5-2.49a7 7 0 0 0-1.76-1.43 14.93 14.93 0 0 0-11.79-.79c-2.27.83-4.88.54-6.79 2.49l-.28-.67c-2.49 1.39-5.33 2.38-7.39 4.24a34.39 34.39 0 0 0-9.14 13.83c-.22.63-1.34 1.36-.39 1.92zm178.74 13.7c1.82.11 2.72-.91 3.61-1.66 3.63-2.93 4.29-8.89-.83-11.36a8.57 8.57 0 0 1-2.11-1.36c-3.16-3-7.11-2.92-11-2.94a2.53 2.53 0 0 0-2 1.28c-1.5 1.89-.42 3.61 0 5.42.92 3.89 2.2 7.48 6.11 9.56 2.21 1.21 4.57-.01 6.22 1.06zm-9.64-11.12c-.51-2.09-.17-2.76 2-2.66 4.46.22 7.28 3.32 10.22 6.13.16.16.07.58 0 .32-.07 2.87-1.44 3.91-3.74 3.32-4-1-7.39-2.65-8.5-7.11zm47.17 16.68c-.89-2.29-2.35-3-4.27-1.37-1.19 1-2.32 2.14-3.53 3a9.49 9.49 0 0 0-4.15 9.22c-.52 1.4.07 2.69 1.08 3.92 2.14 2.61 7 3.42 8.83 1.34a13.12 13.12 0 0 0 3.48-12 26.07 26.07 0 0 0-1.44-4.11zm-5.48 13.46c-1.66 0-2.71-.66-2.67-2.58a6 6 0 0 1 2-4.9 6.84 6.84 0 0 0 .76-.83c.5-.61.52-2 1.4-1.81s1.45 1.5 1.66 2.56a20 20 0 0 1 .23 2.49c-.21 3.35-1.43 5.1-3.38 5.07zm-28.15-4.67c-2.49-.89-4.15-.29-5.81 1.72-2.14 2.49-2.27 5.4-1.84 8.41a3.11 3.11 0 0 0 .95 1.76c2.58 2.22 5.27 4.16 8.78 4.91 4.06.9 5.92-.24 6.09-5.73 0-1.66-1.42-4.11-2.58-6.65s-3.26-3.59-5.59-4.42zm2.12 13.19c-3.54-.06-6.75-4.35-5.81-8a1.89 1.89 0 0 1 2-1.46 4.68 4.68 0 0 1 4.62 3.27 27.32 27.32 0 0 0 1 4.16c.89 1.94-.23 2-1.84 2.08zm-40.94-40.44a20.09 20.09 0 0 0-8.9-3.39 2.17 2.17 0 0 0-2.62 1.66 2 2 0 0 0 1.45 2.34 18 18 0 0 1 8.35 4.87 15.91 15.91 0 0 1 4.66 10.8 14.65 14.65 0 0 0 2.21 7.9c.57-2.24 1.57-4.47 1.66-6.72.06-2.94-.83-5.88-1.35-8.78-.68-3.48-1.96-6.48-5.46-8.68zM244 192.63c1.3.74 3 1 3.65-.83a28.87 28.87 0 0 0 .83-5.19c-.53-4.32-1.9-7.81-6.14-9.58-3.38-1.42-7.27-.51-7.71 2.15a8.51 8.51 0 0 0 1.93 7.48 30.74 30.74 0 0 0 7.44 6zm-4.93-12.06c.41-.46 1.16-.18 1.74 0 2.83.62 4 2.22 4.1 5.53 0 .63.56 1.42-.39 1.8-.76.31-1.19-.33-1.77-.71-1.75-1.15-2.41-3.11-3.61-4.64a1.61 1.61 0 0 1-.07-1.94zm208.59 95.29c1.11-.55 2.42-1.84 3.21-1.84 3 0 4.91-1.94 7.21-3.08s4.4-3 4.8-5.9c.16-1.14 0-2.49-1.18-2.92s-1.66.57-1.9 1.66a2.75 2.75 0 0 1-.61.93c-2.78 3.7-7.23 4.8-11.06 6.71-2.42 1.21-5.26 1.86-7.62 3.22-1.74 1-3.21 2.49-5.32 2.92 4.42 1.35 8.53.24 12.47-1.7zm8.14 5.72c5.1-.45 7.79-4 10.18-7.9.74-1.22 1.15-2.57-.31-3.39s-2.12.48-2.65 1.48c-2.63 5-8 6.31-12.4 8.24a39.86 39.86 0 0 1-12.71 3.21c2.62 1.17 4.78.83 6.84 1.07a13.35 13.35 0 0 0 9.52-2.22 3.13 3.13 0 0 1 1.52-.48zm-310.38-27.21c-4.15-2.73-7.48-6.06-7-11.32 0-1-.06-1.66-.13-2.37-.1-.93.22-2.09-1.25-2.33a2 2 0 0 0-2.22 1.62c-.89 3-1.66 6.12 0 9.23a28.62 28.62 0 0 0 5.81 7 15.47 15.47 0 0 0 7.1 3.32c.51.12 1.12.19 1.44-.37a.89.89 0 0 0-.07-.83c-1.38-1.08-2.1-2.88-3.68-3.95zm327.09 26.85c.66-1.11.71-2.12-.39-2.78s-1.79.17-2.49 1a7.36 7.36 0 0 1-2.73 2.38 32.39 32.39 0 0 0-5.81 2.58c-2.56 1.66-5 3.53-8.09 4.06a.89.89 0 0 0-.83.95c.06.57.56.65 1 .69l3.61.36a28.86 28.86 0 0 0 8.63-2.57 15.48 15.48 0 0 0 7.1-6.67zm-319.04-33.8a16.46 16.46 0 0 1-10.38-11.57c-.25-1-.83-1.94-2.11-1.66s-1.17 1.44-1.1 2.41c.27 4.66 2.62 8.09 6.39 10.7 2 1.38 3.91 2.89 6.25 2.87 1.11-.27 2.43.29 2.68-.83.19-.96-.98-1.63-1.73-1.92zm-4.62-17.11a18.05 18.05 0 0 0-.39-1.78c-.27-1-.59-2-1.92-1.84s-1.48 1.16-1.59 2.18a6.57 6.57 0 0 0 0 1.37c.68 6.8 7.68 13.4 15.26 12.4-1.21-.76-2.06-1.25-2.87-1.8-3.97-2.61-7.64-5.43-8.49-10.53zm326.58 59.34a33.87 33.87 0 0 1-3.9 1.85c-3.32 1.25-6.65 2.4-10.35 3.71 3.55 1.66 6.83 1.38 10 .74a11.15 11.15 0 0 0 6.18-3.71c.59-.66 1.2-1.55.48-2.49s-1.53-.55-2.41-.1zM199.3 248.71a3.6 3.6 0 0 0-3.49 3.45 3.25 3.25 0 0 0 3 3.07c1.59-.1 2.76-1.92 2.7-4.38.01-1.4-.69-2.25-2.21-2.14zm108.78 32.5c-.91.21-2 .58-2 2 0 2 2.25 4.8 3.77 4.45a2.8 2.8 0 0 0 2.15-2.63c.14-1.67-2-3.88-3.92-3.82zm-120.63-29.79c-2 0-2.19 1.74-2.35 3.32-.19 1.78 1.19 1.81 2 2.12 2 0 3.64-1.41 3.41-2.88a2.87 2.87 0 0 0-3.06-2.56zm11.25 9.46c-2-.15-2.3 1.45-2.49 2.89s1.12 1.91 1.76 2.15c2.08 0 3.61-.39 3.49-2.27a2.91 2.91 0 0 0-2.76-2.77zm103.93 9.65c-1.57-.16-2.13 1.24-2.13 2.4a2.34 2.34 0 0 0 2.4 2.65c2 0 2.18-1.41 2.49-2.49.12-2.31-1.5-2.4-2.76-2.56zm-6.73 6.77c-1.18 0-2.75.42-2.7 2.14s.71 2.86 2.69 2.67c1.2 0 2.38-.34 2.26-1.87s-.59-2.93-2.25-2.94zm148.05 145.62a22.27 22.27 0 0 1-7.13 1.76c-2.73.17-5.35-.94-8.07-.32a31.82 31.82 0 0 1-11.36.32c-4.21-.58-8.44-1-12.66-1.58-3-.41-5.81.27-9 1 3.44 2.84 7.42 2.76 11 3.8 1.66.47 3.48 1.13 5.1.9 6.93-1 13.8.89 20.77.16 4.44-.47 8.79-1 12.74-3.19.83-.44 1.74-1.11 1.14-2.38s-1.74-.78-2.53-.47zm-1.77 10.77a25.44 25.44 0 0 0-4.37.32c-4.29.91-8.58-.49-12.92.23-3.26.54-6.7-.14-10 .1-5.93.43-11.85 0-17.78 0h-13.63c6.84 2.49 13.65 4.56 20.87 3.61 2-.26 3.84.83 5.81.57a82.41 82.41 0 0 1 10.73-.46c5.76 0 11.47-.4 17.19-.79a8.35 8.35 0 0 0 4.69-1.66c.35-.29.83-.54.66-1.1a1.13 1.13 0 0 0-1.25-.82zm-304.79-40.4c-4-1.75-7.81-3.71-11.63-5.66-1-.52-1.66-1.54-2.94-.65s-.83 2.22-.27 3.27a9 9 0 0 0 4.15 3.67 91.9 91.9 0 0 0 19 7.41c3.86 1 7.88.41 11.85-.32-2.2-1.37-4.68-1.85-7-2.92-4.2-1.97-8.84-2.9-13.16-4.8zm.83-10.84c-4.35-1.66-8.76-3.32-13.17-4.86-.71-.25-1.61-.53-2 .37s.51 1.17 1.1 1.66c2 1.66 4.59 1.94 6.57 3.57a32 32 0 0 0 10.46 5.6c4.82 1.6 9.74 1.88 14.69 2.06a6.08 6.08 0 0 0 4.45-1 12.84 12.84 0 0 0-1.35-.61c-7.04-1.95-13.97-4.16-20.75-6.79zm324.61-14.38c-7.1-.76-14.25-.41-21.37-1.19-5.81-.64-11.43 1.35-17.14 2.62 3.37.78 6.81.83 10.09 1.83a17.87 17.87 0 0 0 6.74.73c.83-.07 1.53-.52 2.39-.61a33 33 0 0 1 7 .24c2.38.24 4.68-.63 7-.39s4.38-.47 6.56-.08c.75.12 1.1-.37 1.36-1a1.1 1.1 0 0 0-.68-1.5 5.81 5.81 0 0 0-1.95-.65zm-2.26 6.77a27.54 27.54 0 0 0-3.61-.59c-4.32-.47-8.51 1-12.84.77-1.55-.07-3.1-.47-4.72 0a31.55 31.55 0 0 1-6.9 1.45c-.44 0-1 0-.93.66 0 .47.48.52.83.57 2 .26 4 .22 5.81 1a6.89 6.89 0 0 0 4.06.29c3.73-.76 7.53-.14 10.89-.88 2.93.52 5.1-.9 7.48-1.41.53-.12 1.13-.33 1.19-.92.17-.9-.76-.78-1.26-.94z" fill="#ff386c"/><path fill="#ffed02" d="M516.82 217.56L499.87 268.1 478.97 219.07 441.8 257.23 444.21 203.98 345.75 271.84 419.43 175.28 366.47 169.97 409.54 138.65 364.12 110.85 416.5 101.34 387.63 56.57 438.92 70.77 432.31 17.87 472.38 52.96 489.33 2.43 510.23 51.45 547.39 13.29 544.99 66.55 595 48.31 569.77 95.25 622.73 100.55 579.66 131.87 625.07 159.68 572.7 169.17 601.57 213.96 550.28 199.76 556.89 252.65 516.82 217.56z"/><path d="M345.75 274.27a2.43 2.43 0 0 1-1.93-3.9l71-93.11-48.64-4.88A2.43 2.43 0 0 1 365 168l40.13-29.18-42.32-25.9a2.43 2.43 0 0 1 .83-4.46l48.8-8.85-26.9-41.72a2.43 2.43 0 0 1 2.69-3.65l47.79 13.23-6.12-49.3a2.43 2.43 0 0 1 4-2.13l37.33 32.69L487 1.65a2.43 2.43 0 0 1 4.54-.18L511 47.15l34.62-35.55a2.43 2.43 0 0 1 4.16 1.8l-2.2 49.6 46.59-17a2.43 2.43 0 0 1 3 3.43L573.63 93.2 623 98.14a2.43 2.43 0 0 1 1.19 4.38L584 131.7l42.32 25.91a2.43 2.43 0 0 1-.83 4.46l-48.8 8.85 26.9 41.73a2.43 2.43 0 0 1-2.69 3.66l-47.79-13.23 6.16 49.28a2.43 2.43 0 0 1-4 2.13L518 221.79l-15.79 47.08a2.43 2.43 0 0 1-4.54.18l-19.47-45.67-34.62 35.55a2.43 2.43 0 0 1-4.16-1.8l2.18-48.37-94.43 65.09a2.42 2.42 0 0 1-1.42.42zM479 216.64a2.43 2.43 0 0 1 2.23 1.48l18.4 43.15 14.92-44.48a2.43 2.43 0 0 1 3.9-1.05l35.27 30.88-5.82-46.56a2.43 2.43 0 0 1 3.06-2.64l45.16 12.5-25.42-39.43a2.43 2.43 0 0 1 1.61-3.7l46.11-8.36-40-24.48a2.43 2.43 0 0 1-.16-4l37.92-27.58-46.62-4.67a2.43 2.43 0 0 1-1.9-3.56l22.22-41.33-44 16.05a2.43 2.43 0 0 1-3.26-2.39l2.12-46.88L512 53.15a2.43 2.43 0 0 1-4-.74L489.6 9.25l-14.92 44.48a2.43 2.43 0 0 1-3.9 1.05L435.51 23.9l5.82 46.57a2.43 2.43 0 0 1-3.06 2.64l-45.16-12.5L418.54 100a2.43 2.43 0 0 1-1.61 3.7l-46.11 8.37 40 24.47a2.43 2.43 0 0 1 .16 4L373 168.19l46.63 4.67a2.43 2.43 0 0 1 1.69 3.89l-64.42 84.44L442.83 202a2.43 2.43 0 0 1 3.8 2.11L444.52 251l32.71-33.59a2.43 2.43 0 0 1 1.77-.77z" fill="#ff386c"/><path d="M490.06 108l-.61 16.35-5 1 .1-6.4-4.31.8v6l-5.21.83-.18-16.23 5.21-.83.13 5.78 4.54-.83.09-5.7zm9.19 3.7h.23l.13-.95 4.53-.25-.1 11.86-4 .86-.21-.9h-.23a4.21 4.21 0 0 1-2.28 1.29c-4.08.65-5.83-2.79-5.78-5.12.06-3.26 1.91-6.57 5.42-7.13a4 4 0 0 1 2.29.34zm.21 6.93v-3.24a2.36 2.36 0 0 0-1.59-.21c-1.13.18-1.59 1.41-1.6 2.34 0 1.28.4 2.26 1.54 2.08a3.14 3.14 0 0 0 1.66-.97zm11.63-12.52a3 3 0 0 1-2.63 2.74 2 2 0 0 1-2.56-1.82 3 3 0 0 1 2.64-2.83 2.11 2.11 0 0 1 2.55 1.91zm-.28 3.53l.26 11.34-5 .79.19-11.41zm-58.4 40.95c4.08-.65 6.29 2.49 6.24 5.51a7.31 7.31 0 0 1-6.45 7.06 5.24 5.24 0 0 1-6.24-5.51c.04-3.73 2.6-6.45 6.45-7.06zm-1.92 6.34c0 .93.18 2.76 1.77 2.51a2.55 2.55 0 0 0 1.86-2.62c0-1.4-.41-2.72-1.77-2.51-1.59.25-1.84 1.92-1.86 2.62zm17.12-3.41a2.2 2.2 0 0 0-1.68-.66 2.1 2.1 0 0 0-1 .51v7.31l-4.65 1v-11.84l3.84-.84.21.9h.23a3.59 3.59 0 0 1 5.43-.16zm9.81-5.97h.23l.21-5.84 4.53-.25-.18 16.75-4 .86-.21-.9h-.23a4.22 4.22 0 0 1-2.28 1.29c-4.08.65-5.83-2.79-5.78-5.12.06-3.26 1.91-6.57 5.42-7.13a4 4 0 0 1 2.29.34zm.22 6.93v-3.24A2.36 2.36 0 0 0 476 151a2.25 2.25 0 0 0-1.6 2.34c0 1.28.4 2.26 1.54 2.08a3.14 3.14 0 0 0 1.69-.93zm12.18-12.6a3 3 0 0 1-2.63 2.74 2 2 0 0 1-2.56-1.82 3 3 0 0 1 2.64-2.83 2.11 2.11 0 0 1 2.55 1.91zm-.28 3.53l.26 11.34-5 .79.19-11.41zm14.31 9.1s-4.54.81-4.54.79l.11-5.89c0-.93-.31-1.92-1.1-1.8a5.31 5.31 0 0 0-1.61.72v7.31l-4.65 1-.13-11.82 4-.86.32.88h.23a6.93 6.93 0 0 1 2.85-1.38c3.06-.48 4.74.76 4.67 5.3zm9.01-12.57h.23l.13-.95 4.53-.25-.1 11.86-4 .86-.21-.9h-.23a4.22 4.22 0 0 1-2.28 1.29c-4.08.65-5.83-2.79-5.78-5.12.07-3.26 1.91-6.57 5.42-7.13a4 4 0 0 1 2.29.34zm.22 6.93v-3.24a2.36 2.36 0 0 0-1.59-.21c-1.13.18-1.59 1.41-1.6 2.34 0 1.28.4 2.26 1.54 2.08a3.14 3.14 0 0 0 1.65-.97zm11.83-5.59v3.26c0 .7.43 1.09.88 1a3.15 3.15 0 0 0 1.14-.41l1.07 3.08a8.08 8.08 0 0 1-3.64 1.51c-2.49.39-4.06-1-4-4l.08-3.61-1.59.37.29-3.76 1.36-.22v-2.56l4.55-1.63-.05 3.47 2.72-.43-.52 3.45zm9.93-5.75c4.08-.65 6.29 2.49 6.24 5.51a7.31 7.31 0 0 1-6.45 7.06 5.24 5.24 0 0 1-6.24-5.51c.09-3.73 2.61-6.45 6.45-7.06zm-1.92 6.34c0 .93.18 2.76 1.77 2.51 1.36-.22 1.85-1.69 1.86-2.62 0-1.4-.41-2.72-1.77-2.51-1.58.26-1.78 1.92-1.86 2.62zm14.67 1.86a3.18 3.18 0 0 1-2.65 2.74 2.06 2.06 0 0 1-2.56-1.92 3.13 3.13 0 0 1 2.63-2.74 2.09 2.09 0 0 1 2.58 1.92zm-4.58-3v-11.37l5.89-.47-1.56 11.39z" fill="#ff386c"/></svg>