<svg xmlns="http://www.w3.org/2000/svg" width="284.18" height="274.27" viewBox="0 0 284.18 274.27"><path fill="#ffed02" d="M173.5 217.56l-16.95 50.54-20.91-49.03-37.16 38.16 2.4-53.25-98.45 67.86 73.68-96.56-52.96-5.31 43.07-31.32-45.42-27.8 52.37-9.51L44.3 56.57l51.3 14.2-6.62-52.9 40.07 35.09L146 2.43l20.91 49.02 37.16-38.16-2.41 53.26 50.02-18.24-25.24 46.94 52.96 5.3-43.07 31.32 45.42 27.81-52.37 9.49 28.87 44.79-51.3-14.2 6.61 52.89-40.06-35.09z"/><path fill="#ff386c" d="M2.43 274.27a2.43 2.43 0 0 1-1.93-3.9l71-93.11-48.6-4.88a2.43 2.43 0 0 1-1.18-4.38l40.13-29.18-42.32-25.9a2.43 2.43 0 0 1 .83-4.46l48.8-8.85-26.9-41.72a2.43 2.43 0 0 1 2.69-3.65l47.79 13.22-6.17-49.29a2.43 2.43 0 0 1 4-2.13l37.32 32.69L143.7 1.65a2.43 2.43 0 0 1 4.54-.18l19.47 45.67 34.62-35.55a2.43 2.43 0 0 1 4.16 1.8L204.25 63l46.59-17a2.43 2.43 0 0 1 3 3.43L230.3 93.2l49.34 4.94a2.43 2.43 0 0 1 1.19 4.38L240.7 131.7l42.3 25.91a2.43 2.43 0 0 1-.83 4.46l-48.8 8.85 26.9 41.73a2.43 2.43 0 0 1-2.69 3.66l-47.79-13.23 6.21 49.27a2.43 2.43 0 0 1-4 2.13l-37.32-32.68-15.79 47.08a2.43 2.43 0 0 1-4.54.18l-19.47-45.67-34.62 35.55a2.43 2.43 0 0 1-4.16-1.8l2.18-48.37-94.47 65.07a2.42 2.42 0 0 1-1.38.43zm133.21-57.63a2.45 2.45 0 0 1 .45 0 2.43 2.43 0 0 1 1.79 1.43l18.4 43.15 14.92-44.48a2.43 2.43 0 0 1 3.9-1.05l35.27 30.88-5.82-46.56a2.43 2.43 0 0 1 3.06-2.64l45.16 12.5-25.42-39.43a2.43 2.43 0 0 1 1.61-3.7l46.11-8.36-40-24.48a2.43 2.43 0 0 1-.16-4l37.92-27.58-46.63-4.65a2.43 2.43 0 0 1-1.9-3.56l22.22-41.33-44 16.05a2.43 2.43 0 0 1-3.26-2.39l2.12-46.88-32.74 33.59a2.43 2.43 0 0 1-4-.74L146.27 9.25l-14.92 44.48a2.43 2.43 0 0 1-3.9 1.05L92.18 23.9 98 70.47a2.43 2.43 0 0 1-3.06 2.64l-45.15-12.5L75.21 100a2.43 2.43 0 0 1-1.61 3.7l-46.11 8.4 40 24.47a2.43 2.43 0 0 1 .16 4l-37.93 27.62 46.63 4.67a2.43 2.43 0 0 1 1.65 3.89l-64.39 84.43L99.51 202a2.43 2.43 0 0 1 3.8 2.11L101.19 251l32.71-33.59a2.43 2.43 0 0 1 1.74-.77z"/><g style="isolation:isolate" fill="#ff386c"><path d="M120.92 144.49l.5-16.33c5.4-1.09 3.18-.74 5.9-1.17 3.63-.57 7.67.64 7.6 4.6-.08 3.73-2.38 6.65-7.82 7.51l-1.25.2-.08 4.89zm5-9.39l1.25-.2c2.27-.36 2.72-1.13 2.75-2.29s-1.1-1.68-2.69-1.43l-1.25.2zm22.29 5.07l-11.57 2.3.29-16.77 5.21-.82-.45 12.38 6.12-1.2z"/><path d="M160.37 121.52L166 137.1l-5.33 1.56-1.28-4-4.64.74-1.31 3.92-5.44.86 6.5-17.28zm-4.58 10.25l2.61-.41-1.06-3.36h-.22zm23.47-11.5l-5.47 10.15-.1 5.7-5 .79.1-5.7-5-9.77 5.66-.9 2 5h.23l3.06-6.75zm5.56 12.24a3.18 3.18 0 0 1-2.65 2.74 2.06 2.06 0 0 1-2.56-1.92 3.13 3.13 0 0 1 2.63-2.74 2.09 2.09 0 0 1 2.58 1.92zm-4.58-3v-11.37l5.89-.47-1.56 11.39z"/></g></svg>