<svg xmlns="http://www.w3.org/2000/svg" width="284.18" height="274.27" viewBox="0 0 284.18 274.27">
  <path fill="#ffed02" d="M173.5 217.56L156.55 268.1 135.64 219.07 98.48 257.23 100.88 203.98 2.43 271.84 76.11 175.28 23.15 169.97 66.22 138.65 20.8 110.85 73.17 101.34 44.3 56.57 95.6 70.77 88.98 17.87 129.05 52.96 146 2.43 166.91 51.45 204.07 13.29 201.66 66.55 251.68 48.31 226.44 95.25 279.4 100.55 236.33 131.87 281.75 159.68 229.38 169.17 258.25 213.96 206.95 199.76 213.56 252.65 173.5 217.56z"/>
  <path fill="#ff386c" d="M2.43 274.27a2.43 2.43 0 0 1-1.93-3.9l71-93.11-48.6-4.88a2.43 2.43 0 0 1-1.18-4.38l40.13-29.18-42.32-25.9a2.43 2.43 0 0 1 .83-4.46l48.8-8.85-26.9-41.72a2.43 2.43 0 0 1 2.69-3.65l47.79 13.22-6.17-49.29a2.43 2.43 0 0 1 4-2.13l37.32 32.69L143.7 1.65a2.43 2.43 0 0 1 4.54-.18l19.47 45.67 34.62-35.55a2.43 2.43 0 0 1 4.16 1.8L204.25 63l46.59-17a2.43 2.43 0 0 1 3 3.43L230.3 93.2l49.34 4.94a2.43 2.43 0 0 1 1.19 4.38L240.7 131.7l42.3 25.91a2.43 2.43 0 0 1-.83 4.46l-48.8 8.85 26.9 41.73a2.43 2.43 0 0 1-2.69 3.66l-47.79-13.23 6.21 49.27a2.43 2.43 0 0 1-4 2.13l-37.32-32.68-15.79 47.08a2.43 2.43 0 0 1-4.54.18l-19.47-45.67-34.62 35.55a2.43 2.43 0 0 1-4.16-1.8l2.18-48.37-94.47 65.07a2.42 2.42 0 0 1-1.38.43zm133.21-57.63a2.45 2.45 0 0 1 .45 0 2.43 2.43 0 0 1 1.79 1.43l18.4 43.15 14.92-44.48a2.43 2.43 0 0 1 3.9-1.05l35.27 30.88-5.82-46.56a2.43 2.43 0 0 1 3.06-2.64l45.16 12.5-25.42-39.43a2.43 2.43 0 0 1 1.61-3.7l46.11-8.36-40-24.48a2.43 2.43 0 0 1-.16-4l37.92-27.58-46.63-4.65a2.43 2.43 0 0 1-1.9-3.56l22.22-41.33-44 16.05a2.43 2.43 0 0 1-3.26-2.39l2.12-46.88-32.74 33.59a2.43 2.43 0 0 1-4-.74L146.27 9.25l-14.92 44.48a2.43 2.43 0 0 1-3.9 1.05L92.18 23.9 98 70.47a2.43 2.43 0 0 1-3.06 2.64l-45.15-12.5L75.21 100a2.43 2.43 0 0 1-1.61 3.7l-46.11 8.4 40 24.47a2.43 2.43 0 0 1 .16 4l-37.93 27.62 46.63 4.67a2.43 2.43 0 0 1 1.65 3.89l-64.39 84.43L99.51 202a2.43 2.43 0 0 1 3.8 2.11L101.19 251l32.71-33.59a2.43 2.43 0 0 1 1.74-.77z"/>
  <path fill="#ff386c" d="M125.17 143.82l.5-16.33c5.4-1.09 3.18-.74 5.9-1.17 3.63-.57 7.67.64 7.6 4.6-.08 3.73-2.38 6.65-7.82 7.51l-1.25.2-.08 4.89zm5-9.39l1.25-.2c2.27-.36 2.72-1.13 2.75-2.29s-1.1-1.68-2.69-1.43l-1.25.2zm14.97-10.5v16.73l-4.77.52.29-16.07zm9.42 4.07h.23l.13-.95 4.53-.25-.1 11.86-4 .86-.21-.9h-.23a4.21 4.21 0 0 1-2.28 1.29c-4.08.65-5.83-2.79-5.78-5.12.06-3.26 1.91-6.57 5.42-7.13a4 4 0 0 1 2.29.34zm.22 6.93l-.05-3.24a2.36 2.36 0 0 0-1.59-.21c-1.13.18-1.59 1.41-1.6 2.34 0 1.28.4 2.26 1.54 2.08a3.14 3.14 0 0 0 1.7-.95zm13.54 1.24h-.23a4.37 4.37 0 0 1-2.29.94c-3.17.5-4.48-1.61-4.41-5.69l.2-5 4.52-.95-.09 5.59c0 1.4.53 1.89 1.1 1.8a2.29 2.29 0 0 0 1.27-.66l.23-6.89 4.74-1-.17 10.94c-.07 4-2.94 6.39-6.56 7a7.51 7.51 0 0 1-4.75-.52l1.43-3.71a6.09 6.09 0 0 0 2.7.5c1.6-.26 2.28-1.07 2.31-2.35zm12.25-2.99a3.18 3.18 0 0 1-2.66 2.74 2.06 2.06 0 0 1-2.56-1.92 3.13 3.13 0 0 1 2.63-2.74 2.09 2.09 0 0 1 2.59 1.92zm-4.58-3v-11.37l5.89-.47-1.56 11.39z"/>
</svg>
